{"glyphs":{"0":{"ha":719,"x_min":62,"x_max":656,"o":"m 359 -14 q 173 35 237 -14 q 85 172 109 83 q 62 378 62 260 q 85 584 62 496 q 173 721 109 672 q 359 770 237 770 q 547 721 483 770 q 633 584 610 672 q 656 378 656 496 q 633 172 656 260 q 547 35 610 83 q 359 -14 483 -14 m 359 31 q 512 68 458 31 q 585 183 565 106 q 605 378 605 260 q 585 573 605 496 q 512 687 565 650 q 359 725 458 725 q 209 687 262 725 q 135 573 155 650 q 114 378 114 496 q 135 183 114 260 q 209 68 155 106 q 359 31 262 31 z "},"1":{"ha":307,"x_min":16,"x_max":212,"o":"m 190 0 q 167 15 170 0 q 163 47 163 30 l 163 708 l 59 708 q 31 710 45 708 q 16 728 16 711 q 32 752 16 749 q 58 755 47 755 l 189 755 q 210 740 208 755 q 212 708 212 724 l 212 47 q 210 15 212 30 q 190 0 208 0 z "},"2":{"ha":627,"x_min":51,"x_max":572,"o":"m 81 -1 q 51 23 51 -1 q 85 120 51 79 q 173 194 119 161 q 287 257 227 227 q 400 324 347 288 q 488 406 454 359 q 522 516 522 452 q 458 675 522 627 q 294 722 393 722 q 189 711 237 722 q 105 688 141 700 q 87 685 95 685 q 63 703 63 685 q 100 735 63 720 q 192 760 138 750 q 294 769 245 769 q 503 701 434 769 q 572 513 572 633 q 541 397 572 447 q 460 310 510 348 q 353 241 410 272 q 243 180 296 210 q 151 119 189 151 q 103 47 113 87 l 525 47 q 548 40 541 47 q 555 23 555 33 q 548 6 555 14 q 525 -1 541 -1 l 81 -1 z "},"3":{"ha":642,"x_min":62,"x_max":583,"o":"m 302 -14 q 193 -4 248 -14 q 99 21 137 5 q 62 52 62 36 q 68 66 62 60 q 86 70 75 73 q 136 56 110 65 q 200 38 161 46 q 302 31 239 31 q 484 79 431 31 q 536 205 536 128 q 516 295 536 254 q 443 361 496 336 q 292 387 390 387 l 196 387 q 178 393 184 387 q 172 408 172 400 q 178 423 172 416 q 196 430 184 430 l 286 430 q 428 451 378 430 q 497 507 478 472 q 517 581 517 541 q 499 651 517 618 q 435 707 481 685 q 304 728 389 728 q 187 718 231 728 q 104 689 143 707 q 86 684 94 684 q 70 690 76 684 q 64 703 64 696 q 90 733 64 720 q 153 753 115 745 q 231 766 191 762 q 302 770 271 770 q 461 742 404 770 q 542 672 518 715 q 565 585 565 630 q 551 513 565 549 q 503 449 538 477 q 404 410 468 422 q 538 340 493 395 q 583 203 583 286 q 554 93 583 142 q 464 15 526 43 q 302 -14 401 -14 z "},"4":{"ha":718,"x_min":68,"x_max":708,"o":"m 487 0 q 465 15 467 0 q 462 47 462 30 l 462 236 l 117 236 q 74 251 80 236 q 68 283 68 266 l 68 710 q 71 741 68 726 q 94 755 75 755 q 115 740 112 755 q 117 710 117 725 l 117 283 l 462 283 l 462 708 q 465 741 462 726 q 487 755 467 755 q 508 741 505 755 q 511 708 511 726 l 511 283 l 659 283 q 695 281 682 283 q 708 258 708 278 q 692 239 708 243 q 652 235 675 235 q 631 236 642 235 q 609 236 620 236 l 511 236 l 511 47 q 508 15 511 30 q 487 0 505 0 z "},"5":{"ha":589,"x_min":58,"x_max":545,"o":"m 298 -27 q 189 -17 244 -27 q 95 8 133 -7 q 58 39 58 23 q 82 57 58 57 q 119 49 96 57 q 162 37 142 41 q 226 25 191 30 q 298 20 261 20 q 452 76 410 20 q 495 222 495 132 q 453 331 495 297 q 298 364 410 364 l 128 364 q 91 368 109 364 q 72 401 72 372 q 73 412 72 408 l 100 694 q 107 726 101 711 q 149 742 113 742 l 446 742 q 467 735 460 742 q 473 718 473 728 q 467 702 473 709 q 446 695 460 695 l 149 695 l 122 412 l 298 412 q 477 370 410 412 q 545 220 545 328 q 514 74 545 127 q 428 -4 484 20 q 298 -27 372 -27 z "},"6":{"ha":694,"x_min":63,"x_max":643,"o":"m 347 -14 q 180 23 243 -14 q 91 146 118 60 q 63 378 63 232 q 88 606 63 519 q 180 730 113 692 q 370 769 246 769 q 479 759 423 769 q 572 734 534 749 q 610 703 610 720 q 585 685 610 685 q 549 693 572 685 q 505 705 526 701 q 441 717 477 712 q 370 722 406 722 q 261 712 309 722 q 182 669 214 702 q 132 571 149 637 q 115 393 115 505 q 188 415 138 404 q 338 425 237 425 q 507 407 439 425 q 609 340 574 389 q 643 202 643 292 q 615 98 643 147 q 522 17 587 48 q 347 -14 457 -14 m 350 33 q 498 58 446 33 q 571 123 550 83 q 591 208 591 163 q 564 320 591 284 q 480 367 536 357 q 338 378 424 378 q 201 371 254 378 q 115 357 149 365 q 138 163 115 233 q 212 63 160 92 q 350 33 263 33 z "},"7":{"ha":479,"x_min":24,"x_max":463,"o":"m 142 16 q 119 41 119 16 q 122 56 119 50 l 406 708 l 50 708 q 24 732 24 708 q 31 748 24 741 q 50 755 37 755 l 427 755 q 455 745 448 755 q 463 721 463 734 q 458 694 463 707 l 170 39 q 142 16 159 16 z "},"8":{"ha":699,"x_min":59,"x_max":640,"o":"m 349 -14 q 178 15 242 -14 q 87 95 115 45 q 59 208 59 146 q 101 340 59 289 q 248 410 144 392 q 143 447 180 419 q 92 510 106 475 q 77 576 77 546 q 100 668 77 624 q 182 741 123 712 q 349 770 241 770 q 516 741 458 770 q 598 668 575 712 q 621 576 621 624 q 607 510 621 546 q 556 447 593 475 q 450 410 519 419 q 597 340 555 392 q 640 208 640 289 q 612 95 640 146 q 520 15 584 45 q 349 -14 456 -14 m 349 432 q 485 453 436 432 q 553 508 534 474 q 573 577 573 541 q 555 646 573 612 q 488 703 536 680 q 349 725 440 725 q 211 703 259 725 q 144 646 162 680 q 125 577 125 612 q 145 508 125 541 q 214 453 165 474 q 349 432 262 432 m 349 31 q 496 54 443 31 q 572 118 550 77 q 595 212 595 159 q 574 297 595 258 q 499 360 553 336 q 349 385 446 385 q 199 360 253 385 q 125 297 146 336 q 104 212 104 258 q 126 118 104 159 q 202 54 149 77 q 349 31 256 31 z "},"9":{"ha":694,"x_min":50,"x_max":630,"o":"m 323 -14 q 214 -4 270 -14 q 121 21 159 6 q 83 53 83 37 q 108 71 83 71 q 144 63 121 71 q 188 50 168 55 q 252 38 216 43 q 323 33 287 33 q 432 43 385 33 q 511 86 479 54 q 561 185 544 119 q 578 363 578 251 q 505 341 555 352 q 355 330 456 330 q 186 349 254 330 q 84 415 119 367 q 50 553 50 464 q 78 658 50 609 q 171 738 106 707 q 346 769 236 769 q 513 732 451 769 q 603 609 575 695 q 630 378 630 524 q 605 150 630 236 q 513 25 580 64 q 323 -14 447 -14 m 355 378 q 492 384 439 378 q 578 399 545 391 q 555 593 578 522 q 481 693 533 663 q 343 722 430 722 q 196 697 248 722 q 122 632 143 672 q 102 548 102 592 q 130 435 102 471 q 214 388 157 399 q 355 378 270 378 z "},"A":{"ha":915,"x_min":39,"x_max":874,"o":"m 62 -7 q 41 11 43 -7 q 48 46 39 29 l 422 721 q 439 748 433 741 q 457 755 445 755 q 474 748 467 755 q 492 721 481 741 l 867 45 q 874 19 874 33 q 851 -7 874 -7 q 833 0 842 -7 q 814 23 823 6 l 699 232 l 216 232 l 99 20 q 62 -7 85 -7 m 235 272 l 679 272 l 457 677 l 235 272 z "},"Á":{"ha":915,"x_min":39,"x_max":874,"o":"m 62 -7 q 41 11 43 -7 q 48 46 39 29 l 422 721 q 439 748 433 741 q 457 755 445 755 q 474 748 467 755 q 492 721 481 741 l 867 45 q 874 19 874 33 q 851 -7 874 -7 q 833 0 842 -7 q 814 23 823 6 l 699 232 l 216 232 l 99 20 q 62 -7 85 -7 m 235 272 l 679 272 l 457 677 l 235 272 m 405 851 q 387 869 387 851 q 392 881 387 876 l 563 1068 q 580 1076 570 1076 q 606 1063 595 1076 q 616 1036 616 1051 q 606 1017 616 1025 l 415 854 q 405 851 410 851 z "},"Ă":{"ha":915,"x_min":39,"x_max":874,"o":"m 62 -7 q 41 11 43 -7 q 48 46 39 29 l 422 721 q 439 748 433 741 q 457 755 445 755 q 474 748 467 755 q 492 721 481 741 l 867 45 q 874 19 874 33 q 851 -7 874 -7 q 833 0 842 -7 q 814 23 823 6 l 699 232 l 216 232 l 99 20 q 62 -7 85 -7 m 235 272 l 679 272 l 457 677 l 235 272 m 458 852 q 380 871 410 852 q 338 920 351 891 q 326 975 326 948 q 330 997 326 987 q 351 1006 334 1006 q 369 997 365 1006 q 373 975 373 988 q 391 917 373 944 q 458 890 409 890 q 525 917 507 890 q 543 975 543 944 q 547 997 543 988 q 565 1006 551 1006 q 586 997 581 1006 q 590 975 590 987 q 577 920 590 948 q 535 871 564 891 q 458 852 507 852 z "},"Â":{"ha":915,"x_min":39,"x_max":874,"o":"m 62 -7 q 41 11 43 -7 q 48 46 39 29 l 422 721 q 439 748 433 741 q 457 755 445 755 q 474 748 467 755 q 492 721 481 741 l 867 45 q 874 19 874 33 q 851 -7 874 -7 q 833 0 842 -7 q 814 23 823 6 l 699 232 l 216 232 l 99 20 q 62 -7 85 -7 m 235 272 l 679 272 l 457 677 l 235 272 m 349 852 q 330 860 337 852 q 330 880 322 868 l 422 1032 q 458 1058 438 1058 q 494 1032 477 1058 l 585 880 q 585 860 593 868 q 566 852 578 852 q 530 880 544 852 l 458 1021 l 385 880 q 349 852 370 852 z "},"Ȁ":{"ha":915,"x_min":39,"x_max":874,"o":"m 62 -7 q 41 11 43 -7 q 48 46 39 29 l 422 721 q 439 748 433 741 q 457 755 445 755 q 474 748 467 755 q 492 721 481 741 l 867 45 q 874 19 874 33 q 851 -7 874 -7 q 833 0 842 -7 q 814 23 823 6 l 699 232 l 216 232 l 99 20 q 62 -7 85 -7 m 235 272 l 679 272 l 457 677 l 235 272 m 547 852 q 536 855 541 852 l 345 1018 q 335 1037 335 1026 q 344 1059 335 1049 q 365 1069 353 1069 q 382 1062 374 1069 l 559 882 q 565 869 565 876 q 547 852 565 852 m 392 852 q 382 855 387 852 l 191 1018 q 180 1037 180 1026 q 189 1059 180 1049 q 210 1069 198 1069 q 227 1062 220 1069 l 405 882 q 410 869 410 876 q 392 852 410 852 z "},"Ä":{"ha":915,"x_min":39,"x_max":874,"o":"m 62 -7 q 41 11 43 -7 q 48 46 39 29 l 422 721 q 439 748 433 741 q 457 755 445 755 q 474 748 467 755 q 492 721 481 741 l 867 45 q 874 19 874 33 q 851 -7 874 -7 q 833 0 842 -7 q 814 23 823 6 l 699 232 l 216 232 l 99 20 q 62 -7 85 -7 m 235 272 l 679 272 l 457 677 l 235 272 m 592 873 q 564 884 574 873 q 553 911 553 895 q 564 940 553 929 q 592 951 574 951 q 621 940 609 951 q 633 911 633 929 q 621 884 633 895 q 592 873 609 873 m 321 873 q 293 884 304 873 q 282 911 282 895 q 293 940 282 929 q 321 951 304 951 q 350 940 338 951 q 362 911 362 929 q 350 884 362 895 q 321 873 338 873 z "},"À":{"ha":915,"x_min":39,"x_max":874,"o":"m 62 -7 q 41 11 43 -7 q 48 46 39 29 l 422 721 q 439 748 433 741 q 457 755 445 755 q 474 748 467 755 q 492 721 481 741 l 867 45 q 874 19 874 33 q 851 -7 874 -7 q 833 0 842 -7 q 814 23 823 6 l 699 232 l 216 232 l 99 20 q 62 -7 85 -7 m 235 272 l 679 272 l 457 677 l 235 272 m 511 852 q 500 856 505 852 l 309 1019 q 299 1038 299 1027 q 310 1065 299 1053 q 336 1077 321 1077 q 353 1069 345 1077 l 524 882 q 529 870 529 877 q 511 852 529 852 z "},"Ȃ":{"ha":915,"x_min":39,"x_max":874,"o":"m 62 -7 q 41 11 43 -7 q 48 46 39 29 l 422 721 q 439 748 433 741 q 457 755 445 755 q 474 748 467 755 q 492 721 481 741 l 867 45 q 874 19 874 33 q 851 -7 874 -7 q 833 0 842 -7 q 814 23 823 6 l 699 232 l 216 232 l 99 20 q 62 -7 85 -7 m 235 272 l 679 272 l 457 677 l 235 272 m 351 852 q 332 862 336 852 q 328 883 328 872 q 340 939 328 910 q 381 987 352 967 q 458 1006 410 1006 q 535 987 507 1006 q 576 939 564 967 q 588 883 588 910 q 584 862 588 872 q 565 852 580 852 q 548 861 552 852 q 545 883 545 870 q 526 943 545 914 q 458 971 507 971 q 390 943 409 971 q 371 883 371 914 q 367 861 371 870 q 351 852 363 852 z "},"Ā":{"ha":915,"x_min":39,"x_max":874,"o":"m 62 -7 q 41 11 43 -7 q 48 46 39 29 l 422 721 q 439 748 433 741 q 457 755 445 755 q 474 748 467 755 q 492 721 481 741 l 867 45 q 874 19 874 33 q 851 -7 874 -7 q 833 0 842 -7 q 814 23 823 6 l 699 232 l 216 232 l 99 20 q 62 -7 85 -7 m 235 272 l 679 272 l 457 677 l 235 272 m 342 863 q 325 871 330 863 q 320 884 320 879 q 325 899 320 890 q 342 907 330 907 l 574 907 q 591 899 586 907 q 595 884 595 890 q 591 871 595 879 q 574 863 586 863 l 342 863 z "},"Ą":{"ha":915,"x_min":39,"x_max":892,"o":"m 62 -7 q 41 11 43 -7 q 48 46 39 29 l 422 721 q 439 748 433 741 q 457 755 445 755 q 474 748 467 755 q 492 721 481 741 l 867 45 q 874 19 874 33 q 851 -7 874 -7 q 833 0 842 -7 q 814 23 823 6 l 699 232 l 216 232 l 99 20 q 62 -7 85 -7 m 235 272 l 679 272 l 457 677 l 235 272 m 806 -189 q 763 -174 783 -189 q 742 -123 742 -159 q 767 -59 742 -91 q 829 4 791 -27 l 850 4 q 814 -52 826 -24 q 802 -102 802 -81 q 814 -141 802 -130 q 837 -151 826 -151 q 863 -144 850 -151 q 885 -131 876 -136 l 892 -137 q 856 -175 880 -161 q 806 -189 832 -189 z "},"Å":{"ha":915,"x_min":39,"x_max":874,"o":"m 62 -7 q 41 11 43 -7 q 48 46 39 29 l 422 721 q 439 748 433 741 q 457 755 445 755 q 474 748 467 755 q 492 721 481 741 l 867 45 q 874 19 874 33 q 851 -7 874 -7 q 833 0 842 -7 q 814 23 823 6 l 699 232 l 216 232 l 99 20 q 62 -7 85 -7 m 235 272 l 679 272 l 457 677 l 235 272 m 458 852 q 402 874 426 852 q 378 928 378 896 q 401 983 378 961 q 458 1005 424 1005 q 514 983 490 1005 q 537 928 537 961 q 514 874 537 896 q 458 852 490 852 m 458 886 q 488 899 475 886 q 500 928 500 911 q 488 958 500 947 q 458 970 475 970 q 429 958 441 970 q 416 928 416 947 q 429 899 416 911 q 458 886 441 886 z "},"Ã":{"ha":915,"x_min":39,"x_max":874,"o":"m 62 -7 q 41 11 43 -7 q 48 46 39 29 l 422 721 q 439 748 433 741 q 457 755 445 755 q 474 748 467 755 q 492 721 481 741 l 867 45 q 874 19 874 33 q 851 -7 874 -7 q 833 0 842 -7 q 814 23 823 6 l 699 232 l 216 232 l 99 20 q 62 -7 85 -7 m 235 272 l 679 272 l 457 677 l 235 272 m 324 852 q 305 862 309 852 q 301 883 301 872 q 316 932 301 912 q 368 951 331 951 q 435 937 406 951 q 492 906 465 922 q 547 891 519 891 q 564 897 557 891 q 571 921 571 902 q 575 942 571 933 q 591 951 579 951 q 610 942 606 951 q 614 920 614 932 q 599 871 614 891 q 547 852 584 852 q 486 867 522 852 q 418 897 451 882 q 368 912 386 912 q 351 907 358 912 q 344 882 344 901 q 340 861 344 870 q 324 852 336 852 z "},"Æ":{"ha":981,"x_min":6,"x_max":917,"o":"m 28 -7 q 10 1 14 -7 q 6 14 6 8 q 11 31 6 22 q 20 48 15 39 l 392 722 q 406 745 399 735 q 420 755 412 754 l 865 755 q 900 753 885 755 q 916 732 916 751 q 900 713 916 715 q 865 711 885 711 l 483 711 l 483 410 l 853 410 q 885 407 873 410 q 897 388 897 404 q 884 368 897 372 q 853 363 871 363 l 483 363 l 483 45 l 867 45 q 902 43 886 45 q 917 24 917 41 q 902 2 917 4 q 867 0 886 0 l 452 0 q 429 3 432 0 q 425 24 425 6 l 425 229 l 180 229 l 71 29 q 49 0 60 7 q 28 -7 39 -7 m 197 269 l 425 269 l 425 688 l 197 269 z "},"B":{"ha":955,"x_min":109,"x_max":867,"o":"m 132 0 q 109 24 109 0 l 109 730 q 135 755 109 755 l 446 755 q 587 751 519 755 q 710 730 656 747 q 795 675 764 713 q 827 567 827 636 q 806 479 827 512 q 756 430 786 446 q 697 408 726 413 q 650 403 668 403 q 755 380 705 397 q 836 325 804 363 q 867 221 867 288 q 821 82 867 130 q 697 17 775 34 q 522 0 619 0 l 132 0 m 166 420 l 487 420 q 647 431 585 420 q 739 474 709 443 q 769 567 769 506 q 746 645 769 613 q 660 694 724 677 q 471 711 595 711 l 166 711 l 166 420 m 166 45 l 548 45 q 692 59 640 45 q 770 99 745 74 q 802 156 795 124 q 809 221 809 187 q 722 349 809 315 q 487 382 635 382 l 166 382 l 166 45 z "},"C":{"ha":1010,"x_min":83,"x_max":952,"o":"m 592 -14 q 212 76 340 -14 q 83 378 83 167 q 212 679 83 589 q 592 770 340 770 q 763 754 680 770 q 931 703 846 738 q 951 677 951 694 q 930 656 951 656 q 917 660 925 656 q 755 709 839 692 q 592 725 671 725 q 246 643 351 725 q 141 378 141 560 q 246 113 141 195 q 592 31 351 31 q 755 47 671 31 q 917 96 839 63 q 929 98 925 98 q 952 78 952 98 q 931 53 952 62 q 763 2 846 18 q 592 -14 680 -14 z "},"Ć":{"ha":1010,"x_min":83,"x_max":952,"o":"m 592 -14 q 212 76 340 -14 q 83 378 83 167 q 212 679 83 589 q 592 770 340 770 q 763 754 680 770 q 931 703 846 738 q 951 677 951 694 q 930 656 951 656 q 917 660 925 656 q 755 709 839 692 q 592 725 671 725 q 246 643 351 725 q 141 378 141 560 q 246 113 141 195 q 592 31 351 31 q 755 47 671 31 q 917 96 839 63 q 929 98 925 98 q 952 78 952 98 q 931 53 952 62 q 763 2 846 18 q 592 -14 680 -14 m 503 851 q 485 869 485 851 q 490 881 485 876 l 661 1068 q 678 1076 669 1076 q 704 1063 693 1076 q 715 1036 715 1051 q 705 1017 715 1025 l 513 854 q 503 851 509 851 z "},"Č":{"ha":1010,"x_min":83,"x_max":952,"o":"m 592 -14 q 212 76 340 -14 q 83 378 83 167 q 212 679 83 589 q 592 770 340 770 q 763 754 680 770 q 931 703 846 738 q 951 677 951 694 q 930 656 951 656 q 917 660 925 656 q 755 709 839 692 q 592 725 671 725 q 246 643 351 725 q 141 378 141 560 q 246 113 141 195 q 592 31 351 31 q 755 47 671 31 q 917 96 839 63 q 929 98 925 98 q 952 78 952 98 q 931 53 952 62 q 763 2 846 18 q 592 -14 680 -14 m 556 852 q 520 878 536 852 l 428 1029 q 428 1050 420 1042 q 447 1058 435 1058 q 484 1030 469 1058 l 556 889 l 628 1030 q 665 1058 642 1058 q 684 1050 676 1058 q 684 1029 691 1042 l 592 878 q 556 852 575 852 z "},"Ç":{"ha":1010,"x_min":83,"x_max":952,"o":"m 592 -14 q 212 76 340 -14 q 83 378 83 167 q 212 679 83 589 q 592 770 340 770 q 763 754 680 770 q 931 703 846 738 q 951 677 951 694 q 930 656 951 656 q 917 660 925 656 q 755 709 839 692 q 592 725 671 725 q 246 643 351 725 q 141 378 141 560 q 246 113 141 195 q 592 31 351 31 q 755 47 671 31 q 917 96 839 63 q 929 98 925 98 q 952 78 952 98 q 931 53 952 62 q 763 2 846 18 q 592 -14 680 -14 m 463 -220 q 444 -213 452 -220 q 437 -196 437 -205 q 444 -178 437 -188 l 572 7 q 590 20 581 20 q 602 5 602 20 q 600 -5 602 -1 l 493 -196 q 478 -215 485 -210 q 463 -220 471 -220 z "},"Ĉ":{"ha":1010,"x_min":83,"x_max":952,"o":"m 592 -14 q 212 76 340 -14 q 83 378 83 167 q 212 679 83 589 q 592 770 340 770 q 763 754 680 770 q 931 703 846 738 q 951 677 951 694 q 930 656 951 656 q 917 660 925 656 q 755 709 839 692 q 592 725 671 725 q 246 643 351 725 q 141 378 141 560 q 246 113 141 195 q 592 31 351 31 q 755 47 671 31 q 917 96 839 63 q 929 98 925 98 q 952 78 952 98 q 931 53 952 62 q 763 2 846 18 q 592 -14 680 -14 m 447 852 q 428 860 435 852 q 428 880 420 868 l 520 1032 q 556 1058 536 1058 q 592 1032 576 1058 l 684 880 q 684 860 691 868 q 665 852 676 852 q 628 880 642 852 l 556 1021 l 484 880 q 447 852 469 852 z "},"Ċ":{"ha":1010,"x_min":83,"x_max":952,"o":"m 592 -14 q 212 76 340 -14 q 83 378 83 167 q 212 679 83 589 q 592 770 340 770 q 763 754 680 770 q 931 703 846 738 q 951 677 951 694 q 930 656 951 656 q 917 660 925 656 q 755 709 839 692 q 592 725 671 725 q 246 643 351 725 q 141 378 141 560 q 246 113 141 195 q 592 31 351 31 q 755 47 671 31 q 917 96 839 63 q 929 98 925 98 q 952 78 952 98 q 931 53 952 62 q 763 2 846 18 q 592 -14 680 -14 m 555 873 q 527 884 538 873 q 516 911 516 895 q 527 940 516 929 q 555 951 538 951 q 584 940 572 951 q 596 911 596 929 q 584 884 596 895 q 555 873 572 873 z "},"D":{"ha":1133,"x_min":109,"x_max":1049,"o":"m 135 0 q 112 3 115 0 q 109 24 109 6 l 109 730 q 112 753 109 750 q 136 755 115 755 l 602 755 q 849 720 749 755 q 999 603 948 685 q 1049 379 1049 520 q 999 152 1049 235 q 849 35 948 69 q 602 0 749 0 l 135 0 m 166 45 l 602 45 q 834 79 749 45 q 955 187 919 113 q 991 379 991 261 q 955 569 991 496 q 834 676 919 642 q 602 711 749 711 l 166 711 l 166 45 z "},"Ǳ":{"ha":2013,"x_min":109,"x_max":1982,"o":"m 135 0 q 112 3 115 0 q 109 24 109 6 l 109 730 q 112 753 109 750 q 136 755 115 755 l 602 755 q 849 720 749 755 q 999 603 948 685 q 1049 379 1049 520 q 999 152 1049 235 q 849 35 948 69 q 602 0 749 0 l 135 0 m 166 45 l 602 45 q 834 79 749 45 q 955 187 919 113 q 991 379 991 261 q 955 569 991 496 q 834 676 919 642 q 602 711 749 711 l 166 711 l 166 45 m 1189 0 q 1152 3 1164 0 q 1139 24 1139 6 q 1145 43 1139 35 q 1161 60 1150 50 l 1896 711 l 1189 711 q 1166 718 1173 711 q 1158 733 1158 724 q 1166 748 1158 741 q 1189 755 1173 755 l 1927 755 q 1966 752 1950 755 q 1982 732 1982 749 q 1975 713 1982 722 q 1960 696 1967 704 l 1224 45 l 1929 45 q 1953 38 1945 45 q 1961 22 1961 31 q 1953 7 1961 14 q 1929 0 1945 0 l 1189 0 z "},"Ǆ":{"ha":2013,"x_min":109,"x_max":1982,"o":"m 135 0 q 112 3 115 0 q 109 24 109 6 l 109 730 q 112 753 109 750 q 136 755 115 755 l 602 755 q 849 720 749 755 q 999 603 948 685 q 1049 379 1049 520 q 999 152 1049 235 q 849 35 948 69 q 602 0 749 0 l 135 0 m 166 45 l 602 45 q 834 79 749 45 q 955 187 919 113 q 991 379 991 261 q 955 569 991 496 q 834 676 919 642 q 602 711 749 711 l 166 711 l 166 45 m 1189 0 q 1152 3 1164 0 q 1139 24 1139 6 q 1145 43 1139 35 q 1161 60 1150 50 l 1896 711 l 1189 711 q 1166 718 1173 711 q 1158 733 1158 724 q 1166 748 1158 741 q 1189 755 1173 755 l 1927 755 q 1966 752 1950 755 q 1982 732 1982 749 q 1975 713 1982 722 q 1960 696 1967 704 l 1224 45 l 1929 45 q 1953 38 1945 45 q 1961 22 1961 31 q 1953 7 1961 14 q 1929 0 1945 0 l 1189 0 m 1560 852 q 1525 878 1541 852 l 1432 1029 q 1432 1050 1425 1042 q 1451 1058 1440 1058 q 1488 1030 1473 1058 l 1560 889 l 1632 1030 q 1669 1058 1647 1058 q 1688 1050 1681 1058 q 1688 1029 1695 1042 l 1596 878 q 1560 852 1579 852 z "},"Ď":{"ha":1133,"x_min":109,"x_max":1049,"o":"m 135 0 q 112 3 115 0 q 109 24 109 6 l 109 730 q 112 753 109 750 q 136 755 115 755 l 602 755 q 849 720 749 755 q 999 603 948 685 q 1049 379 1049 520 q 999 152 1049 235 q 849 35 948 69 q 602 0 749 0 l 135 0 m 166 45 l 602 45 q 834 79 749 45 q 955 187 919 113 q 991 379 991 261 q 955 569 991 496 q 834 676 919 642 q 602 711 749 711 l 166 711 l 166 45 m 566 852 q 530 878 547 852 l 438 1029 q 438 1050 431 1042 q 457 1058 446 1058 q 494 1030 479 1058 l 566 889 l 638 1030 q 675 1058 652 1058 q 694 1050 686 1058 q 694 1029 701 1042 l 602 878 q 566 852 585 852 z "},"Đ":{"ha":1119,"x_min":16,"x_max":1036,"o":"m 121 0 q 98 3 102 0 q 95 24 95 6 l 95 366 l 34 366 q 20 374 24 366 q 16 391 16 382 q 20 408 16 399 q 34 416 24 416 l 95 416 l 95 730 q 99 752 95 748 q 123 755 104 755 l 588 755 q 835 720 736 755 q 985 603 935 685 q 1036 379 1036 520 q 985 152 1036 235 q 835 35 935 69 q 588 0 736 0 l 121 0 m 153 45 l 588 45 q 820 79 735 45 q 942 187 905 113 q 978 379 978 261 q 942 569 978 496 q 820 676 905 642 q 588 711 735 711 l 153 711 l 153 416 l 345 416 q 359 408 355 416 q 363 391 363 399 q 359 374 363 382 q 345 366 355 366 l 153 366 l 153 45 z "},"ǲ":{"ha":1825,"x_min":109,"x_max":1761,"o":"m 135 0 q 112 3 115 0 q 109 24 109 6 l 109 730 q 112 753 109 750 q 136 755 115 755 l 602 755 q 849 720 749 755 q 999 603 948 685 q 1049 379 1049 520 q 999 152 1049 235 q 849 35 948 69 q 602 0 749 0 l 135 0 m 166 45 l 602 45 q 834 79 749 45 q 955 187 919 113 q 991 379 991 261 q 955 569 991 496 q 834 676 919 642 q 602 711 749 711 l 166 711 l 166 45 m 1227 0 q 1207 7 1216 0 q 1199 27 1199 14 q 1217 60 1199 45 l 1688 481 l 1242 481 q 1208 483 1223 481 q 1193 498 1193 484 q 1207 518 1193 516 q 1241 519 1221 519 l 1718 519 q 1745 511 1737 519 q 1752 494 1752 503 q 1736 463 1752 477 l 1261 39 l 1712 39 q 1746 37 1731 39 q 1761 18 1761 35 q 1746 2 1761 3 q 1713 0 1731 0 l 1227 0 z "},"ǅ":{"ha":1825,"x_min":109,"x_max":1761,"o":"m 135 0 q 112 3 115 0 q 109 24 109 6 l 109 730 q 112 753 109 750 q 136 755 115 755 l 602 755 q 849 720 749 755 q 999 603 948 685 q 1049 379 1049 520 q 999 152 1049 235 q 849 35 948 69 q 602 0 749 0 l 135 0 m 166 45 l 602 45 q 834 79 749 45 q 955 187 919 113 q 991 379 991 261 q 955 569 991 496 q 834 676 919 642 q 602 711 749 711 l 166 711 l 166 45 m 1227 0 q 1207 7 1216 0 q 1199 27 1199 14 q 1217 60 1199 45 l 1688 481 l 1242 481 q 1208 483 1223 481 q 1193 498 1193 484 q 1207 518 1193 516 q 1241 519 1221 519 l 1718 519 q 1745 511 1737 519 q 1752 494 1752 503 q 1736 463 1752 477 l 1261 39 l 1712 39 q 1746 37 1731 39 q 1761 18 1761 35 q 1746 2 1761 3 q 1713 0 1731 0 l 1227 0 m 1475 616 q 1439 642 1455 616 l 1347 793 q 1347 814 1339 806 q 1366 822 1354 822 q 1402 794 1388 822 l 1475 653 l 1547 794 q 1584 822 1561 822 q 1603 814 1595 822 q 1603 793 1610 806 l 1511 642 q 1475 616 1494 616 z "},"Ð":{"ha":1119,"x_min":16,"x_max":1036,"o":"m 121 0 q 98 3 102 0 q 95 24 95 6 l 95 366 l 34 366 q 20 374 24 366 q 16 391 16 382 q 20 408 16 399 q 34 416 24 416 l 95 416 l 95 730 q 99 752 95 748 q 123 755 104 755 l 588 755 q 835 720 736 755 q 985 603 935 685 q 1036 379 1036 520 q 985 152 1036 235 q 835 35 935 69 q 588 0 736 0 l 121 0 m 153 45 l 588 45 q 820 79 735 45 q 942 187 905 113 q 978 379 978 261 q 942 569 978 496 q 820 676 905 642 q 588 711 735 711 l 153 711 l 153 416 l 345 416 q 359 408 355 416 q 363 391 363 399 q 359 374 363 382 q 345 366 355 366 l 153 366 l 153 45 z "},"E":{"ha":883,"x_min":109,"x_max":805,"o":"m 127 0 q 112 4 114 0 q 109 24 109 8 l 109 724 q 112 749 109 743 q 134 755 115 755 l 753 755 q 788 753 773 755 q 804 732 804 751 q 788 713 804 715 q 753 711 773 711 l 167 711 l 167 414 l 750 414 q 775 410 765 414 q 785 392 785 406 q 777 372 785 377 q 755 368 768 368 l 167 368 l 167 45 l 755 45 q 790 43 774 45 q 805 24 805 41 q 792 2 805 4 q 760 0 780 1 l 127 0 z "},"É":{"ha":883,"x_min":109,"x_max":805,"o":"m 127 0 q 112 4 114 0 q 109 24 109 8 l 109 724 q 112 749 109 743 q 134 755 115 755 l 753 755 q 788 753 773 755 q 804 732 804 751 q 788 713 804 715 q 753 711 773 711 l 167 711 l 167 414 l 750 414 q 775 410 765 414 q 785 392 785 406 q 777 372 785 377 q 755 368 768 368 l 167 368 l 167 45 l 755 45 q 790 43 774 45 q 805 24 805 41 q 792 2 805 4 q 760 0 780 1 l 127 0 m 389 851 q 370 869 370 851 q 376 881 370 876 l 547 1068 q 564 1076 554 1076 q 589 1063 578 1076 q 600 1036 600 1051 q 590 1017 600 1025 l 399 854 q 389 851 394 851 z "},"Ě":{"ha":883,"x_min":109,"x_max":805,"o":"m 127 0 q 112 4 114 0 q 109 24 109 8 l 109 724 q 112 749 109 743 q 134 755 115 755 l 753 755 q 788 753 773 755 q 804 732 804 751 q 788 713 804 715 q 753 711 773 711 l 167 711 l 167 414 l 750 414 q 775 410 765 414 q 785 392 785 406 q 777 372 785 377 q 755 368 768 368 l 167 368 l 167 45 l 755 45 q 790 43 774 45 q 805 24 805 41 q 792 2 805 4 q 760 0 780 1 l 127 0 m 441 852 q 406 878 422 852 l 313 1029 q 313 1050 306 1042 q 332 1058 321 1058 q 369 1030 354 1058 l 441 889 l 513 1030 q 550 1058 528 1058 q 569 1050 562 1058 q 569 1029 576 1042 l 477 878 q 441 852 460 852 z "},"Ê":{"ha":883,"x_min":109,"x_max":805,"o":"m 127 0 q 112 4 114 0 q 109 24 109 8 l 109 724 q 112 749 109 743 q 134 755 115 755 l 753 755 q 788 753 773 755 q 804 732 804 751 q 788 713 804 715 q 753 711 773 711 l 167 711 l 167 414 l 750 414 q 775 410 765 414 q 785 392 785 406 q 777 372 785 377 q 755 368 768 368 l 167 368 l 167 45 l 755 45 q 790 43 774 45 q 805 24 805 41 q 792 2 805 4 q 760 0 780 1 l 127 0 m 332 852 q 313 860 321 852 q 313 880 306 868 l 406 1032 q 441 1058 422 1058 q 477 1032 461 1058 l 569 880 q 569 860 576 868 q 550 852 562 852 q 513 880 528 852 l 441 1021 l 369 880 q 332 852 354 852 z "},"Ȅ":{"ha":883,"x_min":109,"x_max":805,"o":"m 127 0 q 112 4 114 0 q 109 24 109 8 l 109 724 q 112 749 109 743 q 134 755 115 755 l 753 755 q 788 753 773 755 q 804 732 804 751 q 788 713 804 715 q 753 711 773 711 l 167 711 l 167 414 l 750 414 q 775 410 765 414 q 785 392 785 406 q 777 372 785 377 q 755 368 768 368 l 167 368 l 167 45 l 755 45 q 790 43 774 45 q 805 24 805 41 q 792 2 805 4 q 760 0 780 1 l 127 0 m 530 852 q 520 855 525 852 l 329 1018 q 319 1037 319 1026 q 328 1059 319 1049 q 349 1069 336 1069 q 366 1062 358 1069 l 543 882 q 549 869 549 876 q 530 852 549 852 m 376 852 q 366 855 370 852 l 174 1018 q 164 1037 164 1026 q 173 1059 164 1049 q 194 1069 182 1069 q 211 1062 203 1069 l 389 882 q 394 869 394 876 q 376 852 394 852 z "},"Ë":{"ha":883,"x_min":109,"x_max":805,"o":"m 127 0 q 112 4 114 0 q 109 24 109 8 l 109 724 q 112 749 109 743 q 134 755 115 755 l 753 755 q 788 753 773 755 q 804 732 804 751 q 788 713 804 715 q 753 711 773 711 l 167 711 l 167 414 l 750 414 q 775 410 765 414 q 785 392 785 406 q 777 372 785 377 q 755 368 768 368 l 167 368 l 167 45 l 755 45 q 790 43 774 45 q 805 24 805 41 q 792 2 805 4 q 760 0 780 1 l 127 0 m 576 873 q 547 884 558 873 q 536 911 536 895 q 547 940 536 929 q 576 951 558 951 q 605 940 593 951 q 616 911 616 929 q 605 884 616 895 q 576 873 593 873 m 305 873 q 277 884 288 873 q 266 911 266 895 q 277 940 266 929 q 305 951 288 951 q 334 940 322 951 q 346 911 346 929 q 334 884 346 895 q 305 873 322 873 z "},"Ė":{"ha":883,"x_min":109,"x_max":805,"o":"m 127 0 q 112 4 114 0 q 109 24 109 8 l 109 724 q 112 749 109 743 q 134 755 115 755 l 753 755 q 788 753 773 755 q 804 732 804 751 q 788 713 804 715 q 753 711 773 711 l 167 711 l 167 414 l 750 414 q 775 410 765 414 q 785 392 785 406 q 777 372 785 377 q 755 368 768 368 l 167 368 l 167 45 l 755 45 q 790 43 774 45 q 805 24 805 41 q 792 2 805 4 q 760 0 780 1 l 127 0 m 441 873 q 412 884 423 873 q 401 911 401 895 q 412 940 401 929 q 441 951 423 951 q 470 940 458 951 q 481 911 481 929 q 470 884 481 895 q 441 873 458 873 z "},"È":{"ha":883,"x_min":109,"x_max":805,"o":"m 127 0 q 112 4 114 0 q 109 24 109 8 l 109 724 q 112 749 109 743 q 134 755 115 755 l 753 755 q 788 753 773 755 q 804 732 804 751 q 788 713 804 715 q 753 711 773 711 l 167 711 l 167 414 l 750 414 q 775 410 765 414 q 785 392 785 406 q 777 372 785 377 q 755 368 768 368 l 167 368 l 167 45 l 755 45 q 790 43 774 45 q 805 24 805 41 q 792 2 805 4 q 760 0 780 1 l 127 0 m 494 852 q 484 856 489 852 l 293 1019 q 283 1038 283 1027 q 294 1065 283 1053 q 319 1077 304 1077 q 336 1069 329 1077 l 507 882 q 513 870 513 877 q 494 852 513 852 z "},"Ȇ":{"ha":883,"x_min":109,"x_max":805,"o":"m 127 0 q 112 4 114 0 q 109 24 109 8 l 109 724 q 112 749 109 743 q 134 755 115 755 l 753 755 q 788 753 773 755 q 804 732 804 751 q 788 713 804 715 q 753 711 773 711 l 167 711 l 167 414 l 750 414 q 775 410 765 414 q 785 392 785 406 q 777 372 785 377 q 755 368 768 368 l 167 368 l 167 45 l 755 45 q 790 43 774 45 q 805 24 805 41 q 792 2 805 4 q 760 0 780 1 l 127 0 m 334 852 q 315 862 319 852 q 311 883 311 872 q 323 939 311 910 q 365 987 336 967 q 441 1006 393 1006 q 519 987 490 1006 q 559 939 547 967 q 572 883 572 910 q 568 862 572 872 q 549 852 564 852 q 532 861 536 852 q 528 883 528 870 q 509 943 528 914 q 441 971 490 971 q 374 943 393 971 q 355 883 355 914 q 351 861 355 870 q 334 852 347 852 z "},"Ē":{"ha":883,"x_min":109,"x_max":805,"o":"m 127 0 q 112 4 114 0 q 109 24 109 8 l 109 724 q 112 749 109 743 q 134 755 115 755 l 753 755 q 788 753 773 755 q 804 732 804 751 q 788 713 804 715 q 753 711 773 711 l 167 711 l 167 414 l 750 414 q 775 410 765 414 q 785 392 785 406 q 777 372 785 377 q 755 368 768 368 l 167 368 l 167 45 l 755 45 q 790 43 774 45 q 805 24 805 41 q 792 2 805 4 q 760 0 780 1 l 127 0 m 326 863 q 309 871 313 863 q 304 884 304 879 q 309 899 304 890 q 326 907 313 907 l 557 907 q 574 899 570 907 q 579 884 579 890 q 574 871 579 879 q 557 863 570 863 l 326 863 z "},"Ę":{"ha":883,"x_min":109,"x_max":838,"o":"m 127 0 q 112 4 114 0 q 109 24 109 8 l 109 724 q 112 749 109 743 q 134 755 115 755 l 753 755 q 788 753 773 755 q 804 732 804 751 q 788 713 804 715 q 753 711 773 711 l 167 711 l 167 414 l 750 414 q 775 410 765 414 q 785 392 785 406 q 777 372 785 377 q 755 368 768 368 l 167 368 l 167 45 l 755 45 q 790 43 774 45 q 805 24 805 41 q 792 2 805 4 q 760 0 780 1 l 127 0 m 753 -186 q 709 -171 730 -186 q 688 -121 688 -156 q 713 -56 688 -88 q 776 7 738 -24 l 796 7 q 761 -50 772 -21 q 749 -100 749 -78 q 761 -138 749 -127 q 783 -149 772 -149 q 810 -141 797 -149 q 831 -128 823 -134 l 838 -134 q 803 -172 827 -158 q 753 -186 779 -186 z "},"F":{"ha":840,"x_min":109,"x_max":840,"o":"m 139 0 q 114 14 119 0 q 109 46 109 28 l 109 730 q 112 753 109 750 q 134 755 115 755 l 798 755 q 828 752 815 755 q 840 732 840 749 q 829 713 840 716 q 798 711 817 711 l 167 711 l 167 403 l 701 403 q 733 400 720 403 q 745 382 745 397 q 732 361 745 364 q 701 358 718 358 l 167 358 l 167 47 q 161 14 167 28 q 139 0 155 0 z "},"G":{"ha":1101,"x_min":83,"x_max":1023,"o":"m 592 -14 q 212 76 340 -14 q 83 378 83 167 q 212 679 83 589 q 592 770 340 770 q 763 754 680 770 q 931 703 846 738 q 951 677 951 694 q 930 656 951 656 q 917 660 925 656 q 755 709 839 692 q 592 725 671 725 q 246 643 351 725 q 141 378 141 560 q 246 113 141 195 q 592 31 351 31 q 787 44 692 31 q 975 80 882 58 l 975 363 l 629 363 q 596 367 612 363 q 581 387 581 370 q 596 408 581 405 q 629 411 612 411 l 975 411 q 1013 400 1003 411 q 1023 363 1023 389 l 1023 80 q 1008 48 1023 59 q 975 33 992 37 q 780 0 874 14 q 592 -14 686 -14 z "},"Ǵ":{"ha":1101,"x_min":83,"x_max":1023,"o":"m 592 -14 q 212 76 340 -14 q 83 378 83 167 q 212 679 83 589 q 592 770 340 770 q 763 754 680 770 q 931 703 846 738 q 951 677 951 694 q 930 656 951 656 q 917 660 925 656 q 755 709 839 692 q 592 725 671 725 q 246 643 351 725 q 141 378 141 560 q 246 113 141 195 q 592 31 351 31 q 787 44 692 31 q 975 80 882 58 l 975 363 l 629 363 q 596 367 612 363 q 581 387 581 370 q 596 408 581 405 q 629 411 612 411 l 975 411 q 1013 400 1003 411 q 1023 363 1023 389 l 1023 80 q 1008 48 1023 59 q 975 33 992 37 q 780 0 874 14 q 592 -14 686 -14 m 498 851 q 479 869 479 851 q 485 881 479 876 l 656 1068 q 673 1076 663 1076 q 699 1063 688 1076 q 709 1036 709 1051 q 699 1017 709 1025 l 508 854 q 498 851 503 851 z "},"Ğ":{"ha":1101,"x_min":83,"x_max":1023,"o":"m 592 -14 q 212 76 340 -14 q 83 378 83 167 q 212 679 83 589 q 592 770 340 770 q 763 754 680 770 q 931 703 846 738 q 951 677 951 694 q 930 656 951 656 q 917 660 925 656 q 755 709 839 692 q 592 725 671 725 q 246 643 351 725 q 141 378 141 560 q 246 113 141 195 q 592 31 351 31 q 787 44 692 31 q 975 80 882 58 l 975 363 l 629 363 q 596 367 612 363 q 581 387 581 370 q 596 408 581 405 q 629 411 612 411 l 975 411 q 1013 400 1003 411 q 1023 363 1023 389 l 1023 80 q 1008 48 1023 59 q 975 33 992 37 q 780 0 874 14 q 592 -14 686 -14 m 551 852 q 473 871 503 852 q 431 920 444 891 q 418 975 418 948 q 423 997 418 987 q 444 1006 427 1006 q 462 997 458 1006 q 466 975 466 988 q 484 917 466 944 q 551 890 502 890 q 617 917 600 890 q 635 975 635 944 q 640 997 635 988 q 658 1006 644 1006 q 679 997 674 1006 q 683 975 683 987 q 670 920 683 948 q 628 871 657 891 q 551 852 600 852 z "},"Ĝ":{"ha":1101,"x_min":83,"x_max":1023,"o":"m 592 -14 q 212 76 340 -14 q 83 378 83 167 q 212 679 83 589 q 592 770 340 770 q 763 754 680 770 q 931 703 846 738 q 951 677 951 694 q 930 656 951 656 q 917 660 925 656 q 755 709 839 692 q 592 725 671 725 q 246 643 351 725 q 141 378 141 560 q 246 113 141 195 q 592 31 351 31 q 787 44 692 31 q 975 80 882 58 l 975 363 l 629 363 q 596 367 612 363 q 581 387 581 370 q 596 408 581 405 q 629 411 612 411 l 975 411 q 1013 400 1003 411 q 1023 363 1023 389 l 1023 80 q 1008 48 1023 59 q 975 33 992 37 q 780 0 874 14 q 592 -14 686 -14 m 441 852 q 422 860 430 852 q 422 880 415 868 l 515 1032 q 551 1058 531 1058 q 587 1032 570 1058 l 678 880 q 678 860 686 868 q 659 852 671 852 q 623 880 637 852 l 551 1021 l 478 880 q 441 852 463 852 z "},"Ģ":{"ha":1101,"x_min":83,"x_max":1023,"o":"m 592 -14 q 212 76 340 -14 q 83 378 83 167 q 212 679 83 589 q 592 770 340 770 q 763 754 680 770 q 931 703 846 738 q 951 677 951 694 q 930 656 951 656 q 917 660 925 656 q 755 709 839 692 q 592 725 671 725 q 246 643 351 725 q 141 378 141 560 q 246 113 141 195 q 592 31 351 31 q 787 44 692 31 q 975 80 882 58 l 975 363 l 629 363 q 596 367 612 363 q 581 387 581 370 q 596 408 581 405 q 629 411 612 411 l 975 411 q 1013 400 1003 411 q 1023 363 1023 389 l 1023 80 q 1008 48 1023 59 q 975 33 992 37 q 780 0 874 14 q 592 -14 686 -14 m 500 -240 q 484 -227 484 -240 q 498 -216 484 -216 q 538 -180 538 -214 q 530 -168 538 -172 q 513 -155 524 -165 q 503 -125 503 -145 q 517 -95 503 -105 q 551 -85 532 -85 q 582 -97 566 -85 q 597 -135 597 -109 q 571 -205 597 -170 q 500 -240 545 -240 z "},"Ġ":{"ha":1101,"x_min":83,"x_max":1023,"o":"m 592 -14 q 212 76 340 -14 q 83 378 83 167 q 212 679 83 589 q 592 770 340 770 q 763 754 680 770 q 931 703 846 738 q 951 677 951 694 q 930 656 951 656 q 917 660 925 656 q 755 709 839 692 q 592 725 671 725 q 246 643 351 725 q 141 378 141 560 q 246 113 141 195 q 592 31 351 31 q 787 44 692 31 q 975 80 882 58 l 975 363 l 629 363 q 596 367 612 363 q 581 387 581 370 q 596 408 581 405 q 629 411 612 411 l 975 411 q 1013 400 1003 411 q 1023 363 1023 389 l 1023 80 q 1008 48 1023 59 q 975 33 992 37 q 780 0 874 14 q 592 -14 686 -14 m 550 873 q 522 884 532 873 q 511 911 511 895 q 522 940 511 929 q 550 951 532 951 q 579 940 567 951 q 591 911 591 929 q 579 884 591 895 q 550 873 567 873 z "},"H":{"ha":931,"x_min":108,"x_max":823,"o":"m 139 0 q 113 15 118 0 q 108 47 108 30 l 108 708 q 114 741 108 726 q 140 755 119 755 q 160 740 155 755 q 165 708 165 725 l 165 411 l 766 411 l 766 708 q 770 741 766 726 q 794 755 774 755 q 819 741 814 755 q 823 708 823 726 l 823 47 q 819 15 823 30 q 795 0 814 0 q 770 15 774 0 q 766 47 766 30 l 766 369 l 165 369 l 165 47 q 160 15 165 31 q 139 0 154 0 z "},"Ħ":{"ha":931,"x_min":43,"x_max":890,"o":"m 139 0 q 113 15 118 0 q 108 47 108 30 l 108 603 l 62 603 q 48 609 54 603 q 43 622 43 615 q 48 635 43 629 q 62 642 54 642 l 108 642 l 108 708 q 114 741 108 726 q 140 755 119 755 q 160 740 155 755 q 165 708 165 725 l 165 642 l 766 642 l 766 708 q 770 741 766 726 q 794 755 774 755 q 819 741 814 755 q 823 708 823 726 l 823 642 l 871 642 q 885 635 881 642 q 890 622 890 629 q 885 609 890 615 q 871 603 881 603 l 823 603 l 823 47 q 819 15 823 30 q 795 0 814 0 q 770 15 774 0 q 766 47 766 30 l 766 369 l 165 369 l 165 47 q 160 15 165 31 q 139 0 154 0 m 165 411 l 766 411 l 766 603 l 165 603 l 165 411 z "},"Ĥ":{"ha":931,"x_min":108,"x_max":823,"o":"m 139 0 q 113 15 118 0 q 108 47 108 30 l 108 708 q 114 741 108 726 q 140 755 119 755 q 160 740 155 755 q 165 708 165 725 l 165 411 l 766 411 l 766 708 q 770 741 766 726 q 794 755 774 755 q 819 741 814 755 q 823 708 823 726 l 823 47 q 819 15 823 30 q 795 0 814 0 q 770 15 774 0 q 766 47 766 30 l 766 369 l 165 369 l 165 47 q 160 15 165 31 q 139 0 154 0 m 357 852 q 338 860 345 852 q 338 880 330 868 l 430 1032 q 466 1058 446 1058 q 502 1032 486 1058 l 593 880 q 593 860 601 868 q 574 852 586 852 q 538 880 552 852 l 466 1021 l 393 880 q 357 852 378 852 z "},"I":{"ha":699,"x_min":29,"x_max":669,"o":"m 79 0 q 46 2 62 0 q 29 24 29 4 q 45 43 29 41 q 79 45 61 45 l 321 45 l 321 711 l 79 711 q 45 713 61 711 q 29 732 29 715 q 46 753 29 751 q 79 755 62 755 l 621 755 q 655 753 640 755 q 669 733 669 751 q 655 713 669 715 q 621 711 640 711 l 378 711 l 378 45 l 621 45 q 655 43 640 45 q 669 22 669 41 q 655 2 669 4 q 621 0 640 0 l 79 0 z "},"Ĳ":{"ha":1416,"x_min":29,"x_max":1308,"o":"m 79 0 q 46 2 62 0 q 29 24 29 4 q 45 43 29 41 q 79 45 61 45 l 321 45 l 321 711 l 79 711 q 45 713 61 711 q 29 732 29 715 q 46 753 29 751 q 79 755 62 755 l 621 755 q 655 753 640 755 q 669 733 669 751 q 655 713 669 715 q 621 711 640 711 l 378 711 l 378 45 l 621 45 q 655 43 640 45 q 669 22 669 41 q 655 2 669 4 q 621 0 640 0 l 79 0 m 1016 -14 q 875 -1 939 -14 q 766 47 810 12 q 704 145 722 81 q 703 172 700 157 q 724 188 706 188 q 742 181 733 188 q 753 163 751 175 q 810 74 768 101 q 908 40 852 46 q 1016 33 963 33 q 1163 76 1112 33 q 1232 200 1213 118 q 1251 403 1251 283 l 1251 708 q 1256 742 1251 728 q 1281 755 1261 755 q 1303 740 1299 755 q 1308 708 1308 724 l 1308 403 q 1282 170 1308 262 q 1193 32 1256 77 q 1016 -14 1129 -14 z "},"Í":{"ha":699,"x_min":29,"x_max":669,"o":"m 79 0 q 46 2 62 0 q 29 24 29 4 q 45 43 29 41 q 79 45 61 45 l 321 45 l 321 711 l 79 711 q 45 713 61 711 q 29 732 29 715 q 46 753 29 751 q 79 755 62 755 l 621 755 q 655 753 640 755 q 669 733 669 751 q 655 713 669 715 q 621 711 640 711 l 378 711 l 378 45 l 621 45 q 655 43 640 45 q 669 22 669 41 q 655 2 669 4 q 621 0 640 0 l 79 0 m 297 851 q 279 869 279 851 q 284 881 279 876 l 455 1068 q 472 1076 463 1076 q 498 1063 487 1076 q 509 1036 509 1051 q 498 1017 509 1025 l 307 854 q 297 851 302 851 z "},"Ĭ":{"ha":699,"x_min":29,"x_max":669,"o":"m 79 0 q 46 2 62 0 q 29 24 29 4 q 45 43 29 41 q 79 45 61 45 l 321 45 l 321 711 l 79 711 q 45 713 61 711 q 29 732 29 715 q 46 753 29 751 q 79 755 62 755 l 621 755 q 655 753 640 755 q 669 733 669 751 q 655 713 669 715 q 621 711 640 711 l 378 711 l 378 45 l 621 45 q 655 43 640 45 q 669 22 669 41 q 655 2 669 4 q 621 0 640 0 l 79 0 m 350 852 q 273 871 302 852 q 231 920 243 891 q 218 975 218 948 q 222 997 218 987 q 243 1006 227 1006 q 261 997 257 1006 q 265 975 265 988 q 283 917 265 944 q 350 890 301 890 q 417 917 399 890 q 435 975 435 944 q 439 997 435 988 q 457 1006 443 1006 q 478 997 473 1006 q 482 975 482 987 q 469 920 482 948 q 428 871 456 891 q 350 852 399 852 z "},"Î":{"ha":699,"x_min":29,"x_max":669,"o":"m 79 0 q 46 2 62 0 q 29 24 29 4 q 45 43 29 41 q 79 45 61 45 l 321 45 l 321 711 l 79 711 q 45 713 61 711 q 29 732 29 715 q 46 753 29 751 q 79 755 62 755 l 621 755 q 655 753 640 755 q 669 733 669 751 q 655 713 669 715 q 621 711 640 711 l 378 711 l 378 45 l 621 45 q 655 43 640 45 q 669 22 669 41 q 655 2 669 4 q 621 0 640 0 l 79 0 m 241 852 q 222 860 229 852 q 222 880 214 868 l 314 1032 q 350 1058 330 1058 q 386 1032 370 1058 l 477 880 q 477 860 485 868 q 458 852 470 852 q 422 880 436 852 l 350 1021 l 277 880 q 241 852 262 852 z "},"Ȉ":{"ha":699,"x_min":29,"x_max":669,"o":"m 79 0 q 46 2 62 0 q 29 24 29 4 q 45 43 29 41 q 79 45 61 45 l 321 45 l 321 711 l 79 711 q 45 713 61 711 q 29 732 29 715 q 46 753 29 751 q 79 755 62 755 l 621 755 q 655 753 640 755 q 669 733 669 751 q 655 713 669 715 q 621 711 640 711 l 378 711 l 378 45 l 621 45 q 655 43 640 45 q 669 22 669 41 q 655 2 669 4 q 621 0 640 0 l 79 0 m 439 852 q 429 855 433 852 l 237 1018 q 227 1037 227 1026 q 236 1059 227 1049 q 257 1069 245 1069 q 274 1062 267 1069 l 452 882 q 457 869 457 876 q 439 852 457 852 m 284 852 q 274 855 279 852 l 83 1018 q 73 1037 73 1026 q 81 1059 73 1049 q 102 1069 90 1069 q 119 1062 112 1069 l 297 882 q 302 869 302 876 q 284 852 302 852 z "},"Ï":{"ha":699,"x_min":29,"x_max":669,"o":"m 79 0 q 46 2 62 0 q 29 24 29 4 q 45 43 29 41 q 79 45 61 45 l 321 45 l 321 711 l 79 711 q 45 713 61 711 q 29 732 29 715 q 46 753 29 751 q 79 755 62 755 l 621 755 q 655 753 640 755 q 669 733 669 751 q 655 713 669 715 q 621 711 640 711 l 378 711 l 378 45 l 621 45 q 655 43 640 45 q 669 22 669 41 q 655 2 669 4 q 621 0 640 0 l 79 0 m 484 873 q 456 884 467 873 q 445 911 445 895 q 456 940 445 929 q 484 951 467 951 q 513 940 501 951 q 525 911 525 929 q 513 884 525 895 q 484 873 501 873 m 214 873 q 185 884 196 873 q 174 911 174 895 q 185 940 174 929 q 214 951 196 951 q 242 940 231 951 q 254 911 254 929 q 242 884 254 895 q 214 873 231 873 z "},"İ":{"ha":699,"x_min":29,"x_max":669,"o":"m 79 0 q 46 2 62 0 q 29 24 29 4 q 45 43 29 41 q 79 45 61 45 l 321 45 l 321 711 l 79 711 q 45 713 61 711 q 29 732 29 715 q 46 753 29 751 q 79 755 62 755 l 621 755 q 655 753 640 755 q 669 733 669 751 q 655 713 669 715 q 621 711 640 711 l 378 711 l 378 45 l 621 45 q 655 43 640 45 q 669 22 669 41 q 655 2 669 4 q 621 0 640 0 l 79 0 m 349 873 q 321 884 332 873 q 310 911 310 895 q 321 940 310 929 q 349 951 332 951 q 378 940 366 951 q 390 911 390 929 q 378 884 390 895 q 349 873 366 873 z "},"Ì":{"ha":699,"x_min":29,"x_max":669,"o":"m 79 0 q 46 2 62 0 q 29 24 29 4 q 45 43 29 41 q 79 45 61 45 l 321 45 l 321 711 l 79 711 q 45 713 61 711 q 29 732 29 715 q 46 753 29 751 q 79 755 62 755 l 621 755 q 655 753 640 755 q 669 733 669 751 q 655 713 669 715 q 621 711 640 711 l 378 711 l 378 45 l 621 45 q 655 43 640 45 q 669 22 669 41 q 655 2 669 4 q 621 0 640 0 l 79 0 m 403 852 q 393 856 397 852 l 201 1019 q 191 1038 191 1027 q 202 1065 191 1053 q 228 1077 213 1077 q 245 1069 237 1077 l 416 882 q 421 870 421 877 q 403 852 421 852 z "},"Ȋ":{"ha":699,"x_min":29,"x_max":669,"o":"m 79 0 q 46 2 62 0 q 29 24 29 4 q 45 43 29 41 q 79 45 61 45 l 321 45 l 321 711 l 79 711 q 45 713 61 711 q 29 732 29 715 q 46 753 29 751 q 79 755 62 755 l 621 755 q 655 753 640 755 q 669 733 669 751 q 655 713 669 715 q 621 711 640 711 l 378 711 l 378 45 l 621 45 q 655 43 640 45 q 669 22 669 41 q 655 2 669 4 q 621 0 640 0 l 79 0 m 243 852 q 224 862 228 852 q 220 883 220 872 q 232 939 220 910 q 273 987 244 967 q 350 1006 302 1006 q 427 987 399 1006 q 468 939 456 967 q 480 883 480 910 q 476 862 480 872 q 457 852 472 852 q 440 861 444 852 q 437 883 437 870 q 418 943 437 914 q 350 971 399 971 q 282 943 301 971 q 263 883 263 914 q 259 861 263 870 q 243 852 256 852 z "},"Ī":{"ha":699,"x_min":29,"x_max":669,"o":"m 79 0 q 46 2 62 0 q 29 24 29 4 q 45 43 29 41 q 79 45 61 45 l 321 45 l 321 711 l 79 711 q 45 713 61 711 q 29 732 29 715 q 46 753 29 751 q 79 755 62 755 l 621 755 q 655 753 640 755 q 669 733 669 751 q 655 713 669 715 q 621 711 640 711 l 378 711 l 378 45 l 621 45 q 655 43 640 45 q 669 22 669 41 q 655 2 669 4 q 621 0 640 0 l 79 0 m 234 863 q 217 871 222 863 q 212 884 212 879 q 217 899 212 890 q 234 907 222 907 l 466 907 q 483 899 478 907 q 488 884 488 890 q 483 871 488 879 q 466 863 478 863 l 234 863 z "},"Į":{"ha":699,"x_min":29,"x_max":669,"o":"m 79 0 q 46 2 62 0 q 29 24 29 4 q 45 43 29 41 q 79 45 61 45 l 321 45 l 321 711 l 79 711 q 45 713 61 711 q 29 732 29 715 q 46 753 29 751 q 79 755 62 755 l 621 755 q 655 753 640 755 q 669 733 669 751 q 655 713 669 715 q 621 711 640 711 l 378 711 l 378 45 l 621 45 q 655 43 640 45 q 669 22 669 41 q 655 2 669 4 q 621 0 640 0 l 79 0 m 316 -186 q 272 -171 293 -186 q 252 -121 252 -156 q 276 -56 252 -88 q 339 7 301 -24 l 359 7 q 324 -50 336 -21 q 312 -100 312 -78 q 324 -138 312 -127 q 347 -149 336 -149 q 373 -141 360 -149 q 395 -128 386 -134 l 401 -134 q 366 -172 390 -158 q 316 -186 342 -186 z "},"Ĩ":{"ha":699,"x_min":29,"x_max":669,"o":"m 79 0 q 46 2 62 0 q 29 24 29 4 q 45 43 29 41 q 79 45 61 45 l 321 45 l 321 711 l 79 711 q 45 713 61 711 q 29 732 29 715 q 46 753 29 751 q 79 755 62 755 l 621 755 q 655 753 640 755 q 669 733 669 751 q 655 713 669 715 q 621 711 640 711 l 378 711 l 378 45 l 621 45 q 655 43 640 45 q 669 22 669 41 q 655 2 669 4 q 621 0 640 0 l 79 0 m 216 852 q 197 862 201 852 q 193 883 193 872 q 208 932 193 912 q 260 951 223 951 q 328 937 298 951 q 384 906 357 922 q 439 891 411 891 q 456 897 449 891 q 463 921 463 902 q 467 942 463 933 q 483 951 471 951 q 502 942 498 951 q 506 920 506 932 q 491 871 506 891 q 439 852 476 852 q 378 867 414 852 q 311 897 343 882 q 260 912 278 912 q 243 907 250 912 q 236 882 236 901 q 232 861 236 870 q 216 852 228 852 z "},"J":{"ha":717,"x_min":1,"x_max":609,"o":"m 317 -14 q 176 -1 240 -14 q 67 47 111 12 q 5 145 22 81 q 4 172 1 157 q 25 188 7 188 q 43 181 34 188 q 54 163 52 175 q 111 74 68 101 q 209 40 153 46 q 317 33 264 33 q 464 76 413 33 q 533 200 514 118 q 551 403 551 283 l 551 708 q 557 742 551 728 q 582 755 562 755 q 604 740 600 755 q 609 708 609 724 l 609 403 q 583 170 609 262 q 493 32 557 77 q 317 -14 430 -14 z "},"Ĵ":{"ha":717,"x_min":1,"x_max":717,"o":"m 317 -14 q 176 -1 240 -14 q 67 47 111 12 q 5 145 22 81 q 4 172 1 157 q 25 188 7 188 q 43 181 34 188 q 54 163 52 175 q 111 74 68 101 q 209 40 153 46 q 317 33 264 33 q 464 76 413 33 q 533 200 514 118 q 551 403 551 283 l 551 708 q 557 742 551 728 q 582 755 562 755 q 604 740 600 755 q 609 708 609 724 l 609 403 q 583 170 609 262 q 493 32 557 77 q 317 -14 430 -14 m 473 852 q 454 860 461 852 q 454 880 446 868 l 546 1032 q 582 1058 562 1058 q 618 1032 602 1058 l 709 880 q 709 860 717 868 q 690 852 702 852 q 654 880 668 852 l 582 1021 l 509 880 q 473 852 494 852 z "},"K":{"ha":833,"x_min":109,"x_max":760,"o":"m 138 0 q 114 14 119 0 q 109 46 109 28 l 109 711 q 114 743 109 730 q 140 755 120 755 q 161 743 156 755 q 167 712 167 730 l 167 355 l 710 745 q 737 755 724 755 q 760 734 760 755 q 745 708 760 719 l 350 421 l 745 52 q 759 25 759 40 q 752 7 759 15 q 735 0 745 0 q 713 10 724 0 l 307 393 l 167 301 l 167 47 q 161 14 167 28 q 138 0 155 0 z "},"Ķ":{"ha":833,"x_min":109,"x_max":760,"o":"m 138 0 q 114 14 119 0 q 109 46 109 28 l 109 711 q 114 743 109 730 q 140 755 120 755 q 161 743 156 755 q 167 712 167 730 l 167 355 l 710 745 q 737 755 724 755 q 760 734 760 755 q 745 708 760 719 l 350 421 l 745 52 q 759 25 759 40 q 752 7 759 15 q 735 0 745 0 q 713 10 724 0 l 307 393 l 167 301 l 167 47 q 161 14 167 28 q 138 0 155 0 m 389 -240 q 373 -227 373 -240 q 387 -216 373 -216 q 427 -180 427 -214 q 419 -168 427 -172 q 402 -155 412 -165 q 392 -125 392 -145 q 406 -95 392 -105 q 439 -85 420 -85 q 470 -97 455 -85 q 486 -135 486 -109 q 459 -205 486 -170 q 389 -240 433 -240 z "},"L":{"ha":777,"x_min":109,"x_max":777,"o":"m 136 0 q 112 4 115 0 q 109 25 109 7 l 109 711 q 115 742 109 729 q 140 755 121 755 q 161 742 157 755 q 166 711 166 728 l 166 45 l 749 45 q 769 38 762 45 q 777 22 777 31 q 769 7 777 14 q 749 0 762 0 l 136 0 z "},"Ǉ":{"ha":1493,"x_min":109,"x_max":1385,"o":"m 136 0 q 112 4 115 0 q 109 25 109 7 l 109 711 q 115 742 109 729 q 140 755 121 755 q 161 742 157 755 q 166 711 166 728 l 166 45 l 749 45 q 769 38 762 45 q 777 22 777 31 q 769 7 777 14 q 749 0 762 0 l 136 0 m 1093 -14 q 952 -1 1017 -14 q 843 47 888 12 q 781 145 799 81 q 780 172 777 157 q 802 188 783 188 q 819 181 810 188 q 831 163 828 175 q 887 74 845 101 q 985 40 930 46 q 1093 33 1040 33 q 1240 76 1190 33 q 1309 200 1291 118 q 1328 403 1328 283 l 1328 708 q 1333 742 1328 728 q 1358 755 1339 755 q 1381 740 1376 755 q 1385 708 1385 724 l 1385 403 q 1359 170 1385 262 q 1270 32 1333 77 q 1093 -14 1206 -14 z "},"Ĺ":{"ha":777,"x_min":109,"x_max":777,"o":"m 136 0 q 112 4 115 0 q 109 25 109 7 l 109 711 q 115 742 109 729 q 140 755 121 755 q 161 742 157 755 q 166 711 166 728 l 166 45 l 749 45 q 769 38 762 45 q 777 22 777 31 q 769 7 777 14 q 749 0 762 0 l 136 0 m 336 851 q 317 869 317 851 q 323 881 317 876 l 494 1068 q 511 1076 501 1076 q 536 1063 526 1076 q 547 1036 547 1051 q 537 1017 547 1025 l 346 854 q 336 851 341 851 z "},"Ľ":{"ha":777,"x_min":109,"x_max":777,"o":"m 136 0 q 112 4 115 0 q 109 25 109 7 l 109 711 q 115 742 109 729 q 140 755 121 755 q 161 742 157 755 q 166 711 166 728 l 166 45 l 749 45 q 769 38 762 45 q 777 22 777 31 q 769 7 777 14 q 749 0 762 0 l 136 0 m 662 614 q 646 627 646 614 q 660 639 646 638 q 700 674 700 641 q 692 686 700 682 q 675 700 685 690 q 665 730 665 709 q 679 760 665 749 q 712 770 693 770 q 743 758 728 770 q 758 720 758 745 q 732 650 758 685 q 662 614 706 614 z "},"Ļ":{"ha":777,"x_min":109,"x_max":777,"o":"m 136 0 q 112 4 115 0 q 109 25 109 7 l 109 711 q 115 742 109 729 q 140 755 121 755 q 161 742 157 755 q 166 711 166 728 l 166 45 l 749 45 q 769 38 762 45 q 777 22 777 31 q 769 7 777 14 q 749 0 762 0 l 136 0 m 398 -240 q 382 -227 382 -240 q 396 -216 382 -216 q 436 -180 436 -214 q 428 -168 436 -172 q 411 -155 421 -165 q 401 -125 401 -145 q 415 -95 401 -105 q 448 -85 429 -85 q 479 -97 464 -85 q 494 -135 494 -109 q 468 -205 494 -170 q 398 -240 442 -240 z "},"Ŀ":{"ha":777,"x_min":109,"x_max":777,"o":"m 136 0 q 112 4 115 0 q 109 25 109 7 l 109 711 q 115 742 109 729 q 140 755 121 755 q 161 742 157 755 q 166 711 166 728 l 166 45 l 749 45 q 769 38 762 45 q 777 22 777 31 q 769 7 777 14 q 749 0 762 0 l 136 0 m 442 342 q 411 353 422 342 q 399 384 399 365 q 411 416 399 404 q 442 428 422 428 q 474 416 460 428 q 487 384 487 404 q 474 353 487 365 q 442 342 460 342 z "},"ǈ":{"ha":1104,"x_min":109,"x_max":1034,"o":"m 136 0 q 112 4 115 0 q 109 25 109 7 l 109 711 q 115 742 109 729 q 140 755 121 755 q 161 742 157 755 q 166 711 166 728 l 166 45 l 749 45 q 769 38 762 45 q 777 22 777 31 q 769 7 777 14 q 749 0 762 0 l 136 0 m 821 -180 q 790 -177 804 -180 q 777 -157 777 -174 q 790 -136 777 -139 q 821 -134 804 -134 q 907 -116 878 -134 q 949 -70 937 -99 q 964 -6 962 -41 q 966 64 966 28 l 966 484 q 971 514 966 502 q 994 526 976 526 q 1017 514 1013 526 q 1020 484 1020 502 l 1020 64 q 1016 -14 1020 28 q 994 -94 1012 -56 q 935 -156 976 -132 q 821 -180 895 -180 m 993 637 q 964 648 975 637 q 954 675 954 659 q 964 704 954 693 q 993 715 975 715 q 1022 704 1010 715 q 1034 675 1034 693 q 1022 648 1034 659 q 993 637 1010 637 z "},"Ł":{"ha":752,"x_min":-18,"x_max":730,"o":"m 167 0 q 144 5 147 0 q 140 47 140 11 l 140 369 l -4 312 l -18 355 l 140 418 l 140 708 q 144 742 140 729 q 167 755 147 755 q 186 742 183 755 q 189 708 189 728 l 189 439 l 435 540 l 448 496 l 189 388 l 189 47 l 682 47 q 716 44 702 47 q 730 24 730 41 q 716 3 730 6 q 682 0 702 0 l 167 0 z "},"M":{"ha":1199,"x_min":108,"x_max":1091,"o":"m 137 0 q 113 14 117 0 q 108 47 108 28 l 108 719 q 116 745 108 734 q 138 755 125 755 q 179 726 159 755 l 600 94 l 1020 726 q 1061 755 1039 755 q 1083 745 1074 755 q 1091 719 1091 734 l 1091 47 q 1086 14 1091 28 q 1062 0 1082 0 q 1039 14 1045 0 q 1034 47 1034 28 l 1034 650 l 633 58 q 600 35 616 35 q 566 58 581 35 l 165 650 l 165 47 q 160 14 165 28 q 137 0 154 0 z "},"N":{"ha":1036,"x_min":109,"x_max":927,"o":"m 138 0 q 114 14 119 0 q 109 47 109 28 l 109 711 q 136 753 109 753 q 176 733 153 753 l 869 87 l 869 704 q 874 740 869 724 q 899 755 878 755 q 922 740 916 755 q 927 704 927 725 l 927 43 q 904 0 927 0 q 865 21 888 0 l 166 669 l 166 47 q 160 14 166 28 q 138 0 155 0 z "},"Ǌ":{"ha":1752,"x_min":109,"x_max":1645,"o":"m 138 0 q 114 14 119 0 q 109 47 109 28 l 109 711 q 136 753 109 753 q 176 733 153 753 l 869 87 l 869 704 q 874 740 869 724 q 899 755 878 755 q 922 740 916 755 q 927 704 927 725 l 927 43 q 904 0 927 0 q 865 21 888 0 l 166 669 l 166 47 q 160 14 166 28 q 138 0 155 0 m 1352 -14 q 1211 -1 1276 -14 q 1102 47 1147 12 q 1040 145 1058 81 q 1039 172 1036 157 q 1061 188 1042 188 q 1078 181 1069 188 q 1090 163 1087 175 q 1146 74 1104 101 q 1244 40 1189 46 q 1352 33 1299 33 q 1499 76 1449 33 q 1568 200 1550 118 q 1587 403 1587 283 l 1587 708 q 1592 742 1587 728 q 1617 755 1598 755 q 1640 740 1635 755 q 1645 708 1645 724 l 1645 403 q 1618 170 1645 262 q 1529 32 1592 77 q 1352 -14 1466 -14 z "},"Ń":{"ha":1036,"x_min":109,"x_max":927,"o":"m 138 0 q 114 14 119 0 q 109 47 109 28 l 109 711 q 136 753 109 753 q 176 733 153 753 l 869 87 l 869 704 q 874 740 869 724 q 899 755 878 755 q 922 740 916 755 q 927 704 927 725 l 927 43 q 904 0 927 0 q 865 21 888 0 l 166 669 l 166 47 q 160 14 166 28 q 138 0 155 0 m 465 851 q 447 869 447 851 q 452 881 447 876 l 623 1068 q 640 1076 631 1076 q 666 1063 655 1076 q 677 1036 677 1051 q 667 1017 677 1025 l 475 854 q 465 851 471 851 z "},"Ň":{"ha":1036,"x_min":109,"x_max":927,"o":"m 138 0 q 114 14 119 0 q 109 47 109 28 l 109 711 q 136 753 109 753 q 176 733 153 753 l 869 87 l 869 704 q 874 740 869 724 q 899 755 878 755 q 922 740 916 755 q 927 704 927 725 l 927 43 q 904 0 927 0 q 865 21 888 0 l 166 669 l 166 47 q 160 14 166 28 q 138 0 155 0 m 518 852 q 482 878 498 852 l 390 1029 q 390 1050 382 1042 q 409 1058 397 1058 q 446 1030 431 1058 l 518 889 l 590 1030 q 627 1058 604 1058 q 646 1050 638 1058 q 646 1029 653 1042 l 554 878 q 518 852 537 852 z "},"Ņ":{"ha":1036,"x_min":109,"x_max":927,"o":"m 138 0 q 114 14 119 0 q 109 47 109 28 l 109 711 q 136 753 109 753 q 176 733 153 753 l 869 87 l 869 704 q 874 740 869 724 q 899 755 878 755 q 922 740 916 755 q 927 704 927 725 l 927 43 q 904 0 927 0 q 865 21 888 0 l 166 669 l 166 47 q 160 14 166 28 q 138 0 155 0 m 468 -240 q 452 -227 452 -240 q 466 -216 452 -216 q 506 -180 506 -214 q 498 -168 506 -172 q 481 -155 491 -165 q 471 -125 471 -145 q 485 -95 471 -105 q 518 -85 499 -85 q 549 -97 534 -85 q 564 -135 564 -109 q 538 -205 564 -170 q 468 -240 512 -240 z "},"ǋ":{"ha":1363,"x_min":109,"x_max":1293,"o":"m 138 0 q 114 14 119 0 q 109 47 109 28 l 109 711 q 136 753 109 753 q 176 733 153 753 l 869 87 l 869 704 q 874 740 869 724 q 899 755 878 755 q 922 740 916 755 q 927 704 927 725 l 927 43 q 904 0 927 0 q 865 21 888 0 l 166 669 l 166 47 q 160 14 166 28 q 138 0 155 0 m 1080 -180 q 1049 -177 1063 -180 q 1036 -157 1036 -174 q 1049 -136 1036 -139 q 1080 -134 1063 -134 q 1166 -116 1137 -134 q 1208 -70 1196 -99 q 1223 -6 1221 -41 q 1225 64 1225 28 l 1225 484 q 1230 514 1225 502 q 1253 526 1235 526 q 1276 514 1272 526 q 1279 484 1279 502 l 1279 64 q 1275 -14 1279 28 q 1253 -94 1271 -56 q 1194 -156 1235 -132 q 1080 -180 1154 -180 m 1252 637 q 1223 648 1234 637 q 1213 675 1213 659 q 1223 704 1213 693 q 1252 715 1234 715 q 1281 704 1269 715 q 1293 675 1293 693 q 1281 648 1293 659 q 1252 637 1269 637 z "},"Ñ":{"ha":1036,"x_min":109,"x_max":927,"o":"m 138 0 q 114 14 119 0 q 109 47 109 28 l 109 711 q 136 753 109 753 q 176 733 153 753 l 869 87 l 869 704 q 874 740 869 724 q 899 755 878 755 q 922 740 916 755 q 927 704 927 725 l 927 43 q 904 0 927 0 q 865 21 888 0 l 166 669 l 166 47 q 160 14 166 28 q 138 0 155 0 m 385 852 q 366 862 370 852 q 361 883 361 872 q 376 932 361 912 q 429 951 391 951 q 496 937 466 951 q 552 906 526 922 q 607 891 579 891 q 624 897 617 891 q 631 921 631 902 q 635 942 631 933 q 651 951 640 951 q 670 942 666 951 q 674 920 674 932 q 659 871 674 891 q 607 852 644 852 q 547 867 582 852 q 479 897 511 882 q 429 912 446 912 q 411 907 418 912 q 404 882 404 901 q 400 861 404 870 q 385 852 396 852 z "},"Ŋ":{"ha":1035,"x_min":109,"x_max":927,"o":"m 727 -180 q 696 -177 709 -180 q 682 -157 682 -174 q 696 -136 682 -139 q 727 -134 709 -134 q 820 -113 789 -134 q 860 -57 850 -92 q 871 16 870 -23 l 166 669 l 166 47 q 160 14 166 28 q 138 0 155 0 q 114 14 119 0 q 109 47 109 28 l 109 711 q 136 753 109 753 q 176 733 153 753 l 869 87 l 869 704 q 874 740 869 724 q 899 755 878 755 q 922 740 916 755 q 927 704 927 725 l 927 43 q 920 -30 927 9 q 893 -103 913 -69 q 833 -159 873 -138 q 727 -180 793 -180 z "},"O":{"ha":1163,"x_min":83,"x_max":1080,"o":"m 581 -14 q 203 83 323 -14 q 83 378 83 180 q 203 673 83 576 q 581 770 323 770 q 959 673 839 770 q 1080 378 1080 576 q 959 83 1080 180 q 581 -14 839 -14 m 581 31 q 913 110 804 31 q 1022 378 1022 189 q 913 646 1022 567 q 581 725 804 725 q 250 646 359 725 q 141 378 141 567 q 250 110 141 189 q 581 31 359 31 z "},"Ó":{"ha":1163,"x_min":83,"x_max":1080,"o":"m 581 -14 q 203 83 323 -14 q 83 378 83 180 q 203 673 83 576 q 581 770 323 770 q 959 673 839 770 q 1080 378 1080 576 q 959 83 1080 180 q 581 -14 839 -14 m 581 31 q 913 110 804 31 q 1022 378 1022 189 q 913 646 1022 567 q 581 725 804 725 q 250 646 359 725 q 141 378 141 567 q 250 110 141 189 q 581 31 359 31 m 529 851 q 511 869 511 851 q 516 881 511 876 l 687 1068 q 704 1076 694 1076 q 730 1063 719 1076 q 741 1036 741 1051 q 730 1017 741 1025 l 539 854 q 529 851 534 851 z "},"Ŏ":{"ha":1163,"x_min":83,"x_max":1080,"o":"m 581 -14 q 203 83 323 -14 q 83 378 83 180 q 203 673 83 576 q 581 770 323 770 q 959 673 839 770 q 1080 378 1080 576 q 959 83 1080 180 q 581 -14 839 -14 m 581 31 q 913 110 804 31 q 1022 378 1022 189 q 913 646 1022 567 q 581 725 804 725 q 250 646 359 725 q 141 378 141 567 q 250 110 141 189 q 581 31 359 31 m 582 852 q 505 871 534 852 q 463 920 475 891 q 450 975 450 948 q 454 997 450 987 q 475 1006 458 1006 q 493 997 489 1006 q 497 975 497 988 q 515 917 497 944 q 582 890 533 890 q 649 917 631 890 q 667 975 667 944 q 671 997 667 988 q 689 1006 675 1006 q 710 997 705 1006 q 714 975 714 987 q 701 920 714 948 q 660 871 688 891 q 582 852 631 852 z "},"Ô":{"ha":1163,"x_min":83,"x_max":1080,"o":"m 581 -14 q 203 83 323 -14 q 83 378 83 180 q 203 673 83 576 q 581 770 323 770 q 959 673 839 770 q 1080 378 1080 576 q 959 83 1080 180 q 581 -14 839 -14 m 581 31 q 913 110 804 31 q 1022 378 1022 189 q 913 646 1022 567 q 581 725 804 725 q 250 646 359 725 q 141 378 141 567 q 250 110 141 189 q 581 31 359 31 m 473 852 q 454 860 461 852 q 454 880 446 868 l 546 1032 q 582 1058 562 1058 q 618 1032 602 1058 l 709 880 q 709 860 717 868 q 690 852 702 852 q 654 880 668 852 l 582 1021 l 509 880 q 473 852 494 852 z "},"Ȍ":{"ha":1163,"x_min":83,"x_max":1080,"o":"m 581 -14 q 203 83 323 -14 q 83 378 83 180 q 203 673 83 576 q 581 770 323 770 q 959 673 839 770 q 1080 378 1080 576 q 959 83 1080 180 q 581 -14 839 -14 m 581 31 q 913 110 804 31 q 1022 378 1022 189 q 913 646 1022 567 q 581 725 804 725 q 250 646 359 725 q 141 378 141 567 q 250 110 141 189 q 581 31 359 31 m 671 852 q 661 855 665 852 l 469 1018 q 459 1037 459 1026 q 468 1059 459 1049 q 489 1069 477 1069 q 506 1062 498 1069 l 684 882 q 689 869 689 876 q 671 852 689 852 m 516 852 q 506 855 511 852 l 315 1018 q 304 1037 304 1026 q 313 1059 304 1049 q 334 1069 322 1069 q 351 1062 344 1069 l 529 882 q 534 869 534 876 q 516 852 534 852 z "},"Ö":{"ha":1163,"x_min":83,"x_max":1080,"o":"m 581 -14 q 203 83 323 -14 q 83 378 83 180 q 203 673 83 576 q 581 770 323 770 q 959 673 839 770 q 1080 378 1080 576 q 959 83 1080 180 q 581 -14 839 -14 m 581 31 q 913 110 804 31 q 1022 378 1022 189 q 913 646 1022 567 q 581 725 804 725 q 250 646 359 725 q 141 378 141 567 q 250 110 141 189 q 581 31 359 31 m 716 873 q 688 884 699 873 q 677 911 677 895 q 688 940 677 929 q 716 951 699 951 q 745 940 733 951 q 757 911 757 929 q 745 884 757 895 q 716 873 733 873 m 446 873 q 417 884 428 873 q 406 911 406 895 q 417 940 406 929 q 446 951 428 951 q 474 940 463 951 q 486 911 486 929 q 474 884 486 895 q 446 873 463 873 z "},"Ò":{"ha":1163,"x_min":83,"x_max":1080,"o":"m 581 -14 q 203 83 323 -14 q 83 378 83 180 q 203 673 83 576 q 581 770 323 770 q 959 673 839 770 q 1080 378 1080 576 q 959 83 1080 180 q 581 -14 839 -14 m 581 31 q 913 110 804 31 q 1022 378 1022 189 q 913 646 1022 567 q 581 725 804 725 q 250 646 359 725 q 141 378 141 567 q 250 110 141 189 q 581 31 359 31 m 635 852 q 625 856 629 852 l 433 1019 q 423 1038 423 1027 q 434 1065 423 1053 q 460 1077 445 1077 q 477 1069 469 1077 l 648 882 q 653 870 653 877 q 635 852 653 852 z "},"Ő":{"ha":1163,"x_min":83,"x_max":1080,"o":"m 581 -14 q 203 83 323 -14 q 83 378 83 180 q 203 673 83 576 q 581 770 323 770 q 959 673 839 770 q 1080 378 1080 576 q 959 83 1080 180 q 581 -14 839 -14 m 581 31 q 913 110 804 31 q 1022 378 1022 189 q 913 646 1022 567 q 581 725 804 725 q 250 646 359 725 q 141 378 141 567 q 250 110 141 189 q 581 31 359 31 m 654 850 q 635 868 635 850 q 641 880 635 875 l 820 1061 q 837 1068 827 1068 q 861 1057 849 1068 q 872 1034 872 1046 q 862 1015 872 1023 l 664 854 q 654 850 659 850 m 499 850 q 481 868 481 850 q 486 880 481 875 l 665 1061 q 682 1068 673 1068 q 706 1057 694 1068 q 718 1034 718 1046 q 707 1015 718 1023 l 509 854 q 499 850 505 850 z "},"Ȏ":{"ha":1163,"x_min":83,"x_max":1080,"o":"m 581 -14 q 203 83 323 -14 q 83 378 83 180 q 203 673 83 576 q 581 770 323 770 q 959 673 839 770 q 1080 378 1080 576 q 959 83 1080 180 q 581 -14 839 -14 m 581 31 q 913 110 804 31 q 1022 378 1022 189 q 913 646 1022 567 q 581 725 804 725 q 250 646 359 725 q 141 378 141 567 q 250 110 141 189 q 581 31 359 31 m 475 852 q 456 862 460 852 q 452 883 452 872 q 464 939 452 910 q 505 987 476 967 q 582 1006 534 1006 q 659 987 631 1006 q 700 939 688 967 q 712 883 712 910 q 708 862 712 872 q 689 852 704 852 q 672 861 676 852 q 669 883 669 870 q 650 943 669 914 q 582 971 631 971 q 514 943 533 971 q 495 883 495 914 q 491 861 495 870 q 475 852 488 852 z "},"Ō":{"ha":1163,"x_min":83,"x_max":1080,"o":"m 581 -14 q 203 83 323 -14 q 83 378 83 180 q 203 673 83 576 q 581 770 323 770 q 959 673 839 770 q 1080 378 1080 576 q 959 83 1080 180 q 581 -14 839 -14 m 581 31 q 913 110 804 31 q 1022 378 1022 189 q 913 646 1022 567 q 581 725 804 725 q 250 646 359 725 q 141 378 141 567 q 250 110 141 189 q 581 31 359 31 m 466 863 q 449 871 454 863 q 444 884 444 879 q 449 899 444 890 q 466 907 454 907 l 698 907 q 715 899 710 907 q 720 884 720 890 q 715 871 720 879 q 698 863 710 863 l 466 863 z "},"Ø":{"ha":1163,"x_min":83,"x_max":1080,"o":"m 410 -108 q 389 -98 393 -108 q 385 -81 385 -89 q 388 -69 385 -75 q 393 -55 391 -62 l 414 -1 q 164 121 244 27 q 83 378 83 216 q 203 673 83 576 q 581 770 323 770 q 701 764 646 770 l 726 829 q 737 856 731 844 q 759 868 743 868 q 777 861 773 868 q 781 844 781 853 q 779 830 781 838 q 774 815 777 823 l 752 757 q 1000 633 920 728 q 1080 378 1080 539 q 959 83 1080 180 q 581 -14 839 -14 q 521 -13 550 -14 q 464 -9 492 -12 l 441 -69 q 429 -97 435 -85 q 410 -108 422 -108 m 429 41 l 685 720 q 635 724 661 723 q 581 725 609 725 q 250 646 359 725 q 141 378 141 567 q 213 145 141 224 q 429 41 284 65 m 581 31 q 913 110 804 31 q 1022 378 1022 189 q 951 611 1022 530 q 736 714 880 691 l 480 35 q 581 31 527 31 z "},"Õ":{"ha":1163,"x_min":83,"x_max":1080,"o":"m 581 -14 q 203 83 323 -14 q 83 378 83 180 q 203 673 83 576 q 581 770 323 770 q 959 673 839 770 q 1080 378 1080 576 q 959 83 1080 180 q 581 -14 839 -14 m 581 31 q 913 110 804 31 q 1022 378 1022 189 q 913 646 1022 567 q 581 725 804 725 q 250 646 359 725 q 141 378 141 567 q 250 110 141 189 q 581 31 359 31 m 448 852 q 429 862 433 852 q 425 883 425 872 q 440 932 425 912 q 492 951 455 951 q 559 937 530 951 q 616 906 589 922 q 671 891 643 891 q 688 897 681 891 q 695 921 695 902 q 699 942 695 933 q 715 951 703 951 q 734 942 730 951 q 738 920 738 932 q 723 871 738 891 q 671 852 708 852 q 610 867 646 852 q 543 897 575 882 q 492 912 510 912 q 475 907 482 912 q 468 882 468 901 q 464 861 468 870 q 448 852 460 852 z "},"Œ":{"ha":1613,"x_min":83,"x_max":1544,"o":"m 581 -14 q 203 83 323 -14 q 83 378 83 180 q 203 673 83 576 q 581 770 323 770 q 728 761 662 770 q 848 733 794 753 q 852 754 848 752 q 873 755 856 755 l 1505 755 q 1531 752 1520 755 q 1542 732 1542 748 q 1530 714 1542 717 q 1500 711 1518 711 l 905 711 l 905 408 l 1486 408 q 1513 405 1501 408 q 1524 388 1524 401 q 1515 369 1524 373 q 1493 366 1507 366 q 1484 366 1489 366 q 1474 366 1479 366 l 905 366 l 905 45 l 1501 45 q 1531 42 1519 45 q 1544 24 1544 39 q 1533 4 1544 7 q 1506 0 1522 0 l 874 0 q 851 3 854 0 q 848 23 848 6 q 581 -14 741 -14 m 581 31 q 730 41 664 31 q 848 73 796 51 l 848 684 q 730 715 796 705 q 581 725 664 725 q 250 646 359 725 q 141 378 141 567 q 250 110 141 189 q 581 31 359 31 z "},"P":{"ha":805,"x_min":109,"x_max":783,"o":"m 140 0 q 114 15 120 0 q 109 52 109 31 l 109 730 q 116 753 109 750 q 143 755 123 755 l 368 755 q 537 746 461 755 q 668 709 613 737 q 753 628 723 682 q 783 486 783 575 q 750 343 783 394 q 659 269 717 292 q 527 241 602 246 q 368 236 452 236 l 166 236 l 166 52 q 161 16 166 32 q 140 0 156 0 m 166 278 l 368 278 q 571 291 492 278 q 687 347 650 303 q 725 486 725 391 q 687 629 725 581 q 570 694 649 677 q 368 711 491 711 l 166 711 l 166 278 z "},"Þ":{"ha":699,"x_min":109,"x_max":671,"o":"m 140 0 q 114 15 120 0 q 109 52 109 31 l 109 701 q 114 738 109 722 q 140 753 120 753 q 161 737 156 753 q 166 701 166 721 l 166 606 l 334 606 q 504 588 438 606 q 606 538 570 570 q 657 469 643 507 q 671 390 671 431 q 657 313 671 351 q 608 245 644 275 q 506 197 572 215 q 334 179 439 179 l 166 179 l 166 52 q 161 16 166 32 q 140 0 156 0 m 166 224 l 334 224 q 482 238 426 224 q 567 276 538 252 q 606 330 596 300 q 616 391 616 359 q 606 453 616 422 q 566 508 595 484 q 480 547 536 532 q 334 562 425 562 l 166 562 l 166 224 z "},"Q":{"ha":1163,"x_min":83,"x_max":1080,"o":"m 709 -142 q 689 -129 694 -142 q 681 -102 684 -117 l 663 -12 q 623 -13 644 -12 q 581 -14 603 -14 q 203 83 323 -14 q 83 378 83 180 q 203 673 83 576 q 581 770 323 770 q 959 673 839 770 q 1080 378 1080 576 q 990 111 1080 207 q 711 -7 901 16 l 728 -90 q 731 -106 730 -98 q 732 -119 732 -113 q 709 -142 732 -142 m 581 31 q 653 33 618 31 l 645 74 q 642 89 644 81 q 641 102 641 96 q 646 119 641 111 q 665 127 651 127 q 685 114 680 127 q 692 85 690 102 l 702 37 q 943 136 863 56 q 1022 378 1022 216 q 913 646 1022 567 q 581 725 804 725 q 250 646 359 725 q 141 378 141 567 q 250 110 141 189 q 581 31 359 31 z "},"R":{"ha":852,"x_min":109,"x_max":774,"o":"m 141 0 q 115 15 121 0 q 109 52 109 31 l 109 730 q 112 753 109 750 q 134 755 115 755 l 331 755 q 506 750 426 755 q 647 724 587 745 q 741 655 707 703 q 774 521 774 607 q 748 419 774 459 q 680 355 722 378 q 587 322 637 332 q 487 309 536 311 l 736 47 q 748 22 748 35 q 725 0 748 0 q 709 4 718 0 q 692 16 701 7 l 420 307 l 167 307 l 167 52 q 162 16 167 32 q 141 0 157 0 m 167 351 l 421 351 q 567 362 500 351 q 675 410 634 374 q 716 521 716 446 q 672 651 716 611 q 542 701 628 690 q 331 711 456 711 l 167 711 l 167 351 z "},"Ŕ":{"ha":852,"x_min":109,"x_max":774,"o":"m 141 0 q 115 15 121 0 q 109 52 109 31 l 109 730 q 112 753 109 750 q 134 755 115 755 l 331 755 q 506 750 426 755 q 647 724 587 745 q 741 655 707 703 q 774 521 774 607 q 748 419 774 459 q 680 355 722 378 q 587 322 637 332 q 487 309 536 311 l 736 47 q 748 22 748 35 q 725 0 748 0 q 709 4 718 0 q 692 16 701 7 l 420 307 l 167 307 l 167 52 q 162 16 167 32 q 141 0 157 0 m 167 351 l 421 351 q 567 362 500 351 q 675 410 634 374 q 716 521 716 446 q 672 651 716 611 q 542 701 628 690 q 331 711 456 711 l 167 711 l 167 351 m 387 851 q 368 869 368 851 q 374 881 368 876 l 545 1068 q 562 1076 552 1076 q 587 1063 576 1076 q 598 1036 598 1051 q 588 1017 598 1025 l 397 854 q 387 851 392 851 z "},"Ř":{"ha":852,"x_min":109,"x_max":774,"o":"m 141 0 q 115 15 121 0 q 109 52 109 31 l 109 730 q 112 753 109 750 q 134 755 115 755 l 331 755 q 506 750 426 755 q 647 724 587 745 q 741 655 707 703 q 774 521 774 607 q 748 419 774 459 q 680 355 722 378 q 587 322 637 332 q 487 309 536 311 l 736 47 q 748 22 748 35 q 725 0 748 0 q 709 4 718 0 q 692 16 701 7 l 420 307 l 167 307 l 167 52 q 162 16 167 32 q 141 0 157 0 m 167 351 l 421 351 q 567 362 500 351 q 675 410 634 374 q 716 521 716 446 q 672 651 716 611 q 542 701 628 690 q 331 711 456 711 l 167 711 l 167 351 m 439 852 q 404 878 420 852 l 311 1029 q 311 1050 304 1042 q 330 1058 319 1058 q 367 1030 352 1058 l 439 889 l 511 1030 q 548 1058 526 1058 q 567 1050 559 1058 q 567 1029 574 1042 l 475 878 q 439 852 458 852 z "},"Ŗ":{"ha":852,"x_min":109,"x_max":774,"o":"m 141 0 q 115 15 121 0 q 109 52 109 31 l 109 730 q 112 753 109 750 q 134 755 115 755 l 331 755 q 506 750 426 755 q 647 724 587 745 q 741 655 707 703 q 774 521 774 607 q 748 419 774 459 q 680 355 722 378 q 587 322 637 332 q 487 309 536 311 l 736 47 q 748 22 748 35 q 725 0 748 0 q 709 4 718 0 q 692 16 701 7 l 420 307 l 167 307 l 167 52 q 162 16 167 32 q 141 0 157 0 m 167 351 l 421 351 q 567 362 500 351 q 675 410 634 374 q 716 521 716 446 q 672 651 716 611 q 542 701 628 690 q 331 711 456 711 l 167 711 l 167 351 m 396 -240 q 380 -227 380 -240 q 394 -216 380 -216 q 434 -180 434 -214 q 426 -168 434 -172 q 409 -155 419 -165 q 399 -125 399 -145 q 413 -95 399 -105 q 446 -85 427 -85 q 477 -97 462 -85 q 492 -135 492 -109 q 466 -205 492 -170 q 396 -240 440 -240 z "},"Ȑ":{"ha":852,"x_min":109,"x_max":774,"o":"m 141 0 q 115 15 121 0 q 109 52 109 31 l 109 730 q 112 753 109 750 q 134 755 115 755 l 331 755 q 506 750 426 755 q 647 724 587 745 q 741 655 707 703 q 774 521 774 607 q 748 419 774 459 q 680 355 722 378 q 587 322 637 332 q 487 309 536 311 l 736 47 q 748 22 748 35 q 725 0 748 0 q 709 4 718 0 q 692 16 701 7 l 420 307 l 167 307 l 167 52 q 162 16 167 32 q 141 0 157 0 m 167 351 l 421 351 q 567 362 500 351 q 675 410 634 374 q 716 521 716 446 q 672 651 716 611 q 542 701 628 690 q 331 711 456 711 l 167 711 l 167 351 m 528 852 q 518 855 523 852 l 327 1018 q 317 1037 317 1026 q 326 1059 317 1049 q 347 1069 334 1069 q 363 1062 356 1069 l 541 882 q 547 869 547 876 q 528 852 547 852 m 374 852 q 363 855 368 852 l 172 1018 q 162 1037 162 1026 q 171 1059 162 1049 q 192 1069 180 1069 q 209 1062 201 1069 l 387 882 q 392 869 392 876 q 374 852 392 852 z "},"Ȓ":{"ha":852,"x_min":109,"x_max":774,"o":"m 141 0 q 115 15 121 0 q 109 52 109 31 l 109 730 q 112 753 109 750 q 134 755 115 755 l 331 755 q 506 750 426 755 q 647 724 587 745 q 741 655 707 703 q 774 521 774 607 q 748 419 774 459 q 680 355 722 378 q 587 322 637 332 q 487 309 536 311 l 736 47 q 748 22 748 35 q 725 0 748 0 q 709 4 718 0 q 692 16 701 7 l 420 307 l 167 307 l 167 52 q 162 16 167 32 q 141 0 157 0 m 167 351 l 421 351 q 567 362 500 351 q 675 410 634 374 q 716 521 716 446 q 672 651 716 611 q 542 701 628 690 q 331 711 456 711 l 167 711 l 167 351 m 332 852 q 313 862 317 852 q 309 883 309 872 q 321 939 309 910 q 362 987 334 967 q 439 1006 391 1006 q 517 987 488 1006 q 557 939 545 967 q 570 883 570 910 q 566 862 570 872 q 547 852 562 852 q 530 861 534 852 q 526 883 526 870 q 507 943 526 914 q 439 971 488 971 q 372 943 391 971 q 353 883 353 914 q 349 861 353 870 q 332 852 345 852 z "},"S":{"ha":1044,"x_min":75,"x_max":968,"o":"m 562 -14 q 372 -1 466 -14 q 206 28 278 11 q 101 61 134 46 q 83 87 83 70 q 100 107 83 107 q 110 105 105 107 q 219 74 145 91 q 386 44 293 56 q 572 31 479 31 q 740 48 663 31 q 863 104 817 64 q 910 211 910 143 q 875 295 910 264 q 780 340 840 325 q 646 361 720 355 q 492 370 572 367 q 339 380 413 373 q 205 406 264 388 q 110 458 145 423 q 75 553 75 494 q 110 660 75 618 q 203 727 144 703 q 336 760 262 751 q 486 770 409 770 q 649 760 570 770 q 791 734 728 750 q 889 703 854 719 q 900 684 900 698 q 893 667 900 675 q 876 659 887 659 q 864 661 869 659 q 692 708 793 691 q 488 725 591 725 q 313 710 395 725 q 182 659 232 695 q 132 557 132 622 q 168 484 132 510 q 262 446 203 458 q 396 428 322 433 q 550 419 471 423 q 704 405 629 414 q 838 374 778 395 q 932 314 897 353 q 968 211 968 275 q 934 102 968 146 q 843 34 901 59 q 713 -3 785 8 q 562 -14 640 -14 z "},"Ś":{"ha":1044,"x_min":75,"x_max":968,"o":"m 562 -14 q 372 -1 466 -14 q 206 28 278 11 q 101 61 134 46 q 83 87 83 70 q 100 107 83 107 q 110 105 105 107 q 219 74 145 91 q 386 44 293 56 q 572 31 479 31 q 740 48 663 31 q 863 104 817 64 q 910 211 910 143 q 875 295 910 264 q 780 340 840 325 q 646 361 720 355 q 492 370 572 367 q 339 380 413 373 q 205 406 264 388 q 110 458 145 423 q 75 553 75 494 q 110 660 75 618 q 203 727 144 703 q 336 760 262 751 q 486 770 409 770 q 649 760 570 770 q 791 734 728 750 q 889 703 854 719 q 900 684 900 698 q 893 667 900 675 q 876 659 887 659 q 864 661 869 659 q 692 708 793 691 q 488 725 591 725 q 313 710 395 725 q 182 659 232 695 q 132 557 132 622 q 168 484 132 510 q 262 446 203 458 q 396 428 322 433 q 550 419 471 423 q 704 405 629 414 q 838 374 778 395 q 932 314 897 353 q 968 211 968 275 q 934 102 968 146 q 843 34 901 59 q 713 -3 785 8 q 562 -14 640 -14 m 469 851 q 451 869 451 851 q 456 881 451 876 l 627 1068 q 644 1076 635 1076 q 670 1063 659 1076 q 681 1036 681 1051 q 671 1017 681 1025 l 479 854 q 469 851 475 851 z "},"Š":{"ha":1044,"x_min":75,"x_max":968,"o":"m 562 -14 q 372 -1 466 -14 q 206 28 278 11 q 101 61 134 46 q 83 87 83 70 q 100 107 83 107 q 110 105 105 107 q 219 74 145 91 q 386 44 293 56 q 572 31 479 31 q 740 48 663 31 q 863 104 817 64 q 910 211 910 143 q 875 295 910 264 q 780 340 840 325 q 646 361 720 355 q 492 370 572 367 q 339 380 413 373 q 205 406 264 388 q 110 458 145 423 q 75 553 75 494 q 110 660 75 618 q 203 727 144 703 q 336 760 262 751 q 486 770 409 770 q 649 760 570 770 q 791 734 728 750 q 889 703 854 719 q 900 684 900 698 q 893 667 900 675 q 876 659 887 659 q 864 661 869 659 q 692 708 793 691 q 488 725 591 725 q 313 710 395 725 q 182 659 232 695 q 132 557 132 622 q 168 484 132 510 q 262 446 203 458 q 396 428 322 433 q 550 419 471 423 q 704 405 629 414 q 838 374 778 395 q 932 314 897 353 q 968 211 968 275 q 934 102 968 146 q 843 34 901 59 q 713 -3 785 8 q 562 -14 640 -14 m 522 852 q 486 878 503 852 l 394 1029 q 394 1050 387 1042 q 413 1058 401 1058 q 450 1030 435 1058 l 522 889 l 594 1030 q 631 1058 608 1058 q 650 1050 642 1058 q 650 1029 657 1042 l 558 878 q 522 852 541 852 z "},"Ş":{"ha":1044,"x_min":75,"x_max":968,"o":"m 562 -14 q 372 -1 466 -14 q 206 28 278 11 q 101 61 134 46 q 83 87 83 70 q 100 107 83 107 q 110 105 105 107 q 219 74 145 91 q 386 44 293 56 q 572 31 479 31 q 740 48 663 31 q 863 104 817 64 q 910 211 910 143 q 875 295 910 264 q 780 340 840 325 q 646 361 720 355 q 492 370 572 367 q 339 380 413 373 q 205 406 264 388 q 110 458 145 423 q 75 553 75 494 q 110 660 75 618 q 203 727 144 703 q 336 760 262 751 q 486 770 409 770 q 649 760 570 770 q 791 734 728 750 q 889 703 854 719 q 900 684 900 698 q 893 667 900 675 q 876 659 887 659 q 864 661 869 659 q 692 708 793 691 q 488 725 591 725 q 313 710 395 725 q 182 659 232 695 q 132 557 132 622 q 168 484 132 510 q 262 446 203 458 q 396 428 322 433 q 550 419 471 423 q 704 405 629 414 q 838 374 778 395 q 932 314 897 353 q 968 211 968 275 q 934 102 968 146 q 843 34 901 59 q 713 -3 785 8 q 562 -14 640 -14 m 408 -220 q 389 -213 396 -220 q 381 -196 381 -205 q 388 -178 381 -188 l 517 7 q 534 20 526 20 q 547 5 547 20 q 544 -5 547 -1 l 437 -196 q 422 -215 429 -210 q 408 -220 415 -220 z "},"Ș":{"ha":1044,"x_min":75,"x_max":968,"o":"m 562 -14 q 372 -1 466 -14 q 206 28 278 11 q 101 61 134 46 q 83 87 83 70 q 100 107 83 107 q 110 105 105 107 q 219 74 145 91 q 386 44 293 56 q 572 31 479 31 q 740 48 663 31 q 863 104 817 64 q 910 211 910 143 q 875 295 910 264 q 780 340 840 325 q 646 361 720 355 q 492 370 572 367 q 339 380 413 373 q 205 406 264 388 q 110 458 145 423 q 75 553 75 494 q 110 660 75 618 q 203 727 144 703 q 336 760 262 751 q 486 770 409 770 q 649 760 570 770 q 791 734 728 750 q 889 703 854 719 q 900 684 900 698 q 893 667 900 675 q 876 659 887 659 q 864 661 869 659 q 692 708 793 691 q 488 725 591 725 q 313 710 395 725 q 182 659 232 695 q 132 557 132 622 q 168 484 132 510 q 262 446 203 458 q 396 428 322 433 q 550 419 471 423 q 704 405 629 414 q 838 374 778 395 q 932 314 897 353 q 968 211 968 275 q 934 102 968 146 q 843 34 901 59 q 713 -3 785 8 q 562 -14 640 -14 m 478 -240 q 462 -227 462 -240 q 476 -216 462 -216 q 516 -180 516 -214 q 508 -168 516 -172 q 491 -155 501 -165 q 481 -125 481 -145 q 495 -95 481 -105 q 528 -85 509 -85 q 559 -97 544 -85 q 574 -135 574 -109 q 548 -205 574 -170 q 478 -240 522 -240 z "},"ẞ":{"ha":889,"x_min":109,"x_max":781,"o":"m 136 -203 q 112 -200 115 -203 q 109 -178 109 -196 l 109 847 q 115 878 109 865 q 140 891 121 891 l 753 891 q 777 887 774 891 q 781 866 781 884 l 781 -159 q 774 -190 781 -177 q 749 -203 768 -203 l 136 -203 m 163 -158 l 726 -158 l 726 846 l 163 846 l 163 -158 z "},"T":{"ha":911,"x_min":12,"x_max":899,"o":"m 457 0 q 434 15 439 0 q 428 50 428 31 l 428 711 l 62 711 q 28 712 43 711 q 12 730 12 713 q 29 753 12 750 q 62 755 45 755 l 850 755 q 884 753 869 755 q 899 730 899 750 q 884 712 899 713 q 850 711 869 711 l 486 711 l 486 50 q 481 15 486 31 q 457 0 477 0 z "},"Ť":{"ha":911,"x_min":12,"x_max":899,"o":"m 457 0 q 434 15 439 0 q 428 50 428 31 l 428 711 l 62 711 q 28 712 43 711 q 12 730 12 713 q 29 753 12 750 q 62 755 45 755 l 850 755 q 884 753 869 755 q 899 730 899 750 q 884 712 899 713 q 850 711 869 711 l 486 711 l 486 50 q 481 15 486 31 q 457 0 477 0 m 456 852 q 420 878 436 852 l 328 1029 q 328 1050 320 1042 q 347 1058 335 1058 q 383 1030 368 1058 l 456 889 l 528 1030 q 564 1058 542 1058 q 583 1050 576 1058 q 583 1029 591 1042 l 492 878 q 456 852 475 852 z "},"Ţ":{"ha":911,"x_min":12,"x_max":899,"o":"m 457 0 q 434 15 439 0 q 428 50 428 31 l 428 711 l 62 711 q 28 712 43 711 q 12 730 12 713 q 29 753 12 750 q 62 755 45 755 l 850 755 q 884 753 869 755 q 899 730 899 750 q 884 712 899 713 q 850 711 869 711 l 486 711 l 486 50 q 481 15 486 31 q 457 0 477 0 m 335 -220 q 316 -213 323 -220 q 309 -196 309 -205 q 315 -178 309 -188 l 444 7 q 462 20 453 20 q 474 5 474 20 q 471 -5 474 -1 l 365 -196 q 350 -215 357 -210 q 335 -220 342 -220 z "},"Ț":{"ha":911,"x_min":12,"x_max":899,"o":"m 457 0 q 434 15 439 0 q 428 50 428 31 l 428 711 l 62 711 q 28 712 43 711 q 12 730 12 713 q 29 753 12 750 q 62 755 45 755 l 850 755 q 884 753 869 755 q 899 730 899 750 q 884 712 899 713 q 850 711 869 711 l 486 711 l 486 50 q 481 15 486 31 q 457 0 477 0 m 406 -240 q 389 -227 389 -240 q 404 -216 389 -216 q 444 -180 444 -214 q 435 -168 444 -172 q 418 -155 429 -165 q 408 -125 408 -145 q 422 -95 408 -105 q 456 -85 437 -85 q 487 -97 471 -85 q 502 -135 502 -109 q 476 -205 502 -170 q 406 -240 450 -240 z "},"U":{"ha":1076,"x_min":96,"x_max":980,"o":"m 538 -14 q 206 77 317 -14 q 96 380 96 168 l 96 708 q 101 741 96 726 q 126 755 106 755 q 148 741 143 755 q 153 708 153 726 l 153 380 q 188 184 153 262 q 307 68 222 106 q 538 31 391 31 q 770 68 686 31 q 888 184 854 106 q 922 380 922 262 l 922 708 q 928 741 922 726 q 950 755 933 755 q 975 741 970 755 q 980 708 980 726 l 980 380 q 870 77 980 168 q 538 -14 760 -14 z "},"Ú":{"ha":1076,"x_min":96,"x_max":980,"o":"m 538 -14 q 206 77 317 -14 q 96 380 96 168 l 96 708 q 101 741 96 726 q 126 755 106 755 q 148 741 143 755 q 153 708 153 726 l 153 380 q 188 184 153 262 q 307 68 222 106 q 538 31 391 31 q 770 68 686 31 q 888 184 854 106 q 922 380 922 262 l 922 708 q 928 741 922 726 q 950 755 933 755 q 975 741 970 755 q 980 708 980 726 l 980 380 q 870 77 980 168 q 538 -14 760 -14 m 485 851 q 467 869 467 851 q 472 881 467 876 l 643 1068 q 660 1076 650 1076 q 686 1063 675 1076 q 696 1036 696 1051 q 686 1017 696 1025 l 495 854 q 485 851 490 851 z "},"Ŭ":{"ha":1076,"x_min":96,"x_max":980,"o":"m 538 -14 q 206 77 317 -14 q 96 380 96 168 l 96 708 q 101 741 96 726 q 126 755 106 755 q 148 741 143 755 q 153 708 153 726 l 153 380 q 188 184 153 262 q 307 68 222 106 q 538 31 391 31 q 770 68 686 31 q 888 184 854 106 q 922 380 922 262 l 922 708 q 928 741 922 726 q 950 755 933 755 q 975 741 970 755 q 980 708 980 726 l 980 380 q 870 77 980 168 q 538 -14 760 -14 m 538 852 q 460 871 490 852 q 418 920 431 891 q 406 975 406 948 q 410 997 406 987 q 431 1006 414 1006 q 449 997 445 1006 q 453 975 453 988 q 471 917 453 944 q 538 890 489 890 q 605 917 587 890 q 623 975 623 944 q 627 997 623 988 q 645 1006 631 1006 q 666 997 661 1006 q 670 975 670 987 q 657 920 670 948 q 615 871 644 891 q 538 852 587 852 z "},"Û":{"ha":1076,"x_min":96,"x_max":980,"o":"m 538 -14 q 206 77 317 -14 q 96 380 96 168 l 96 708 q 101 741 96 726 q 126 755 106 755 q 148 741 143 755 q 153 708 153 726 l 153 380 q 188 184 153 262 q 307 68 222 106 q 538 31 391 31 q 770 68 686 31 q 888 184 854 106 q 922 380 922 262 l 922 708 q 928 741 922 726 q 950 755 933 755 q 975 741 970 755 q 980 708 980 726 l 980 380 q 870 77 980 168 q 538 -14 760 -14 m 429 852 q 410 860 417 852 q 410 880 402 868 l 502 1032 q 538 1058 518 1058 q 574 1032 557 1058 l 665 880 q 665 860 673 868 q 646 852 658 852 q 610 880 624 852 l 538 1021 l 465 880 q 429 852 450 852 z "},"Ȕ":{"ha":1076,"x_min":96,"x_max":980,"o":"m 538 -14 q 206 77 317 -14 q 96 380 96 168 l 96 708 q 101 741 96 726 q 126 755 106 755 q 148 741 143 755 q 153 708 153 726 l 153 380 q 188 184 153 262 q 307 68 222 106 q 538 31 391 31 q 770 68 686 31 q 888 184 854 106 q 922 380 922 262 l 922 708 q 928 741 922 726 q 950 755 933 755 q 975 741 970 755 q 980 708 980 726 l 980 380 q 870 77 980 168 q 538 -14 760 -14 m 627 852 q 616 855 621 852 l 425 1018 q 415 1037 415 1026 q 424 1059 415 1049 q 445 1069 433 1069 q 462 1062 454 1069 l 640 882 q 645 869 645 876 q 627 852 645 852 m 472 852 q 462 855 467 852 l 271 1018 q 260 1037 260 1026 q 269 1059 260 1049 q 290 1069 278 1069 q 307 1062 300 1069 l 485 882 q 490 869 490 876 q 472 852 490 852 z "},"Ü":{"ha":1076,"x_min":96,"x_max":980,"o":"m 538 -14 q 206 77 317 -14 q 96 380 96 168 l 96 708 q 101 741 96 726 q 126 755 106 755 q 148 741 143 755 q 153 708 153 726 l 153 380 q 188 184 153 262 q 307 68 222 106 q 538 31 391 31 q 770 68 686 31 q 888 184 854 106 q 922 380 922 262 l 922 708 q 928 741 922 726 q 950 755 933 755 q 975 741 970 755 q 980 708 980 726 l 980 380 q 870 77 980 168 q 538 -14 760 -14 m 672 873 q 644 884 654 873 q 633 911 633 895 q 644 940 633 929 q 672 951 654 951 q 701 940 689 951 q 713 911 713 929 q 701 884 713 895 q 672 873 689 873 m 401 873 q 373 884 384 873 q 362 911 362 895 q 373 940 362 929 q 401 951 384 951 q 430 940 418 951 q 442 911 442 929 q 430 884 442 895 q 401 873 418 873 z "},"Ù":{"ha":1076,"x_min":96,"x_max":980,"o":"m 538 -14 q 206 77 317 -14 q 96 380 96 168 l 96 708 q 101 741 96 726 q 126 755 106 755 q 148 741 143 755 q 153 708 153 726 l 153 380 q 188 184 153 262 q 307 68 222 106 q 538 31 391 31 q 770 68 686 31 q 888 184 854 106 q 922 380 922 262 l 922 708 q 928 741 922 726 q 950 755 933 755 q 975 741 970 755 q 980 708 980 726 l 980 380 q 870 77 980 168 q 538 -14 760 -14 m 591 852 q 581 856 585 852 l 389 1019 q 379 1038 379 1027 q 390 1065 379 1053 q 416 1077 401 1077 q 433 1069 425 1077 l 604 882 q 609 870 609 877 q 591 852 609 852 z "},"Ű":{"ha":1076,"x_min":96,"x_max":980,"o":"m 538 -14 q 206 77 317 -14 q 96 380 96 168 l 96 708 q 101 741 96 726 q 126 755 106 755 q 148 741 143 755 q 153 708 153 726 l 153 380 q 188 184 153 262 q 307 68 222 106 q 538 31 391 31 q 770 68 686 31 q 888 184 854 106 q 922 380 922 262 l 922 708 q 928 741 922 726 q 950 755 933 755 q 975 741 970 755 q 980 708 980 726 l 980 380 q 870 77 980 168 q 538 -14 760 -14 m 610 850 q 591 868 591 850 q 597 880 591 875 l 776 1061 q 793 1068 783 1068 q 817 1057 805 1068 q 828 1034 828 1046 q 818 1015 828 1023 l 620 854 q 610 850 615 850 m 455 850 q 437 868 437 850 q 442 880 437 875 l 621 1061 q 638 1068 629 1068 q 662 1057 650 1068 q 673 1034 673 1046 q 663 1015 673 1023 l 465 854 q 455 850 460 850 z "},"Ȗ":{"ha":1076,"x_min":96,"x_max":980,"o":"m 538 -14 q 206 77 317 -14 q 96 380 96 168 l 96 708 q 101 741 96 726 q 126 755 106 755 q 148 741 143 755 q 153 708 153 726 l 153 380 q 188 184 153 262 q 307 68 222 106 q 538 31 391 31 q 770 68 686 31 q 888 184 854 106 q 922 380 922 262 l 922 708 q 928 741 922 726 q 950 755 933 755 q 975 741 970 755 q 980 708 980 726 l 980 380 q 870 77 980 168 q 538 -14 760 -14 m 431 852 q 412 862 416 852 q 408 883 408 872 q 420 939 408 910 q 461 987 432 967 q 538 1006 490 1006 q 615 987 587 1006 q 656 939 644 967 q 668 883 668 910 q 664 862 668 872 q 645 852 660 852 q 628 861 632 852 q 625 883 625 870 q 606 943 625 914 q 538 971 587 971 q 470 943 489 971 q 451 883 451 914 q 447 861 451 870 q 431 852 444 852 z "},"Ū":{"ha":1076,"x_min":96,"x_max":980,"o":"m 538 -14 q 206 77 317 -14 q 96 380 96 168 l 96 708 q 101 741 96 726 q 126 755 106 755 q 148 741 143 755 q 153 708 153 726 l 153 380 q 188 184 153 262 q 307 68 222 106 q 538 31 391 31 q 770 68 686 31 q 888 184 854 106 q 922 380 922 262 l 922 708 q 928 741 922 726 q 950 755 933 755 q 975 741 970 755 q 980 708 980 726 l 980 380 q 870 77 980 168 q 538 -14 760 -14 m 422 863 q 405 871 410 863 q 400 884 400 879 q 405 899 400 890 q 422 907 410 907 l 654 907 q 671 899 666 907 q 675 884 675 890 q 671 871 675 879 q 654 863 666 863 l 422 863 z "},"Ų":{"ha":1076,"x_min":96,"x_max":980,"o":"m 538 -14 q 206 77 317 -14 q 96 380 96 168 l 96 708 q 101 741 96 726 q 126 755 106 755 q 148 741 143 755 q 153 708 153 726 l 153 380 q 188 184 153 262 q 307 68 222 106 q 538 31 391 31 q 770 68 686 31 q 888 184 854 106 q 922 380 922 262 l 922 708 q 928 741 922 726 q 950 755 933 755 q 975 741 970 755 q 980 708 980 726 l 980 380 q 870 77 980 168 q 538 -14 760 -14 m 505 -200 q 461 -185 482 -200 q 441 -134 441 -170 q 466 -70 441 -102 q 528 -7 490 -38 l 549 -7 q 513 -63 525 -35 q 501 -113 501 -92 q 513 -152 501 -141 q 536 -162 525 -162 q 562 -155 549 -162 q 584 -142 575 -147 l 591 -148 q 555 -186 579 -172 q 505 -200 531 -200 z "},"Ů":{"ha":1076,"x_min":96,"x_max":980,"o":"m 538 -14 q 206 77 317 -14 q 96 380 96 168 l 96 708 q 101 741 96 726 q 126 755 106 755 q 148 741 143 755 q 153 708 153 726 l 153 380 q 188 184 153 262 q 307 68 222 106 q 538 31 391 31 q 770 68 686 31 q 888 184 854 106 q 922 380 922 262 l 922 708 q 928 741 922 726 q 950 755 933 755 q 975 741 970 755 q 980 708 980 726 l 980 380 q 870 77 980 168 q 538 -14 760 -14 m 538 852 q 482 874 506 852 q 458 928 458 896 q 481 983 458 961 q 538 1005 504 1005 q 594 983 570 1005 q 617 928 617 961 q 594 874 617 896 q 538 852 570 852 m 538 886 q 568 899 555 886 q 580 928 580 911 q 568 958 580 947 q 538 970 555 970 q 509 958 521 970 q 496 928 496 947 q 509 899 496 911 q 538 886 521 886 z "},"Ũ":{"ha":1076,"x_min":96,"x_max":980,"o":"m 538 -14 q 206 77 317 -14 q 96 380 96 168 l 96 708 q 101 741 96 726 q 126 755 106 755 q 148 741 143 755 q 153 708 153 726 l 153 380 q 188 184 153 262 q 307 68 222 106 q 538 31 391 31 q 770 68 686 31 q 888 184 854 106 q 922 380 922 262 l 922 708 q 928 741 922 726 q 950 755 933 755 q 975 741 970 755 q 980 708 980 726 l 980 380 q 870 77 980 168 q 538 -14 760 -14 m 404 852 q 385 862 389 852 q 381 883 381 872 q 396 932 381 912 q 448 951 411 951 q 515 937 486 951 q 572 906 545 922 q 627 891 599 891 q 644 897 637 891 q 651 921 651 902 q 655 942 651 933 q 671 951 659 951 q 690 942 686 951 q 694 920 694 932 q 679 871 694 891 q 627 852 664 852 q 566 867 602 852 q 498 897 531 882 q 448 912 466 912 q 431 907 438 912 q 424 882 424 901 q 420 861 424 870 q 404 852 416 852 z "},"V":{"ha":968,"x_min":39,"x_max":928,"o":"m 484 0 q 449 24 463 0 l 52 698 q 43 716 47 707 q 39 732 39 724 q 45 746 39 738 q 62 755 50 755 q 81 744 73 753 q 96 722 89 734 l 484 61 l 871 722 q 887 744 879 734 q 905 755 895 753 q 923 747 918 755 q 928 731 928 739 q 924 715 928 724 q 914 698 920 707 l 519 24 q 484 0 505 0 z "},"W":{"ha":1215,"x_min":68,"x_max":1146,"o":"m 349 0 q 329 10 335 0 q 317 36 322 20 l 78 700 q 72 718 75 709 q 68 733 68 726 q 74 748 68 741 q 93 755 79 755 q 113 744 106 755 q 124 718 119 732 l 349 85 l 575 718 q 587 744 581 732 q 606 755 593 755 q 628 745 621 755 q 640 718 634 735 l 865 85 l 1092 718 q 1104 744 1097 732 q 1122 755 1111 755 q 1141 748 1136 755 q 1146 733 1146 741 q 1144 718 1146 726 q 1138 700 1141 709 l 899 36 q 885 10 891 20 q 865 0 879 0 q 845 10 852 0 q 833 36 839 20 l 607 665 l 382 36 q 369 10 376 20 q 349 0 361 0 z "},"Ẃ":{"ha":1215,"x_min":68,"x_max":1146,"o":"m 349 0 q 329 10 335 0 q 317 36 322 20 l 78 700 q 72 718 75 709 q 68 733 68 726 q 74 748 68 741 q 93 755 79 755 q 113 744 106 755 q 124 718 119 732 l 349 85 l 575 718 q 587 744 581 732 q 606 755 593 755 q 628 745 621 755 q 640 718 634 735 l 865 85 l 1092 718 q 1104 744 1097 732 q 1122 755 1111 755 q 1141 748 1136 755 q 1146 733 1146 741 q 1144 718 1146 726 q 1138 700 1141 709 l 899 36 q 885 10 891 20 q 865 0 879 0 q 845 10 852 0 q 833 36 839 20 l 607 665 l 382 36 q 369 10 376 20 q 349 0 361 0 m 555 851 q 536 869 536 851 q 542 881 536 876 l 713 1068 q 730 1076 720 1076 q 755 1063 745 1076 q 766 1036 766 1051 q 756 1017 766 1025 l 565 854 q 555 851 560 851 z "},"Ŵ":{"ha":1215,"x_min":68,"x_max":1146,"o":"m 349 0 q 329 10 335 0 q 317 36 322 20 l 78 700 q 72 718 75 709 q 68 733 68 726 q 74 748 68 741 q 93 755 79 755 q 113 744 106 755 q 124 718 119 732 l 349 85 l 575 718 q 587 744 581 732 q 606 755 593 755 q 628 745 621 755 q 640 718 634 735 l 865 85 l 1092 718 q 1104 744 1097 732 q 1122 755 1111 755 q 1141 748 1136 755 q 1146 733 1146 741 q 1144 718 1146 726 q 1138 700 1141 709 l 899 36 q 885 10 891 20 q 865 0 879 0 q 845 10 852 0 q 833 36 839 20 l 607 665 l 382 36 q 369 10 376 20 q 349 0 361 0 m 498 852 q 479 860 487 852 q 479 880 472 868 l 572 1032 q 608 1058 588 1058 q 644 1032 627 1058 l 735 880 q 735 860 743 868 q 716 852 728 852 q 680 880 694 852 l 608 1021 l 535 880 q 498 852 520 852 z "},"Ẅ":{"ha":1215,"x_min":68,"x_max":1146,"o":"m 349 0 q 329 10 335 0 q 317 36 322 20 l 78 700 q 72 718 75 709 q 68 733 68 726 q 74 748 68 741 q 93 755 79 755 q 113 744 106 755 q 124 718 119 732 l 349 85 l 575 718 q 587 744 581 732 q 606 755 593 755 q 628 745 621 755 q 640 718 634 735 l 865 85 l 1092 718 q 1104 744 1097 732 q 1122 755 1111 755 q 1141 748 1136 755 q 1146 733 1146 741 q 1144 718 1146 726 q 1138 700 1141 709 l 899 36 q 885 10 891 20 q 865 0 879 0 q 845 10 852 0 q 833 36 839 20 l 607 665 l 382 36 q 369 10 376 20 q 349 0 361 0 m 742 873 q 713 884 724 873 q 703 911 703 895 q 713 940 703 929 q 742 951 724 951 q 771 940 759 951 q 783 911 783 929 q 771 884 783 895 q 742 873 759 873 m 471 873 q 443 884 454 873 q 432 911 432 895 q 443 940 432 929 q 471 951 454 951 q 500 940 488 951 q 512 911 512 929 q 500 884 512 895 q 471 873 488 873 z "},"Ẁ":{"ha":1215,"x_min":68,"x_max":1146,"o":"m 349 0 q 329 10 335 0 q 317 36 322 20 l 78 700 q 72 718 75 709 q 68 733 68 726 q 74 748 68 741 q 93 755 79 755 q 113 744 106 755 q 124 718 119 732 l 349 85 l 575 718 q 587 744 581 732 q 606 755 593 755 q 628 745 621 755 q 640 718 634 735 l 865 85 l 1092 718 q 1104 744 1097 732 q 1122 755 1111 755 q 1141 748 1136 755 q 1146 733 1146 741 q 1144 718 1146 726 q 1138 700 1141 709 l 899 36 q 885 10 891 20 q 865 0 879 0 q 845 10 852 0 q 833 36 839 20 l 607 665 l 382 36 q 369 10 376 20 q 349 0 361 0 m 661 852 q 650 856 655 852 l 459 1019 q 449 1038 449 1027 q 460 1065 449 1053 q 486 1077 471 1077 q 503 1069 495 1077 l 673 882 q 679 870 679 877 q 661 852 679 852 z "},"X":{"ha":973,"x_min":90,"x_max":882,"o":"m 109 0 q 90 18 90 0 q 107 50 90 34 l 451 371 l 113 707 q 101 732 101 719 q 123 755 101 755 q 150 741 136 755 l 486 404 l 823 741 q 850 755 836 755 q 871 732 871 755 q 859 707 871 718 l 522 371 l 865 51 q 882 19 882 35 q 863 0 882 0 q 831 16 848 0 l 486 338 l 141 16 q 109 0 125 0 z "},"Y":{"ha":790,"x_min":34,"x_max":756,"o":"m 397 0 q 372 14 378 0 q 367 45 367 28 l 367 321 l 45 705 q 34 732 34 719 q 56 755 34 755 q 85 739 71 755 l 395 363 l 705 739 q 734 755 719 755 q 756 730 756 755 q 745 705 756 719 l 425 319 l 425 47 q 419 14 425 27 q 397 0 414 0 z "},"Ý":{"ha":790,"x_min":34,"x_max":756,"o":"m 397 0 q 372 14 378 0 q 367 45 367 28 l 367 321 l 45 705 q 34 732 34 719 q 56 755 34 755 q 85 739 71 755 l 395 363 l 705 739 q 734 755 719 755 q 756 730 756 755 q 745 705 756 719 l 425 319 l 425 47 q 419 14 425 27 q 397 0 414 0 m 342 851 q 324 869 324 851 q 330 881 324 876 l 500 1068 q 517 1076 508 1076 q 543 1063 532 1076 q 554 1036 554 1051 q 544 1017 554 1025 l 353 854 q 342 851 348 851 z "},"Ŷ":{"ha":790,"x_min":34,"x_max":756,"o":"m 397 0 q 372 14 378 0 q 367 45 367 28 l 367 321 l 45 705 q 34 732 34 719 q 56 755 34 755 q 85 739 71 755 l 395 363 l 705 739 q 734 755 719 755 q 756 730 756 755 q 745 705 756 719 l 425 319 l 425 47 q 419 14 425 27 q 397 0 414 0 m 286 852 q 267 860 275 852 q 267 880 260 868 l 359 1032 q 395 1058 376 1058 q 431 1032 415 1058 l 523 880 q 523 860 530 868 q 504 852 515 852 q 467 880 481 852 l 395 1021 l 323 880 q 286 852 308 852 z "},"Ÿ":{"ha":790,"x_min":34,"x_max":756,"o":"m 397 0 q 372 14 378 0 q 367 45 367 28 l 367 321 l 45 705 q 34 732 34 719 q 56 755 34 755 q 85 739 71 755 l 395 363 l 705 739 q 734 755 719 755 q 756 730 756 755 q 745 705 756 719 l 425 319 l 425 47 q 419 14 425 27 q 397 0 414 0 m 530 873 q 501 884 512 873 q 490 911 490 895 q 501 940 490 929 q 530 951 512 951 q 558 940 547 951 q 570 911 570 929 q 558 884 570 895 q 530 873 547 873 m 259 873 q 231 884 241 873 q 220 911 220 895 q 231 940 220 929 q 259 951 241 951 q 288 940 276 951 q 300 911 300 929 q 288 884 300 895 q 259 873 276 873 z "},"Ỳ":{"ha":790,"x_min":34,"x_max":756,"o":"m 397 0 q 372 14 378 0 q 367 45 367 28 l 367 321 l 45 705 q 34 732 34 719 q 56 755 34 755 q 85 739 71 755 l 395 363 l 705 739 q 734 755 719 755 q 756 730 756 755 q 745 705 756 719 l 425 319 l 425 47 q 419 14 425 27 q 397 0 414 0 m 448 852 q 438 856 443 852 l 247 1019 q 237 1038 237 1027 q 248 1065 237 1053 q 273 1077 258 1077 q 290 1069 283 1077 l 461 882 q 467 870 467 877 q 448 852 467 852 z "},"Z":{"ha":905,"x_min":32,"x_max":875,"o":"m 81 0 q 44 3 56 0 q 32 24 32 6 q 37 43 32 35 q 54 60 43 50 l 789 711 l 81 711 q 58 718 66 711 q 51 733 51 724 q 58 748 51 741 q 81 755 66 755 l 819 755 q 859 752 843 755 q 875 732 875 749 q 867 713 875 722 q 852 696 860 704 l 117 45 l 822 45 q 846 38 838 45 q 854 22 854 31 q 846 7 854 14 q 822 0 838 0 l 81 0 z "},"Ź":{"ha":905,"x_min":32,"x_max":875,"o":"m 81 0 q 44 3 56 0 q 32 24 32 6 q 37 43 32 35 q 54 60 43 50 l 789 711 l 81 711 q 58 718 66 711 q 51 733 51 724 q 58 748 51 741 q 81 755 66 755 l 819 755 q 859 752 843 755 q 875 732 875 749 q 867 713 875 722 q 852 696 860 704 l 117 45 l 822 45 q 846 38 838 45 q 854 22 854 31 q 846 7 854 14 q 822 0 838 0 l 81 0 m 400 851 q 382 869 382 851 q 387 881 382 876 l 558 1068 q 575 1076 566 1076 q 601 1063 590 1076 q 612 1036 612 1051 q 602 1017 612 1025 l 410 854 q 400 851 406 851 z "},"Ž":{"ha":905,"x_min":32,"x_max":875,"o":"m 81 0 q 44 3 56 0 q 32 24 32 6 q 37 43 32 35 q 54 60 43 50 l 789 711 l 81 711 q 58 718 66 711 q 51 733 51 724 q 58 748 51 741 q 81 755 66 755 l 819 755 q 859 752 843 755 q 875 732 875 749 q 867 713 875 722 q 852 696 860 704 l 117 45 l 822 45 q 846 38 838 45 q 854 22 854 31 q 846 7 854 14 q 822 0 838 0 l 81 0 m 453 852 q 417 878 433 852 l 325 1029 q 325 1050 317 1042 q 344 1058 332 1058 q 380 1030 366 1058 l 453 889 l 525 1030 q 562 1058 539 1058 q 581 1050 573 1058 q 581 1029 588 1042 l 489 878 q 453 852 472 852 z "},"Ż":{"ha":905,"x_min":32,"x_max":875,"o":"m 81 0 q 44 3 56 0 q 32 24 32 6 q 37 43 32 35 q 54 60 43 50 l 789 711 l 81 711 q 58 718 66 711 q 51 733 51 724 q 58 748 51 741 q 81 755 66 755 l 819 755 q 859 752 843 755 q 875 732 875 749 q 867 713 875 722 q 852 696 860 704 l 117 45 l 822 45 q 846 38 838 45 q 854 22 854 31 q 846 7 854 14 q 822 0 838 0 l 81 0 m 452 873 q 424 884 435 873 q 413 911 413 895 q 424 940 413 929 q 452 951 435 951 q 481 940 469 951 q 493 911 493 929 q 481 884 493 895 q 452 873 469 873 z "},"a":{"ha":808,"x_min":91,"x_max":708,"o":"m 340 -7 q 215 9 271 -7 q 124 60 158 25 q 91 152 91 95 q 127 256 91 218 q 224 308 163 293 q 361 323 285 323 q 529 314 448 323 q 653 286 610 304 q 622 420 653 376 q 533 479 590 465 q 398 494 475 494 q 239 481 292 494 q 154 458 186 469 q 149 457 150 457 q 134 466 140 457 q 127 483 127 474 q 135 496 127 492 q 213 517 146 501 q 418 533 279 533 q 567 513 501 533 q 670 435 633 493 q 708 263 708 377 l 708 47 q 704 16 708 32 q 680 0 699 0 q 659 14 665 0 q 653 50 653 28 l 653 88 q 596 46 633 68 q 496 8 558 24 q 340 -7 435 -7 m 335 33 q 544 63 469 33 q 653 121 619 93 l 653 257 q 513 275 587 267 q 366 283 439 283 q 203 256 262 283 q 145 152 145 229 q 199 60 145 87 q 335 33 252 33 z "},"á":{"ha":808,"x_min":91,"x_max":708,"o":"m 340 -7 q 215 9 271 -7 q 124 60 158 25 q 91 152 91 95 q 127 256 91 218 q 224 308 163 293 q 361 323 285 323 q 529 314 448 323 q 653 286 610 304 q 622 420 653 376 q 533 479 590 465 q 398 494 475 494 q 239 481 292 494 q 154 458 186 469 q 149 457 150 457 q 134 466 140 457 q 127 483 127 474 q 135 496 127 492 q 213 517 146 501 q 418 533 279 533 q 567 513 501 533 q 670 435 633 493 q 708 263 708 377 l 708 47 q 704 16 708 32 q 680 0 699 0 q 659 14 665 0 q 653 50 653 28 l 653 88 q 596 46 633 68 q 496 8 558 24 q 340 -7 435 -7 m 335 33 q 544 63 469 33 q 653 121 619 93 l 653 257 q 513 275 587 267 q 366 283 439 283 q 203 256 262 283 q 145 152 145 229 q 199 60 145 87 q 335 33 252 33 m 351 615 q 333 633 333 615 q 338 645 333 640 l 509 832 q 526 840 517 840 q 552 827 541 840 q 563 800 563 815 q 553 781 563 789 l 361 618 q 351 615 357 615 z "},"ă":{"ha":808,"x_min":91,"x_max":708,"o":"m 340 -7 q 215 9 271 -7 q 124 60 158 25 q 91 152 91 95 q 127 256 91 218 q 224 308 163 293 q 361 323 285 323 q 529 314 448 323 q 653 286 610 304 q 622 420 653 376 q 533 479 590 465 q 398 494 475 494 q 239 481 292 494 q 154 458 186 469 q 149 457 150 457 q 134 466 140 457 q 127 483 127 474 q 135 496 127 492 q 213 517 146 501 q 418 533 279 533 q 567 513 501 533 q 670 435 633 493 q 708 263 708 377 l 708 47 q 704 16 708 32 q 680 0 699 0 q 659 14 665 0 q 653 50 653 28 l 653 88 q 596 46 633 68 q 496 8 558 24 q 340 -7 435 -7 m 335 33 q 544 63 469 33 q 653 121 619 93 l 653 257 q 513 275 587 267 q 366 283 439 283 q 203 256 262 283 q 145 152 145 229 q 199 60 145 87 q 335 33 252 33 m 404 616 q 327 635 356 616 q 285 684 298 655 q 272 739 272 712 q 276 761 272 751 q 297 770 281 770 q 315 761 311 770 q 319 739 319 752 q 337 681 319 708 q 404 654 355 654 q 471 681 453 654 q 489 739 489 708 q 493 761 489 752 q 511 770 497 770 q 532 761 528 770 q 536 739 536 751 q 524 684 536 712 q 482 635 511 655 q 404 616 453 616 z "},"â":{"ha":808,"x_min":91,"x_max":708,"o":"m 340 -7 q 215 9 271 -7 q 124 60 158 25 q 91 152 91 95 q 127 256 91 218 q 224 308 163 293 q 361 323 285 323 q 529 314 448 323 q 653 286 610 304 q 622 420 653 376 q 533 479 590 465 q 398 494 475 494 q 239 481 292 494 q 154 458 186 469 q 149 457 150 457 q 134 466 140 457 q 127 483 127 474 q 135 496 127 492 q 213 517 146 501 q 418 533 279 533 q 567 513 501 533 q 670 435 633 493 q 708 263 708 377 l 708 47 q 704 16 708 32 q 680 0 699 0 q 659 14 665 0 q 653 50 653 28 l 653 88 q 596 46 633 68 q 496 8 558 24 q 340 -7 435 -7 m 335 33 q 544 63 469 33 q 653 121 619 93 l 653 257 q 513 275 587 267 q 366 283 439 283 q 203 256 262 283 q 145 152 145 229 q 199 60 145 87 q 335 33 252 33 m 295 616 q 276 624 283 616 q 276 644 269 632 l 368 796 q 404 822 385 822 q 440 796 424 822 l 532 644 q 532 624 539 632 q 513 616 524 616 q 476 644 490 616 l 404 785 l 332 644 q 295 616 317 616 z "},"ȁ":{"ha":808,"x_min":91,"x_max":708,"o":"m 340 -7 q 215 9 271 -7 q 124 60 158 25 q 91 152 91 95 q 127 256 91 218 q 224 308 163 293 q 361 323 285 323 q 529 314 448 323 q 653 286 610 304 q 622 420 653 376 q 533 479 590 465 q 398 494 475 494 q 239 481 292 494 q 154 458 186 469 q 149 457 150 457 q 134 466 140 457 q 127 483 127 474 q 135 496 127 492 q 213 517 146 501 q 418 533 279 533 q 567 513 501 533 q 670 435 633 493 q 708 263 708 377 l 708 47 q 704 16 708 32 q 680 0 699 0 q 659 14 665 0 q 653 50 653 28 l 653 88 q 596 46 633 68 q 496 8 558 24 q 340 -7 435 -7 m 335 33 q 544 63 469 33 q 653 121 619 93 l 653 257 q 513 275 587 267 q 366 283 439 283 q 203 256 262 283 q 145 152 145 229 q 199 60 145 87 q 335 33 252 33 m 493 616 q 483 619 488 616 l 292 782 q 281 801 281 790 q 290 823 281 813 q 311 833 299 833 q 328 826 321 833 l 506 646 q 511 633 511 640 q 493 616 511 616 m 338 616 q 328 619 333 616 l 137 782 q 127 801 127 790 q 136 823 127 813 q 157 833 144 833 q 174 826 166 833 l 351 646 q 357 633 357 640 q 338 616 357 616 z "},"ä":{"ha":808,"x_min":91,"x_max":708,"o":"m 340 -7 q 215 9 271 -7 q 124 60 158 25 q 91 152 91 95 q 127 256 91 218 q 224 308 163 293 q 361 323 285 323 q 529 314 448 323 q 653 286 610 304 q 622 420 653 376 q 533 479 590 465 q 398 494 475 494 q 239 481 292 494 q 154 458 186 469 q 149 457 150 457 q 134 466 140 457 q 127 483 127 474 q 135 496 127 492 q 213 517 146 501 q 418 533 279 533 q 567 513 501 533 q 670 435 633 493 q 708 263 708 377 l 708 47 q 704 16 708 32 q 680 0 699 0 q 659 14 665 0 q 653 50 653 28 l 653 88 q 596 46 633 68 q 496 8 558 24 q 340 -7 435 -7 m 335 33 q 544 63 469 33 q 653 121 619 93 l 653 257 q 513 275 587 267 q 366 283 439 283 q 203 256 262 283 q 145 152 145 229 q 199 60 145 87 q 335 33 252 33 m 538 637 q 510 648 521 637 q 499 675 499 659 q 510 704 499 693 q 538 715 521 715 q 567 704 555 715 q 579 675 579 693 q 567 648 579 659 q 538 637 555 637 m 268 637 q 239 648 250 637 q 229 675 229 659 q 239 704 229 693 q 268 715 250 715 q 297 704 285 715 q 309 675 309 693 q 297 648 309 659 q 268 637 285 637 z "},"à":{"ha":808,"x_min":91,"x_max":708,"o":"m 340 -7 q 215 9 271 -7 q 124 60 158 25 q 91 152 91 95 q 127 256 91 218 q 224 308 163 293 q 361 323 285 323 q 529 314 448 323 q 653 286 610 304 q 622 420 653 376 q 533 479 590 465 q 398 494 475 494 q 239 481 292 494 q 154 458 186 469 q 149 457 150 457 q 134 466 140 457 q 127 483 127 474 q 135 496 127 492 q 213 517 146 501 q 418 533 279 533 q 567 513 501 533 q 670 435 633 493 q 708 263 708 377 l 708 47 q 704 16 708 32 q 680 0 699 0 q 659 14 665 0 q 653 50 653 28 l 653 88 q 596 46 633 68 q 496 8 558 24 q 340 -7 435 -7 m 335 33 q 544 63 469 33 q 653 121 619 93 l 653 257 q 513 275 587 267 q 366 283 439 283 q 203 256 262 283 q 145 152 145 229 q 199 60 145 87 q 335 33 252 33 m 457 616 q 447 620 452 616 l 256 783 q 245 802 245 791 q 256 829 245 817 q 282 841 267 841 q 299 833 292 841 l 470 646 q 475 634 475 641 q 457 616 475 616 z "},"ȃ":{"ha":808,"x_min":91,"x_max":708,"o":"m 340 -7 q 215 9 271 -7 q 124 60 158 25 q 91 152 91 95 q 127 256 91 218 q 224 308 163 293 q 361 323 285 323 q 529 314 448 323 q 653 286 610 304 q 622 420 653 376 q 533 479 590 465 q 398 494 475 494 q 239 481 292 494 q 154 458 186 469 q 149 457 150 457 q 134 466 140 457 q 127 483 127 474 q 135 496 127 492 q 213 517 146 501 q 418 533 279 533 q 567 513 501 533 q 670 435 633 493 q 708 263 708 377 l 708 47 q 704 16 708 32 q 680 0 699 0 q 659 14 665 0 q 653 50 653 28 l 653 88 q 596 46 633 68 q 496 8 558 24 q 340 -7 435 -7 m 335 33 q 544 63 469 33 q 653 121 619 93 l 653 257 q 513 275 587 267 q 366 283 439 283 q 203 256 262 283 q 145 152 145 229 q 199 60 145 87 q 335 33 252 33 m 297 616 q 278 626 282 616 q 274 647 274 636 q 286 703 274 674 q 327 751 298 731 q 404 770 356 770 q 481 751 453 770 q 522 703 510 731 q 534 647 534 674 q 530 626 534 636 q 511 616 526 616 q 495 625 498 616 q 491 647 491 634 q 472 707 491 678 q 404 735 453 735 q 336 707 355 735 q 317 647 317 678 q 314 625 317 634 q 297 616 310 616 z "},"ā":{"ha":808,"x_min":91,"x_max":708,"o":"m 340 -7 q 215 9 271 -7 q 124 60 158 25 q 91 152 91 95 q 127 256 91 218 q 224 308 163 293 q 361 323 285 323 q 529 314 448 323 q 653 286 610 304 q 622 420 653 376 q 533 479 590 465 q 398 494 475 494 q 239 481 292 494 q 154 458 186 469 q 149 457 150 457 q 134 466 140 457 q 127 483 127 474 q 135 496 127 492 q 213 517 146 501 q 418 533 279 533 q 567 513 501 533 q 670 435 633 493 q 708 263 708 377 l 708 47 q 704 16 708 32 q 680 0 699 0 q 659 14 665 0 q 653 50 653 28 l 653 88 q 596 46 633 68 q 496 8 558 24 q 340 -7 435 -7 m 335 33 q 544 63 469 33 q 653 121 619 93 l 653 257 q 513 275 587 267 q 366 283 439 283 q 203 256 262 283 q 145 152 145 229 q 199 60 145 87 q 335 33 252 33 m 288 627 q 271 635 276 627 q 267 648 267 643 q 271 663 267 654 q 288 671 276 671 l 520 671 q 537 663 532 671 q 542 648 542 654 q 537 635 542 643 q 520 627 532 627 l 288 627 z "},"ą":{"ha":808,"x_min":91,"x_max":727,"o":"m 340 -7 q 215 9 271 -7 q 124 60 158 25 q 91 152 91 95 q 127 256 91 218 q 224 308 163 293 q 361 323 285 323 q 529 314 448 323 q 653 286 610 304 q 622 420 653 376 q 533 479 590 465 q 398 494 475 494 q 239 481 292 494 q 154 458 186 469 q 149 457 150 457 q 134 466 140 457 q 127 483 127 474 q 135 496 127 492 q 213 517 146 501 q 418 533 279 533 q 567 513 501 533 q 670 435 633 493 q 708 263 708 377 l 708 47 q 704 16 708 32 q 680 0 699 0 q 659 14 665 0 q 653 50 653 28 l 653 88 q 596 46 633 68 q 496 8 558 24 q 340 -7 435 -7 m 335 33 q 544 63 469 33 q 653 121 619 93 l 653 257 q 513 275 587 267 q 366 283 439 283 q 203 256 262 283 q 145 152 145 229 q 199 60 145 87 q 335 33 252 33 m 642 -186 q 598 -171 618 -186 q 577 -121 577 -156 q 602 -56 577 -88 q 665 7 627 -24 l 685 7 q 649 -50 661 -21 q 637 -100 637 -78 q 649 -138 637 -127 q 672 -149 661 -149 q 699 -141 686 -149 q 720 -128 711 -134 l 727 -134 q 691 -172 715 -158 q 642 -186 667 -186 z "},"å":{"ha":808,"x_min":91,"x_max":708,"o":"m 340 -7 q 215 9 271 -7 q 124 60 158 25 q 91 152 91 95 q 127 256 91 218 q 224 308 163 293 q 361 323 285 323 q 529 314 448 323 q 653 286 610 304 q 622 420 653 376 q 533 479 590 465 q 398 494 475 494 q 239 481 292 494 q 154 458 186 469 q 149 457 150 457 q 134 466 140 457 q 127 483 127 474 q 135 496 127 492 q 213 517 146 501 q 418 533 279 533 q 567 513 501 533 q 670 435 633 493 q 708 263 708 377 l 708 47 q 704 16 708 32 q 680 0 699 0 q 659 14 665 0 q 653 50 653 28 l 653 88 q 596 46 633 68 q 496 8 558 24 q 340 -7 435 -7 m 335 33 q 544 63 469 33 q 653 121 619 93 l 653 257 q 513 275 587 267 q 366 283 439 283 q 203 256 262 283 q 145 152 145 229 q 199 60 145 87 q 335 33 252 33 m 404 616 q 348 638 372 616 q 324 692 324 660 q 347 747 324 725 q 404 769 370 769 q 460 747 437 769 q 484 692 484 725 q 460 638 484 660 q 404 616 437 616 m 404 650 q 434 663 422 650 q 446 692 446 675 q 434 722 446 711 q 404 734 422 734 q 375 722 387 734 q 363 692 363 711 q 375 663 363 675 q 404 650 387 650 z "},"ã":{"ha":808,"x_min":91,"x_max":708,"o":"m 340 -7 q 215 9 271 -7 q 124 60 158 25 q 91 152 91 95 q 127 256 91 218 q 224 308 163 293 q 361 323 285 323 q 529 314 448 323 q 653 286 610 304 q 622 420 653 376 q 533 479 590 465 q 398 494 475 494 q 239 481 292 494 q 154 458 186 469 q 149 457 150 457 q 134 466 140 457 q 127 483 127 474 q 135 496 127 492 q 213 517 146 501 q 418 533 279 533 q 567 513 501 533 q 670 435 633 493 q 708 263 708 377 l 708 47 q 704 16 708 32 q 680 0 699 0 q 659 14 665 0 q 653 50 653 28 l 653 88 q 596 46 633 68 q 496 8 558 24 q 340 -7 435 -7 m 335 33 q 544 63 469 33 q 653 121 619 93 l 653 257 q 513 275 587 267 q 366 283 439 283 q 203 256 262 283 q 145 152 145 229 q 199 60 145 87 q 335 33 252 33 m 271 616 q 252 626 256 616 q 248 647 248 636 q 262 696 248 676 q 315 715 277 715 q 382 701 352 715 q 438 670 412 686 q 493 655 465 655 q 510 661 503 655 q 517 685 517 666 q 522 706 517 697 q 537 715 526 715 q 556 706 552 715 q 560 684 560 696 q 545 635 560 655 q 493 616 530 616 q 433 631 468 616 q 365 661 397 646 q 315 676 332 676 q 297 671 304 676 q 290 646 290 665 q 286 625 290 634 q 271 616 282 616 z "},"æ":{"ha":1203,"x_min":34,"x_max":1164,"o":"m 319 -7 q 176 8 241 -7 q 72 58 111 24 q 34 149 34 92 q 72 253 34 215 q 173 307 110 291 q 312 323 236 323 q 480 305 399 323 q 604 264 560 287 l 604 439 q 507 475 579 456 q 319 493 434 493 q 192 477 253 493 q 106 421 130 461 q 83 404 96 404 q 66 422 66 404 q 72 440 66 429 q 127 493 88 472 q 219 523 167 513 q 328 533 272 533 q 432 529 376 533 q 541 510 489 525 q 625 462 592 494 q 734 517 667 501 q 882 533 800 533 q 1094 479 1023 533 q 1164 325 1164 425 q 1154 282 1164 307 q 1134 257 1144 257 l 645 257 l 645 93 q 734 54 673 74 q 884 33 795 33 q 971 41 927 33 q 1053 60 1016 49 q 1112 83 1090 72 q 1126 86 1120 86 q 1145 68 1145 86 q 1131 47 1145 55 q 1008 5 1072 17 q 884 -7 944 -7 q 728 13 793 -7 q 624 68 663 33 q 499 12 584 31 q 319 -7 415 -7 m 645 297 l 1119 297 q 1121 310 1119 298 q 1124 329 1124 322 q 1101 411 1124 374 q 1025 471 1078 448 q 882 493 972 493 q 730 474 788 493 q 645 439 672 456 l 645 297 m 314 33 q 500 53 431 33 q 604 93 568 72 l 604 229 q 534 254 580 242 q 432 275 488 267 q 317 283 375 283 q 151 255 213 283 q 88 149 88 226 q 152 58 88 83 q 314 33 216 33 z "},"b":{"ha":851,"x_min":108,"x_max":768,"o":"m 467 -7 q 283 17 357 -7 q 162 66 208 41 l 162 50 q 158 15 162 30 q 134 0 154 0 q 111 15 115 0 q 108 50 108 30 l 108 722 q 117 750 108 744 q 136 755 126 755 q 154 750 146 755 q 162 722 162 744 l 162 398 q 209 468 174 441 q 291 509 244 494 q 385 528 338 523 q 467 533 433 533 q 617 509 549 533 q 726 428 685 486 q 768 269 768 371 q 689 55 768 117 q 467 -7 611 -7 m 467 33 q 655 89 597 33 q 713 269 713 145 q 680 403 713 354 q 591 473 647 452 q 467 493 536 493 q 379 487 427 492 q 286 466 331 481 q 208 425 241 451 q 162 355 174 398 l 162 95 q 297 53 220 73 q 467 33 373 33 z "},"c":{"ha":768,"x_min":81,"x_max":687,"o":"m 426 -7 q 246 16 323 -7 q 125 97 168 39 q 81 261 81 155 q 122 425 81 366 q 239 509 162 484 q 426 533 317 533 q 550 521 486 533 q 673 479 614 509 q 687 458 687 471 q 668 440 687 440 q 654 444 662 440 q 595 466 632 454 q 513 485 557 477 q 426 493 469 493 q 203 439 271 493 q 136 261 136 385 q 208 85 136 136 q 425 33 280 33 q 513 41 469 33 q 595 60 557 49 q 654 83 632 72 q 668 86 662 86 q 687 68 687 86 q 673 47 687 55 q 550 5 614 17 q 426 -7 486 -7 z "},"ć":{"ha":768,"x_min":81,"x_max":687,"o":"m 426 -7 q 246 16 323 -7 q 125 97 168 39 q 81 261 81 155 q 122 425 81 366 q 239 509 162 484 q 426 533 317 533 q 550 521 486 533 q 673 479 614 509 q 687 458 687 471 q 668 440 687 440 q 654 444 662 440 q 595 466 632 454 q 513 485 557 477 q 426 493 469 493 q 203 439 271 493 q 136 261 136 385 q 208 85 136 136 q 425 33 280 33 q 513 41 469 33 q 595 60 557 49 q 654 83 632 72 q 668 86 662 86 q 687 68 687 86 q 673 47 687 55 q 550 5 614 17 q 426 -7 486 -7 m 331 615 q 313 633 313 615 q 318 645 313 640 l 489 832 q 506 840 496 840 q 532 827 521 840 q 543 800 543 815 q 532 781 543 789 l 341 618 q 331 615 336 615 z "},"č":{"ha":768,"x_min":81,"x_max":687,"o":"m 426 -7 q 246 16 323 -7 q 125 97 168 39 q 81 261 81 155 q 122 425 81 366 q 239 509 162 484 q 426 533 317 533 q 550 521 486 533 q 673 479 614 509 q 687 458 687 471 q 668 440 687 440 q 654 444 662 440 q 595 466 632 454 q 513 485 557 477 q 426 493 469 493 q 203 439 271 493 q 136 261 136 385 q 208 85 136 136 q 425 33 280 33 q 513 41 469 33 q 595 60 557 49 q 654 83 632 72 q 668 86 662 86 q 687 68 687 86 q 673 47 687 55 q 550 5 614 17 q 426 -7 486 -7 m 384 616 q 348 642 364 616 l 256 793 q 256 814 248 806 q 275 822 263 822 q 311 794 296 822 l 384 653 l 456 794 q 492 822 470 822 q 511 814 504 822 q 511 793 519 806 l 420 642 q 384 616 403 616 z "},"ç":{"ha":768,"x_min":81,"x_max":687,"o":"m 426 -7 q 246 16 323 -7 q 125 97 168 39 q 81 261 81 155 q 122 425 81 366 q 239 509 162 484 q 426 533 317 533 q 550 521 486 533 q 673 479 614 509 q 687 458 687 471 q 668 440 687 440 q 654 444 662 440 q 595 466 632 454 q 513 485 557 477 q 426 493 469 493 q 203 439 271 493 q 136 261 136 385 q 208 85 136 136 q 425 33 280 33 q 513 41 469 33 q 595 60 557 49 q 654 83 632 72 q 668 86 662 86 q 687 68 687 86 q 673 47 687 55 q 550 5 614 17 q 426 -7 486 -7 m 326 -220 q 307 -213 315 -220 q 300 -196 300 -205 q 307 -178 300 -188 l 435 7 q 453 20 444 20 q 465 5 465 20 q 463 -5 465 -1 l 356 -196 q 341 -215 348 -210 q 326 -220 334 -220 z "},"ĉ":{"ha":768,"x_min":81,"x_max":687,"o":"m 426 -7 q 246 16 323 -7 q 125 97 168 39 q 81 261 81 155 q 122 425 81 366 q 239 509 162 484 q 426 533 317 533 q 550 521 486 533 q 673 479 614 509 q 687 458 687 471 q 668 440 687 440 q 654 444 662 440 q 595 466 632 454 q 513 485 557 477 q 426 493 469 493 q 203 439 271 493 q 136 261 136 385 q 208 85 136 136 q 425 33 280 33 q 513 41 469 33 q 595 60 557 49 q 654 83 632 72 q 668 86 662 86 q 687 68 687 86 q 673 47 687 55 q 550 5 614 17 q 426 -7 486 -7 m 275 616 q 256 624 263 616 q 256 644 248 632 l 348 796 q 384 822 364 822 q 420 796 404 822 l 511 644 q 511 624 519 632 q 492 616 504 616 q 456 644 470 616 l 384 785 l 311 644 q 275 616 296 616 z "},"ċ":{"ha":768,"x_min":81,"x_max":687,"o":"m 426 -7 q 246 16 323 -7 q 125 97 168 39 q 81 261 81 155 q 122 425 81 366 q 239 509 162 484 q 426 533 317 533 q 550 521 486 533 q 673 479 614 509 q 687 458 687 471 q 668 440 687 440 q 654 444 662 440 q 595 466 632 454 q 513 485 557 477 q 426 493 469 493 q 203 439 271 493 q 136 261 136 385 q 208 85 136 136 q 425 33 280 33 q 513 41 469 33 q 595 60 557 49 q 654 83 632 72 q 668 86 662 86 q 687 68 687 86 q 673 47 687 55 q 550 5 614 17 q 426 -7 486 -7 m 383 637 q 355 648 366 637 q 344 675 344 659 q 355 704 344 693 q 383 715 366 715 q 412 704 400 715 q 424 675 424 693 q 412 648 424 659 q 383 637 400 637 z "},"d":{"ha":851,"x_min":83,"x_max":743,"o":"m 384 -7 q 234 17 302 -7 q 125 98 166 41 q 83 258 83 156 q 162 471 83 410 q 384 533 240 533 q 540 519 479 533 q 636 485 601 505 q 689 447 672 465 l 689 707 q 692 741 689 726 q 715 755 696 755 q 739 742 735 755 q 743 709 743 728 l 743 37 q 735 7 743 15 q 717 0 726 0 q 697 7 705 0 q 689 35 689 14 l 689 130 q 643 59 678 86 q 560 18 607 32 q 466 -2 513 3 q 384 -7 418 -7 m 384 33 q 472 39 425 33 q 565 60 520 45 q 643 101 610 75 q 689 171 677 128 l 689 415 q 632 450 669 432 q 535 480 595 468 q 384 493 475 493 q 196 437 254 493 q 138 258 138 381 q 171 123 138 172 q 260 54 204 74 q 384 33 316 33 z "},"ď":{"ha":851,"x_min":83,"x_max":970,"o":"m 384 -7 q 234 17 302 -7 q 125 98 166 41 q 83 258 83 156 q 162 471 83 410 q 384 533 240 533 q 540 519 479 533 q 636 485 601 505 q 689 447 672 465 l 689 707 q 692 741 689 726 q 715 755 696 755 q 739 742 735 755 q 743 709 743 728 l 743 37 q 735 7 743 15 q 717 0 726 0 q 697 7 705 0 q 689 35 689 14 l 689 130 q 643 59 678 86 q 560 18 607 32 q 466 -2 513 3 q 384 -7 418 -7 m 384 33 q 472 39 425 33 q 565 60 520 45 q 643 101 610 75 q 689 171 677 128 l 689 415 q 632 450 669 432 q 535 480 595 468 q 384 493 475 493 q 196 437 254 493 q 138 258 138 381 q 171 123 138 172 q 260 54 204 74 q 384 33 316 33 m 874 601 q 858 614 858 601 q 872 625 858 625 q 912 661 912 627 q 904 673 912 669 q 887 686 897 676 q 877 716 877 696 q 891 746 877 736 q 924 756 905 756 q 955 744 940 756 q 970 706 970 732 q 944 636 970 671 q 874 601 918 601 z "},"đ":{"ha":851,"x_min":83,"x_max":851,"o":"m 384 -7 q 234 17 302 -7 q 125 98 166 41 q 83 258 83 156 q 162 471 83 410 q 384 533 240 533 q 540 519 479 533 q 636 485 601 505 q 689 447 672 465 l 689 603 l 412 603 q 398 609 403 603 q 393 622 393 615 q 398 635 393 629 q 412 642 403 642 l 689 642 l 689 707 q 692 741 689 726 q 715 755 696 755 q 739 742 735 755 q 743 709 743 728 l 743 642 l 833 642 q 847 635 842 642 q 851 622 851 629 q 847 609 851 615 q 833 603 842 603 l 743 603 l 743 37 q 735 7 743 15 q 717 0 726 0 q 697 7 705 0 q 689 35 689 14 l 689 130 q 643 59 678 86 q 560 18 607 32 q 466 -2 513 3 q 384 -7 418 -7 m 384 33 q 472 40 425 34 q 565 60 520 45 q 643 102 610 75 q 689 171 677 128 l 689 415 q 632 450 669 432 q 535 480 595 468 q 384 493 475 493 q 196 437 254 493 q 138 258 138 381 q 171 123 138 172 q 260 54 204 74 q 384 33 316 33 z "},"ǳ":{"ha":1551,"x_min":83,"x_max":1487,"o":"m 384 -7 q 234 17 302 -7 q 125 98 166 41 q 83 258 83 156 q 162 471 83 410 q 384 533 240 533 q 540 519 479 533 q 636 485 601 505 q 689 447 672 465 l 689 707 q 692 741 689 726 q 715 755 696 755 q 739 742 735 755 q 743 709 743 728 l 743 37 q 735 7 743 15 q 717 0 726 0 q 697 7 705 0 q 689 35 689 14 l 689 130 q 643 59 678 86 q 560 18 607 32 q 466 -2 513 3 q 384 -7 418 -7 m 384 33 q 472 39 425 33 q 565 60 520 45 q 643 101 610 75 q 689 171 677 128 l 689 415 q 632 450 669 432 q 535 480 595 468 q 384 493 475 493 q 196 437 254 493 q 138 258 138 381 q 171 123 138 172 q 260 54 204 74 q 384 33 316 33 m 954 0 q 933 7 942 0 q 925 27 925 14 q 943 60 925 45 l 1414 481 l 968 481 q 934 483 949 481 q 919 498 919 484 q 933 518 919 516 q 967 519 947 519 l 1444 519 q 1471 511 1463 519 q 1478 494 1478 503 q 1462 463 1478 477 l 987 39 l 1438 39 q 1472 37 1457 39 q 1487 18 1487 35 q 1472 2 1487 3 q 1439 0 1457 0 l 954 0 z "},"ǆ":{"ha":1551,"x_min":83,"x_max":1487,"o":"m 384 -7 q 234 17 302 -7 q 125 98 166 41 q 83 258 83 156 q 162 471 83 410 q 384 533 240 533 q 540 519 479 533 q 636 485 601 505 q 689 447 672 465 l 689 707 q 692 741 689 726 q 715 755 696 755 q 739 742 735 755 q 743 709 743 728 l 743 37 q 735 7 743 15 q 717 0 726 0 q 697 7 705 0 q 689 35 689 14 l 689 130 q 643 59 678 86 q 560 18 607 32 q 466 -2 513 3 q 384 -7 418 -7 m 384 33 q 472 39 425 33 q 565 60 520 45 q 643 101 610 75 q 689 171 677 128 l 689 415 q 632 450 669 432 q 535 480 595 468 q 384 493 475 493 q 196 437 254 493 q 138 258 138 381 q 171 123 138 172 q 260 54 204 74 q 384 33 316 33 m 954 0 q 933 7 942 0 q 925 27 925 14 q 943 60 925 45 l 1414 481 l 968 481 q 934 483 949 481 q 919 498 919 484 q 933 518 919 516 q 967 519 947 519 l 1444 519 q 1471 511 1463 519 q 1478 494 1478 503 q 1462 463 1478 477 l 987 39 l 1438 39 q 1472 37 1457 39 q 1487 18 1487 35 q 1472 2 1487 3 q 1439 0 1457 0 l 954 0 m 1201 616 q 1165 642 1181 616 l 1073 793 q 1073 814 1065 806 q 1092 822 1080 822 q 1128 794 1114 822 l 1201 653 l 1273 794 q 1310 822 1287 822 q 1329 814 1321 822 q 1329 793 1336 806 l 1237 642 q 1201 616 1220 616 z "},"ð":{"ha":722,"x_min":83,"x_max":664,"o":"m 370 -14 q 198 21 260 -14 q 109 113 135 56 q 83 233 83 169 q 116 354 83 304 q 207 430 149 404 q 336 456 264 456 q 471 436 400 456 q 611 375 541 416 q 577 529 611 460 q 497 633 543 597 q 449 596 473 614 q 401 561 425 578 q 389 555 395 555 q 374 571 374 555 q 382 585 374 578 q 428 618 406 602 q 474 652 451 635 q 380 697 435 684 q 271 715 325 711 q 179 720 216 720 q 166 726 170 720 q 162 740 162 732 q 166 752 162 747 q 178 758 170 758 q 343 748 258 758 q 513 681 428 738 q 565 720 539 701 q 618 759 591 740 q 629 764 623 764 q 644 748 644 764 q 636 734 644 740 q 586 698 611 716 q 536 661 561 680 q 630 527 596 611 q 664 345 664 444 q 594 74 664 161 q 370 -14 524 -14 m 366 33 q 556 107 501 33 q 611 332 611 182 q 475 388 549 366 q 335 409 401 409 q 193 366 252 409 q 135 222 135 323 q 155 133 135 176 q 224 61 174 89 q 366 33 275 33 z "},"e":{"ha":766,"x_min":82,"x_max":688,"o":"m 402 -7 q 157 63 233 -7 q 82 261 82 134 q 125 425 82 366 q 242 509 168 484 q 407 533 316 533 q 618 479 548 533 q 688 325 688 425 q 683 282 688 307 q 672 257 677 257 l 136 264 q 206 81 139 130 q 401 33 273 33 q 529 46 477 33 q 611 78 580 60 q 658 105 643 95 q 663 106 660 106 q 677 99 671 106 q 684 84 684 92 q 677 72 684 77 q 638 45 669 64 q 550 9 608 26 q 402 -7 492 -7 m 137 297 l 648 297 l 648 329 q 625 411 648 374 q 549 471 602 448 q 407 493 496 493 q 212 450 281 493 q 137 297 142 406 z "},"é":{"ha":766,"x_min":82,"x_max":688,"o":"m 402 -7 q 157 63 233 -7 q 82 261 82 134 q 125 425 82 366 q 242 509 168 484 q 407 533 316 533 q 618 479 548 533 q 688 325 688 425 q 683 282 688 307 q 672 257 677 257 l 136 264 q 206 81 139 130 q 401 33 273 33 q 529 46 477 33 q 611 78 580 60 q 658 105 643 95 q 663 106 660 106 q 677 99 671 106 q 684 84 684 92 q 677 72 684 77 q 638 45 669 64 q 550 9 608 26 q 402 -7 492 -7 m 137 297 l 648 297 l 648 329 q 625 411 648 374 q 549 471 602 448 q 407 493 496 493 q 212 450 281 493 q 137 297 142 406 m 330 615 q 312 633 312 615 q 317 645 312 640 l 488 832 q 505 840 496 840 q 531 827 520 840 q 542 800 542 815 q 532 781 542 789 l 340 618 q 330 615 336 615 z "},"ě":{"ha":766,"x_min":82,"x_max":688,"o":"m 402 -7 q 157 63 233 -7 q 82 261 82 134 q 125 425 82 366 q 242 509 168 484 q 407 533 316 533 q 618 479 548 533 q 688 325 688 425 q 683 282 688 307 q 672 257 677 257 l 136 264 q 206 81 139 130 q 401 33 273 33 q 529 46 477 33 q 611 78 580 60 q 658 105 643 95 q 663 106 660 106 q 677 99 671 106 q 684 84 684 92 q 677 72 684 77 q 638 45 669 64 q 550 9 608 26 q 402 -7 492 -7 m 137 297 l 648 297 l 648 329 q 625 411 648 374 q 549 471 602 448 q 407 493 496 493 q 212 450 281 493 q 137 297 142 406 m 383 616 q 347 642 363 616 l 255 793 q 255 814 248 806 q 274 822 262 822 q 311 794 296 822 l 383 653 l 455 794 q 492 822 469 822 q 511 814 503 822 q 511 793 518 806 l 419 642 q 383 616 402 616 z "},"ê":{"ha":766,"x_min":82,"x_max":688,"o":"m 402 -7 q 157 63 233 -7 q 82 261 82 134 q 125 425 82 366 q 242 509 168 484 q 407 533 316 533 q 618 479 548 533 q 688 325 688 425 q 683 282 688 307 q 672 257 677 257 l 136 264 q 206 81 139 130 q 401 33 273 33 q 529 46 477 33 q 611 78 580 60 q 658 105 643 95 q 663 106 660 106 q 677 99 671 106 q 684 84 684 92 q 677 72 684 77 q 638 45 669 64 q 550 9 608 26 q 402 -7 492 -7 m 137 297 l 648 297 l 648 329 q 625 411 648 374 q 549 471 602 448 q 407 493 496 493 q 212 450 281 493 q 137 297 142 406 m 274 616 q 255 624 262 616 q 255 644 248 632 l 347 796 q 383 822 363 822 q 419 796 403 822 l 511 644 q 511 624 518 632 q 492 616 503 616 q 455 644 469 616 l 383 785 l 311 644 q 274 616 296 616 z "},"ȅ":{"ha":766,"x_min":82,"x_max":688,"o":"m 402 -7 q 157 63 233 -7 q 82 261 82 134 q 125 425 82 366 q 242 509 168 484 q 407 533 316 533 q 618 479 548 533 q 688 325 688 425 q 683 282 688 307 q 672 257 677 257 l 136 264 q 206 81 139 130 q 401 33 273 33 q 529 46 477 33 q 611 78 580 60 q 658 105 643 95 q 663 106 660 106 q 677 99 671 106 q 684 84 684 92 q 677 72 684 77 q 638 45 669 64 q 550 9 608 26 q 402 -7 492 -7 m 137 297 l 648 297 l 648 329 q 625 411 648 374 q 549 471 602 448 q 407 493 496 493 q 212 450 281 493 q 137 297 142 406 m 472 616 q 462 619 467 616 l 271 782 q 260 801 260 790 q 269 823 260 813 q 290 833 278 833 q 307 826 300 833 l 485 646 q 490 633 490 640 q 472 616 490 616 m 317 616 q 307 619 312 616 l 116 782 q 106 801 106 790 q 115 823 106 813 q 136 833 123 833 q 153 826 145 833 l 330 646 q 336 633 336 640 q 317 616 336 616 z "},"ë":{"ha":766,"x_min":82,"x_max":688,"o":"m 402 -7 q 157 63 233 -7 q 82 261 82 134 q 125 425 82 366 q 242 509 168 484 q 407 533 316 533 q 618 479 548 533 q 688 325 688 425 q 683 282 688 307 q 672 257 677 257 l 136 264 q 206 81 139 130 q 401 33 273 33 q 529 46 477 33 q 611 78 580 60 q 658 105 643 95 q 663 106 660 106 q 677 99 671 106 q 684 84 684 92 q 677 72 684 77 q 638 45 669 64 q 550 9 608 26 q 402 -7 492 -7 m 137 297 l 648 297 l 648 329 q 625 411 648 374 q 549 471 602 448 q 407 493 496 493 q 212 450 281 493 q 137 297 142 406 m 517 637 q 489 648 500 637 q 478 675 478 659 q 489 704 478 693 q 517 715 500 715 q 546 704 534 715 q 558 675 558 693 q 546 648 558 659 q 517 637 534 637 m 247 637 q 218 648 229 637 q 208 675 208 659 q 218 704 208 693 q 247 715 229 715 q 276 704 264 715 q 288 675 288 693 q 276 648 288 659 q 247 637 264 637 z "},"ė":{"ha":766,"x_min":82,"x_max":688,"o":"m 402 -7 q 157 63 233 -7 q 82 261 82 134 q 125 425 82 366 q 242 509 168 484 q 407 533 316 533 q 618 479 548 533 q 688 325 688 425 q 683 282 688 307 q 672 257 677 257 l 136 264 q 206 81 139 130 q 401 33 273 33 q 529 46 477 33 q 611 78 580 60 q 658 105 643 95 q 663 106 660 106 q 677 99 671 106 q 684 84 684 92 q 677 72 684 77 q 638 45 669 64 q 550 9 608 26 q 402 -7 492 -7 m 137 297 l 648 297 l 648 329 q 625 411 648 374 q 549 471 602 448 q 407 493 496 493 q 212 450 281 493 q 137 297 142 406 m 382 637 q 354 648 365 637 q 343 675 343 659 q 354 704 343 693 q 382 715 365 715 q 411 704 399 715 q 423 675 423 693 q 411 648 423 659 q 382 637 399 637 z "},"è":{"ha":766,"x_min":82,"x_max":688,"o":"m 402 -7 q 157 63 233 -7 q 82 261 82 134 q 125 425 82 366 q 242 509 168 484 q 407 533 316 533 q 618 479 548 533 q 688 325 688 425 q 683 282 688 307 q 672 257 677 257 l 136 264 q 206 81 139 130 q 401 33 273 33 q 529 46 477 33 q 611 78 580 60 q 658 105 643 95 q 663 106 660 106 q 677 99 671 106 q 684 84 684 92 q 677 72 684 77 q 638 45 669 64 q 550 9 608 26 q 402 -7 492 -7 m 137 297 l 648 297 l 648 329 q 625 411 648 374 q 549 471 602 448 q 407 493 496 493 q 212 450 281 493 q 137 297 142 406 m 436 616 q 426 620 431 616 l 235 783 q 224 802 224 791 q 235 829 224 817 q 261 841 246 841 q 278 833 271 841 l 449 646 q 454 634 454 641 q 436 616 454 616 z "},"ȇ":{"ha":766,"x_min":82,"x_max":688,"o":"m 402 -7 q 157 63 233 -7 q 82 261 82 134 q 125 425 82 366 q 242 509 168 484 q 407 533 316 533 q 618 479 548 533 q 688 325 688 425 q 683 282 688 307 q 672 257 677 257 l 136 264 q 206 81 139 130 q 401 33 273 33 q 529 46 477 33 q 611 78 580 60 q 658 105 643 95 q 663 106 660 106 q 677 99 671 106 q 684 84 684 92 q 677 72 684 77 q 638 45 669 64 q 550 9 608 26 q 402 -7 492 -7 m 137 297 l 648 297 l 648 329 q 625 411 648 374 q 549 471 602 448 q 407 493 496 493 q 212 450 281 493 q 137 297 142 406 m 276 616 q 257 626 261 616 q 253 647 253 636 q 265 703 253 674 q 306 751 277 731 q 383 770 335 770 q 460 751 432 770 q 501 703 489 731 q 513 647 513 674 q 509 626 513 636 q 490 616 505 616 q 474 625 477 616 q 470 647 470 634 q 451 707 470 678 q 383 735 432 735 q 315 707 334 735 q 296 647 296 678 q 293 625 296 634 q 276 616 289 616 z "},"ē":{"ha":766,"x_min":82,"x_max":688,"o":"m 402 -7 q 157 63 233 -7 q 82 261 82 134 q 125 425 82 366 q 242 509 168 484 q 407 533 316 533 q 618 479 548 533 q 688 325 688 425 q 683 282 688 307 q 672 257 677 257 l 136 264 q 206 81 139 130 q 401 33 273 33 q 529 46 477 33 q 611 78 580 60 q 658 105 643 95 q 663 106 660 106 q 677 99 671 106 q 684 84 684 92 q 677 72 684 77 q 638 45 669 64 q 550 9 608 26 q 402 -7 492 -7 m 137 297 l 648 297 l 648 329 q 625 411 648 374 q 549 471 602 448 q 407 493 496 493 q 212 450 281 493 q 137 297 142 406 m 267 627 q 250 635 255 627 q 245 648 245 643 q 250 663 245 654 q 267 671 255 671 l 499 671 q 516 663 511 671 q 521 648 521 654 q 516 635 521 643 q 499 627 511 627 l 267 627 z "},"ę":{"ha":766,"x_min":82,"x_max":688,"o":"m 402 -7 q 157 63 233 -7 q 82 261 82 134 q 125 425 82 366 q 242 509 168 484 q 407 533 316 533 q 618 479 548 533 q 688 325 688 425 q 683 282 688 307 q 672 257 677 257 l 136 264 q 206 81 139 130 q 401 33 273 33 q 529 46 477 33 q 611 78 580 60 q 658 105 643 95 q 663 106 660 106 q 677 99 671 106 q 684 84 684 92 q 677 72 684 77 q 638 45 669 64 q 550 9 608 26 q 402 -7 492 -7 m 137 297 l 648 297 l 648 329 q 625 411 648 374 q 549 471 602 448 q 407 493 496 493 q 212 450 281 493 q 137 297 142 406 m 557 -164 q 514 -149 534 -164 q 493 -98 493 -134 q 518 -34 493 -66 q 581 29 543 -2 l 601 29 q 565 -27 577 1 q 553 -77 553 -56 q 565 -116 553 -105 q 588 -126 577 -126 q 614 -119 602 -126 q 636 -106 627 -111 l 643 -112 q 607 -150 631 -136 q 557 -164 583 -164 z "},"f":{"ha":467,"x_min":46,"x_max":465,"o":"m 152 0 q 134 6 142 0 q 125 33 125 12 l 125 477 l 65 477 q 46 493 46 477 q 65 509 46 509 l 125 509 l 125 553 q 169 706 125 663 q 284 749 212 749 q 360 744 325 749 q 444 723 395 739 q 465 702 465 715 q 460 691 465 697 q 444 685 454 685 q 431 688 437 685 q 360 705 395 701 q 294 710 326 710 q 233 699 258 710 q 193 653 207 687 q 179 553 179 620 l 179 509 l 427 509 q 447 493 447 509 q 427 477 447 477 l 179 477 l 179 33 q 171 6 179 12 q 152 0 163 0 z "},"g":{"ha":840,"x_min":82,"x_max":732,"o":"m 421 -231 q 266 -213 323 -231 q 172 -180 208 -196 q 152 -163 159 -173 q 146 -145 146 -153 q 163 -127 146 -127 q 182 -133 172 -127 q 277 -166 218 -150 q 421 -183 336 -183 q 605 -143 532 -183 q 678 -16 678 -103 l 678 65 q 548 9 620 24 q 408 -7 475 -7 q 232 16 304 -7 q 120 99 159 39 q 82 267 82 159 q 124 426 82 368 q 240 509 165 484 q 414 533 315 533 q 570 511 515 533 q 648 459 625 490 q 678 403 671 429 q 677 431 678 415 q 676 463 676 447 q 681 503 676 486 q 700 519 685 519 q 726 504 720 519 q 732 472 732 488 l 732 -16 q 651 -177 732 -123 q 421 -231 570 -231 m 411 33 q 552 49 481 33 q 678 102 623 65 l 678 355 q 648 412 671 381 q 571 464 624 442 q 420 486 517 486 q 208 436 279 486 q 136 260 136 385 q 162 127 136 176 q 249 55 189 77 q 411 33 309 33 z "},"ǵ":{"ha":840,"x_min":82,"x_max":732,"o":"m 421 -231 q 266 -213 323 -231 q 172 -180 208 -196 q 152 -163 159 -173 q 146 -145 146 -153 q 163 -127 146 -127 q 182 -133 172 -127 q 277 -166 218 -150 q 421 -183 336 -183 q 605 -143 532 -183 q 678 -16 678 -103 l 678 65 q 548 9 620 24 q 408 -7 475 -7 q 232 16 304 -7 q 120 99 159 39 q 82 267 82 159 q 124 426 82 368 q 240 509 165 484 q 414 533 315 533 q 570 511 515 533 q 648 459 625 490 q 678 403 671 429 q 677 431 678 415 q 676 463 676 447 q 681 503 676 486 q 700 519 685 519 q 726 504 720 519 q 732 472 732 488 l 732 -16 q 651 -177 732 -123 q 421 -231 570 -231 m 411 33 q 552 49 481 33 q 678 102 623 65 l 678 355 q 648 412 671 381 q 571 464 624 442 q 420 486 517 486 q 208 436 279 486 q 136 260 136 385 q 162 127 136 176 q 249 55 189 77 q 411 33 309 33 m 368 615 q 349 633 349 615 q 355 645 349 640 l 526 832 q 543 840 533 840 q 568 827 557 840 q 579 800 579 815 q 569 781 579 789 l 378 618 q 368 615 373 615 z "},"ğ":{"ha":840,"x_min":82,"x_max":732,"o":"m 421 -231 q 266 -213 323 -231 q 172 -180 208 -196 q 152 -163 159 -173 q 146 -145 146 -153 q 163 -127 146 -127 q 182 -133 172 -127 q 277 -166 218 -150 q 421 -183 336 -183 q 605 -143 532 -183 q 678 -16 678 -103 l 678 65 q 548 9 620 24 q 408 -7 475 -7 q 232 16 304 -7 q 120 99 159 39 q 82 267 82 159 q 124 426 82 368 q 240 509 165 484 q 414 533 315 533 q 570 511 515 533 q 648 459 625 490 q 678 403 671 429 q 677 431 678 415 q 676 463 676 447 q 681 503 676 486 q 700 519 685 519 q 726 504 720 519 q 732 472 732 488 l 732 -16 q 651 -177 732 -123 q 421 -231 570 -231 m 411 33 q 552 49 481 33 q 678 102 623 65 l 678 355 q 648 412 671 381 q 571 464 624 442 q 420 486 517 486 q 208 436 279 486 q 136 260 136 385 q 162 127 136 176 q 249 55 189 77 q 411 33 309 33 m 420 616 q 343 635 372 616 q 301 684 314 655 q 288 739 288 712 q 293 761 288 751 q 313 770 297 770 q 332 761 328 770 q 336 739 336 752 q 354 681 336 708 q 420 654 372 654 q 487 681 469 654 q 505 739 505 708 q 509 761 505 752 q 528 770 513 770 q 548 761 544 770 q 553 739 553 751 q 540 684 553 712 q 498 635 527 655 q 420 616 469 616 z "},"ĝ":{"ha":840,"x_min":82,"x_max":732,"o":"m 421 -231 q 266 -213 323 -231 q 172 -180 208 -196 q 152 -163 159 -173 q 146 -145 146 -153 q 163 -127 146 -127 q 182 -133 172 -127 q 277 -166 218 -150 q 421 -183 336 -183 q 605 -143 532 -183 q 678 -16 678 -103 l 678 65 q 548 9 620 24 q 408 -7 475 -7 q 232 16 304 -7 q 120 99 159 39 q 82 267 82 159 q 124 426 82 368 q 240 509 165 484 q 414 533 315 533 q 570 511 515 533 q 648 459 625 490 q 678 403 671 429 q 677 431 678 415 q 676 463 676 447 q 681 503 676 486 q 700 519 685 519 q 726 504 720 519 q 732 472 732 488 l 732 -16 q 651 -177 732 -123 q 421 -231 570 -231 m 411 33 q 552 49 481 33 q 678 102 623 65 l 678 355 q 648 412 671 381 q 571 464 624 442 q 420 486 517 486 q 208 436 279 486 q 136 260 136 385 q 162 127 136 176 q 249 55 189 77 q 411 33 309 33 m 311 616 q 292 624 300 616 q 292 644 285 632 l 385 796 q 420 822 401 822 q 456 796 440 822 l 548 644 q 548 624 555 632 q 529 616 541 616 q 492 644 507 616 l 420 785 l 348 644 q 311 616 333 616 z "},"ģ":{"ha":840,"x_min":82,"x_max":732,"o":"m 421 -231 q 266 -213 323 -231 q 172 -180 208 -196 q 152 -163 159 -173 q 146 -145 146 -153 q 163 -127 146 -127 q 182 -133 172 -127 q 277 -166 218 -150 q 421 -183 336 -183 q 605 -143 532 -183 q 678 -16 678 -103 l 678 65 q 548 9 620 24 q 408 -7 475 -7 q 232 16 304 -7 q 120 99 159 39 q 82 267 82 159 q 124 426 82 368 q 240 509 165 484 q 414 533 315 533 q 570 511 515 533 q 648 459 625 490 q 678 403 671 429 q 677 431 678 415 q 676 463 676 447 q 681 503 676 486 q 700 519 685 519 q 726 504 720 519 q 732 472 732 488 l 732 -16 q 651 -177 732 -123 q 421 -231 570 -231 m 411 33 q 552 49 481 33 q 678 102 623 65 l 678 355 q 648 412 671 381 q 571 464 624 442 q 420 486 517 486 q 208 436 279 486 q 136 260 136 385 q 162 127 136 176 q 249 55 189 77 q 411 33 309 33 m 471 772 q 487 759 487 772 q 473 747 487 748 q 433 712 433 745 q 441 700 433 704 q 458 687 448 696 q 468 656 468 677 q 454 627 468 637 q 420 616 440 616 q 390 629 405 616 q 374 667 374 642 q 400 736 374 701 q 471 772 427 772 z "},"ġ":{"ha":840,"x_min":82,"x_max":732,"o":"m 421 -231 q 266 -213 323 -231 q 172 -180 208 -196 q 152 -163 159 -173 q 146 -145 146 -153 q 163 -127 146 -127 q 182 -133 172 -127 q 277 -166 218 -150 q 421 -183 336 -183 q 605 -143 532 -183 q 678 -16 678 -103 l 678 65 q 548 9 620 24 q 408 -7 475 -7 q 232 16 304 -7 q 120 99 159 39 q 82 267 82 159 q 124 426 82 368 q 240 509 165 484 q 414 533 315 533 q 570 511 515 533 q 648 459 625 490 q 678 403 671 429 q 677 431 678 415 q 676 463 676 447 q 681 503 676 486 q 700 519 685 519 q 726 504 720 519 q 732 472 732 488 l 732 -16 q 651 -177 732 -123 q 421 -231 570 -231 m 411 33 q 552 49 481 33 q 678 102 623 65 l 678 355 q 648 412 671 381 q 571 464 624 442 q 420 486 517 486 q 208 436 279 486 q 136 260 136 385 q 162 127 136 176 q 249 55 189 77 q 411 33 309 33 m 420 637 q 391 648 402 637 q 380 675 380 659 q 391 704 380 693 q 420 715 402 715 q 449 704 437 715 q 460 675 460 693 q 449 648 460 659 q 420 637 437 637 z "},"h":{"ha":812,"x_min":108,"x_max":713,"o":"m 136 0 q 113 16 117 0 q 108 49 108 31 l 108 708 q 113 740 108 724 q 136 755 117 755 q 157 741 153 755 q 162 708 162 726 l 162 403 q 207 469 174 444 q 283 509 239 495 q 371 528 326 523 q 450 533 416 533 q 605 510 548 533 q 688 432 663 486 q 713 283 713 378 l 713 49 q 708 16 713 31 q 687 0 703 0 q 663 16 667 0 q 659 49 659 31 l 659 283 q 643 400 659 354 q 582 470 627 447 q 450 493 537 493 q 337 481 398 493 q 227 439 276 469 q 162 355 178 409 l 162 49 q 157 16 162 31 q 136 0 153 0 z "},"ħ":{"ha":736,"x_min":0,"x_max":673,"o":"m 97 0 q 73 16 78 0 q 68 49 68 31 l 68 618 l 19 618 q 0 639 0 618 q 19 659 0 659 l 68 659 l 68 708 q 73 740 68 724 q 97 755 78 755 q 118 741 113 755 q 123 708 123 726 l 123 659 l 295 659 q 314 639 314 659 q 295 618 314 618 l 123 618 l 123 403 q 167 469 134 444 q 243 509 200 495 q 332 528 287 523 q 411 533 376 533 q 566 510 509 533 q 648 432 623 486 q 673 283 673 378 l 673 49 q 669 16 673 31 q 648 0 664 0 q 624 16 628 0 q 619 49 619 31 l 619 283 q 603 400 619 354 q 543 470 587 447 q 411 493 498 493 q 298 481 359 493 q 188 439 237 469 q 123 355 139 409 l 123 49 q 118 16 123 31 q 97 0 113 0 z "},"ĥ":{"ha":812,"x_min":108,"x_max":713,"o":"m 136 0 q 113 16 117 0 q 108 49 108 31 l 108 708 q 113 740 108 724 q 136 755 117 755 q 157 741 153 755 q 162 708 162 726 l 162 403 q 207 469 174 444 q 283 509 239 495 q 371 528 326 523 q 450 533 416 533 q 605 510 548 533 q 688 432 663 486 q 713 283 713 378 l 713 49 q 708 16 713 31 q 687 0 703 0 q 663 16 667 0 q 659 49 659 31 l 659 283 q 643 400 659 354 q 582 470 627 447 q 450 493 537 493 q 337 481 398 493 q 227 439 276 469 q 162 355 178 409 l 162 49 q 157 16 162 31 q 136 0 153 0 m 297 616 q 278 624 286 616 q 278 644 271 632 l 370 796 q 406 822 387 822 q 442 796 426 822 l 534 644 q 534 624 541 632 q 515 616 526 616 q 478 644 492 616 l 406 785 l 334 644 q 297 616 319 616 z "},"i":{"ha":212,"x_min":66,"x_max":146,"o":"m 106 0 q 83 12 87 0 q 79 43 79 23 l 79 478 q 83 512 79 498 q 106 526 87 526 q 128 511 123 526 q 133 479 133 497 l 133 43 q 129 13 133 25 q 106 0 125 0 m 105 637 q 77 648 87 637 q 66 675 66 659 q 77 704 66 693 q 105 715 87 715 q 134 704 122 715 q 146 675 146 693 q 134 648 146 659 q 105 637 122 637 z "},"ı":{"ha":212,"x_min":79,"x_max":133,"o":"m 106 0 q 83 12 87 0 q 79 43 79 23 l 79 478 q 83 512 79 498 q 106 526 87 526 q 128 511 123 526 q 133 479 133 497 l 133 43 q 129 13 133 25 q 106 0 125 0 z "},"í":{"ha":212,"x_min":35,"x_max":264,"o":"m 106 0 q 83 12 87 0 q 79 43 79 23 l 79 478 q 83 512 79 498 q 106 526 87 526 q 128 511 123 526 q 133 479 133 497 l 133 43 q 129 13 133 25 q 106 0 125 0 m 53 615 q 35 633 35 615 q 40 645 35 640 l 211 832 q 228 840 218 840 q 254 827 243 840 q 264 800 264 815 q 254 781 264 789 l 63 618 q 53 615 58 615 z "},"ĭ":{"ha":212,"x_min":-26,"x_max":238,"o":"m 106 0 q 83 12 87 0 q 79 43 79 23 l 79 478 q 83 512 79 498 q 106 526 87 526 q 128 511 123 526 q 133 479 133 497 l 133 43 q 129 13 133 25 q 106 0 125 0 m 106 616 q 28 635 58 616 q -14 684 -1 655 q -26 739 -26 712 q -22 761 -26 751 q -1 770 -18 770 q 17 761 13 770 q 21 739 21 752 q 39 681 21 708 q 106 654 57 654 q 173 681 155 654 q 191 739 191 708 q 195 761 191 752 q 213 770 199 770 q 234 761 229 770 q 238 739 238 751 q 225 684 238 712 q 183 635 212 655 q 106 616 155 616 z "},"î":{"ha":212,"x_min":-30,"x_max":241,"o":"m 106 0 q 83 12 87 0 q 79 43 79 23 l 79 478 q 83 512 79 498 q 106 526 87 526 q 128 511 123 526 q 133 479 133 497 l 133 43 q 129 13 133 25 q 106 0 125 0 m -3 616 q -22 624 -15 616 q -22 644 -30 632 l 70 796 q 106 822 86 822 q 142 796 125 822 l 233 644 q 233 624 241 632 q 214 616 226 616 q 178 644 192 616 l 106 785 l 33 644 q -3 616 18 616 z "},"ȉ":{"ha":212,"x_min":-172,"x_max":213,"o":"m 106 0 q 83 12 87 0 q 79 43 79 23 l 79 478 q 83 512 79 498 q 106 526 87 526 q 128 511 123 526 q 133 479 133 497 l 133 43 q 129 13 133 25 q 106 0 125 0 m 195 616 q 184 619 189 616 l -7 782 q -17 801 -17 790 q -8 823 -17 813 q 13 833 1 833 q 30 826 22 833 l 208 646 q 213 633 213 640 q 195 616 213 616 m 40 616 q 30 619 35 616 l -161 782 q -172 801 -172 790 q -163 823 -172 813 q -142 833 -154 833 q -125 826 -132 833 l 53 646 q 58 633 58 640 q 40 616 58 616 z "},"ï":{"ha":212,"x_min":-16,"x_max":227,"o":"m 106 0 q 83 12 87 0 q 79 43 79 23 l 79 478 q 83 512 79 498 q 106 526 87 526 q 128 511 123 526 q 133 479 133 497 l 133 43 q 129 13 133 25 q 106 0 125 0 m 186 637 q 157 648 168 637 q 146 675 146 659 q 157 704 146 693 q 186 715 168 715 q 215 704 203 715 q 227 675 227 693 q 215 648 227 659 q 186 637 203 637 m 24 637 q -5 648 6 637 q -16 675 -16 659 q -5 704 -16 693 q 24 715 6 715 q 53 704 41 715 q 64 675 64 693 q 53 648 64 659 q 24 637 41 637 z "},"ì":{"ha":212,"x_min":-53,"x_max":177,"o":"m 106 0 q 83 12 87 0 q 79 43 79 23 l 79 478 q 83 512 79 498 q 106 526 87 526 q 128 511 123 526 q 133 479 133 497 l 133 43 q 129 13 133 25 q 106 0 125 0 m 159 616 q 149 620 153 616 l -43 783 q -53 802 -53 791 q -42 829 -53 817 q -16 841 -31 841 q 1 833 -7 841 l 172 646 q 177 634 177 641 q 159 616 177 616 z "},"ȋ":{"ha":212,"x_min":-24,"x_max":236,"o":"m 106 0 q 83 12 87 0 q 79 43 79 23 l 79 478 q 83 512 79 498 q 106 526 87 526 q 128 511 123 526 q 133 479 133 497 l 133 43 q 129 13 133 25 q 106 0 125 0 m -1 616 q -20 626 -16 616 q -24 647 -24 636 q -12 703 -24 674 q 29 751 0 731 q 106 770 58 770 q 183 751 155 770 q 224 703 212 731 q 236 647 236 674 q 232 626 236 636 q 213 616 228 616 q 196 625 200 616 q 193 647 193 634 q 174 707 193 678 q 106 735 155 735 q 38 707 57 735 q 19 647 19 678 q 15 625 19 634 q -1 616 12 616 z "},"ī":{"ha":212,"x_min":-32,"x_max":243,"o":"m 106 0 q 83 12 87 0 q 79 43 79 23 l 79 478 q 83 512 79 498 q 106 526 87 526 q 128 511 123 526 q 133 479 133 497 l 133 43 q 129 13 133 25 q 106 0 125 0 m -10 627 q -27 635 -22 627 q -32 648 -32 643 q -27 663 -32 654 q -10 671 -22 671 l 222 671 q 239 663 234 671 q 243 648 243 654 q 239 635 243 643 q 222 627 234 627 l -10 627 z "},"į":{"ha":212,"x_min":14,"x_max":163,"o":"m 106 0 q 83 12 87 0 q 79 43 79 23 l 79 478 q 83 512 79 498 q 106 526 87 526 q 128 511 123 526 q 133 479 133 497 l 133 43 q 129 13 133 25 q 106 0 125 0 m 105 637 q 77 648 87 637 q 66 675 66 659 q 77 704 66 693 q 105 715 87 715 q 134 704 122 715 q 146 675 146 693 q 134 648 146 659 q 105 637 122 637 m 78 -186 q 34 -171 55 -186 q 14 -121 14 -156 q 38 -56 14 -88 q 101 7 63 -24 l 121 7 q 86 -50 98 -21 q 74 -100 74 -78 q 86 -138 74 -127 q 109 -149 98 -149 q 135 -141 122 -149 q 157 -128 148 -134 l 163 -134 q 128 -172 152 -158 q 78 -186 104 -186 z "},"ĩ":{"ha":212,"x_min":-51,"x_max":262,"o":"m 106 0 q 83 12 87 0 q 79 43 79 23 l 79 478 q 83 512 79 498 q 106 526 87 526 q 128 511 123 526 q 133 479 133 497 l 133 43 q 129 13 133 25 q 106 0 125 0 m -28 616 q -47 626 -43 616 q -51 647 -51 636 q -36 696 -51 676 q 16 715 -21 715 q 83 701 54 715 q 140 670 113 686 q 195 655 167 655 q 212 661 205 655 q 219 685 219 666 q 223 706 219 697 q 239 715 227 715 q 258 706 254 715 q 262 684 262 696 q 247 635 262 655 q 195 616 232 616 q 134 631 170 616 q 66 661 99 646 q 16 676 34 676 q -1 671 6 676 q -8 646 -8 665 q -12 625 -8 634 q -28 616 -16 616 z "},"ĳ":{"ha":539,"x_min":66,"x_max":469,"o":"m 106 0 q 83 12 87 0 q 79 43 79 23 l 79 478 q 83 512 79 498 q 106 526 87 526 q 128 511 123 526 q 133 479 133 497 l 133 43 q 129 13 133 25 q 106 0 125 0 m 105 637 q 77 648 87 637 q 66 675 66 659 q 77 704 66 693 q 105 715 87 715 q 134 704 122 715 q 146 675 146 693 q 134 648 146 659 q 105 637 122 637 m 256 -180 q 225 -177 239 -180 q 212 -157 212 -174 q 225 -136 212 -139 q 256 -134 239 -134 q 342 -116 313 -134 q 385 -70 372 -99 q 399 -6 397 -41 q 401 64 401 28 l 401 484 q 406 514 401 502 q 429 526 411 526 q 452 514 448 526 q 455 484 455 502 l 455 64 q 451 -14 455 28 q 429 -94 447 -56 q 370 -156 411 -132 q 256 -180 330 -180 m 428 637 q 399 648 410 637 q 389 675 389 659 q 399 704 389 693 q 428 715 410 715 q 457 704 445 715 q 469 675 469 693 q 457 648 469 659 q 428 637 445 637 z "},"j":{"ha":328,"x_min":0,"x_max":257,"o":"m 45 -180 q 14 -177 27 -180 q 0 -157 0 -174 q 14 -136 0 -139 q 45 -134 27 -134 q 131 -116 101 -134 q 173 -70 161 -99 q 187 -6 185 -41 q 189 64 189 28 l 189 484 q 194 514 189 502 q 217 526 199 526 q 240 514 237 526 q 243 484 243 502 l 243 64 q 239 -14 243 28 q 217 -94 235 -56 q 159 -156 199 -132 q 45 -180 118 -180 m 216 637 q 188 648 199 637 q 177 675 177 659 q 188 704 177 693 q 216 715 199 715 q 245 704 233 715 q 257 675 257 693 q 245 648 257 659 q 216 637 233 637 z "},"ȷ":{"ha":328,"x_min":0,"x_max":243,"o":"m 45 -180 q 14 -177 27 -180 q 0 -157 0 -174 q 14 -136 0 -139 q 45 -134 27 -134 q 131 -116 101 -134 q 173 -70 161 -99 q 187 -6 185 -41 q 189 64 189 28 l 189 484 q 194 514 189 502 q 217 526 199 526 q 240 514 237 526 q 243 484 243 502 l 243 64 q 239 -14 243 28 q 217 -94 235 -56 q 159 -156 199 -132 q 45 -180 118 -180 z "},"ĵ":{"ha":328,"x_min":0,"x_max":352,"o":"m 45 -180 q 14 -177 27 -180 q 0 -157 0 -174 q 14 -136 0 -139 q 45 -134 27 -134 q 131 -116 101 -134 q 173 -70 161 -99 q 187 -6 185 -41 q 189 64 189 28 l 189 484 q 194 514 189 502 q 217 526 199 526 q 240 514 237 526 q 243 484 243 502 l 243 64 q 239 -14 243 28 q 217 -94 235 -56 q 159 -156 199 -132 q 45 -180 118 -180 m 108 616 q 89 624 96 616 q 89 644 81 632 l 181 796 q 217 822 197 822 q 253 796 237 822 l 345 644 q 345 624 352 632 q 326 616 337 616 q 289 644 303 616 l 217 785 l 144 644 q 108 616 130 616 z "},"k":{"ha":677,"x_min":109,"x_max":622,"o":"m 136 0 q 118 7 127 0 q 109 30 109 14 l 109 726 q 118 746 109 739 q 137 753 128 753 q 155 746 146 753 q 163 726 163 739 l 163 278 l 587 525 q 596 527 591 527 q 611 520 605 527 q 616 506 616 513 q 605 490 616 497 l 307 313 l 613 40 q 622 20 622 32 q 600 0 622 0 q 577 11 589 0 l 266 292 l 163 234 l 163 30 q 154 7 163 14 q 136 0 145 0 z "},"ķ":{"ha":677,"x_min":109,"x_max":622,"o":"m 136 0 q 118 7 127 0 q 109 30 109 14 l 109 726 q 118 746 109 739 q 137 753 128 753 q 155 746 146 753 q 163 726 163 739 l 163 278 l 587 525 q 596 527 591 527 q 611 520 605 527 q 616 506 616 513 q 605 490 616 497 l 307 313 l 613 40 q 622 20 622 32 q 600 0 622 0 q 577 11 589 0 l 266 292 l 163 234 l 163 30 q 154 7 163 14 q 136 0 145 0 m 317 -240 q 300 -227 300 -240 q 315 -216 300 -216 q 355 -180 355 -214 q 347 -168 355 -172 q 330 -155 340 -165 q 319 -125 319 -145 q 334 -95 319 -105 q 367 -85 348 -85 q 398 -97 382 -85 q 413 -135 413 -109 q 387 -205 413 -170 q 317 -240 361 -240 z "},"ĸ":{"ha":625,"x_min":68,"x_max":602,"o":"m 95 0 q 77 7 86 0 q 68 30 68 14 l 68 500 q 78 520 68 513 q 96 527 87 527 q 114 520 106 527 q 122 500 122 513 l 122 261 l 574 524 q 583 526 578 526 q 597 519 591 526 q 602 504 602 512 q 591 488 602 493 l 315 321 l 591 41 q 600 22 600 33 q 578 1 600 1 q 555 12 566 1 l 273 301 l 122 216 l 122 30 q 113 7 122 14 q 95 0 104 0 z "},"l":{"ha":271,"x_min":109,"x_max":163,"o":"m 136 0 q 113 14 117 0 q 109 46 109 28 l 109 707 q 113 741 109 726 q 138 755 117 755 q 159 741 155 755 q 163 708 163 726 l 163 47 q 158 14 163 28 q 136 0 153 0 z "},"ĺ":{"ha":271,"x_min":71,"x_max":301,"o":"m 136 0 q 113 14 117 0 q 109 46 109 28 l 109 707 q 113 741 109 726 q 138 755 117 755 q 159 741 155 755 q 163 708 163 726 l 163 47 q 158 14 163 28 q 136 0 153 0 m 90 831 q 71 848 71 831 q 77 861 71 855 l 248 1048 q 264 1055 255 1055 q 290 1043 279 1055 q 301 1016 301 1031 q 291 997 301 1005 l 100 834 q 90 831 95 831 z "},"ľ":{"ha":271,"x_min":109,"x_max":387,"o":"m 136 0 q 113 14 117 0 q 109 46 109 28 l 109 707 q 113 741 109 726 q 138 755 117 755 q 159 741 155 755 q 163 708 163 726 l 163 47 q 158 14 163 28 q 136 0 153 0 m 291 601 q 275 614 275 601 q 289 625 275 625 q 329 661 329 627 q 321 673 329 669 q 304 686 314 676 q 294 716 294 696 q 308 746 294 736 q 341 756 322 756 q 372 744 357 756 q 387 706 387 732 q 361 636 387 671 q 291 601 335 601 z "},"ļ":{"ha":271,"x_min":69,"x_max":182,"o":"m 136 0 q 113 14 117 0 q 109 46 109 28 l 109 707 q 113 741 109 726 q 138 755 117 755 q 159 741 155 755 q 163 708 163 726 l 163 47 q 158 14 163 28 q 136 0 153 0 m 85 -240 q 69 -227 69 -240 q 83 -216 69 -216 q 123 -180 123 -214 q 115 -168 123 -172 q 98 -155 109 -165 q 88 -125 88 -145 q 102 -95 88 -105 q 136 -85 117 -85 q 166 -97 151 -85 q 182 -135 182 -109 q 156 -205 182 -170 q 85 -240 130 -240 z "},"ŀ":{"ha":439,"x_min":109,"x_max":406,"o":"m 136 0 q 113 14 117 0 q 109 46 109 28 l 109 707 q 113 741 109 726 q 138 755 117 755 q 159 741 155 755 q 163 708 163 726 l 163 47 q 158 14 163 28 q 136 0 153 0 m 361 298 q 329 310 341 298 q 317 340 317 321 q 329 372 317 360 q 361 385 341 385 q 392 372 379 385 q 406 340 406 360 q 392 310 406 321 q 361 298 379 298 z "},"ǉ":{"ha":598,"x_min":109,"x_max":528,"o":"m 136 0 q 113 14 117 0 q 109 46 109 28 l 109 707 q 113 741 109 726 q 138 755 117 755 q 159 741 155 755 q 163 708 163 726 l 163 47 q 158 14 163 28 q 136 0 153 0 m 315 -180 q 284 -177 298 -180 q 271 -157 271 -174 q 284 -136 271 -139 q 315 -134 298 -134 q 401 -116 372 -134 q 444 -70 431 -99 q 458 -6 456 -41 q 460 64 460 28 l 460 484 q 465 514 460 502 q 488 526 470 526 q 511 514 507 526 q 514 484 514 502 l 514 64 q 510 -14 514 28 q 488 -94 506 -56 q 429 -156 470 -132 q 315 -180 389 -180 m 487 637 q 458 648 469 637 q 448 675 448 659 q 458 704 448 693 q 487 715 469 715 q 516 704 504 715 q 528 675 528 693 q 516 648 528 659 q 487 637 504 637 z "},"ł":{"ha":352,"x_min":-6,"x_max":372,"o":"m 177 1 q 156 13 161 1 q 151 43 151 24 q 152 64 151 53 q 153 87 153 76 l 153 396 l 7 332 l -6 375 l 153 446 l 153 708 q 155 742 153 729 q 177 755 158 755 q 198 742 195 755 q 201 708 201 728 l 201 467 l 358 533 l 372 490 l 201 415 l 201 49 q 198 15 201 29 q 177 1 195 1 z "},"m":{"ha":1105,"x_min":108,"x_max":1006,"o":"m 138 0 q 118 5 129 0 q 108 35 108 9 l 108 486 q 117 514 108 508 q 136 519 127 519 q 154 514 147 519 q 161 486 161 508 l 161 403 q 251 499 183 465 q 408 533 319 533 q 511 510 477 533 q 558 457 545 487 q 575 406 571 427 q 623 464 591 435 q 704 513 654 493 q 823 533 753 533 q 961 485 916 533 q 1006 332 1006 437 l 1006 35 q 997 6 1006 12 q 979 0 987 0 q 960 5 969 0 q 951 35 951 9 l 951 332 q 920 459 951 426 q 824 493 888 493 q 680 458 737 493 q 585 361 623 422 l 585 35 q 576 6 585 12 q 559 0 567 0 q 540 5 549 0 q 530 35 530 9 l 530 361 q 502 458 530 422 q 409 493 473 493 q 246 453 313 493 q 162 358 178 413 l 162 35 q 154 6 162 12 q 138 0 146 0 z "},"n":{"ha":808,"x_min":108,"x_max":709,"o":"m 137 0 q 113 16 118 0 q 108 49 108 31 l 108 488 q 113 510 108 500 q 136 519 117 519 q 158 510 153 519 q 162 488 162 501 l 162 414 q 250 492 200 467 q 351 525 299 517 q 450 533 404 533 q 603 510 547 533 q 684 432 660 486 q 709 283 709 378 l 709 49 q 703 16 709 31 q 681 0 697 0 q 658 16 661 0 q 654 49 654 31 l 654 283 q 639 400 654 354 q 579 470 623 447 q 448 493 534 493 q 335 481 395 493 q 227 439 275 469 q 162 355 178 409 l 162 49 q 158 16 162 31 q 137 0 154 0 z "},"ń":{"ha":808,"x_min":108,"x_max":709,"o":"m 137 0 q 113 16 118 0 q 108 49 108 31 l 108 488 q 113 510 108 500 q 136 519 117 519 q 158 510 153 519 q 162 488 162 501 l 162 414 q 250 492 200 467 q 351 525 299 517 q 450 533 404 533 q 603 510 547 533 q 684 432 660 486 q 709 283 709 378 l 709 49 q 703 16 709 31 q 681 0 697 0 q 658 16 661 0 q 654 49 654 31 l 654 283 q 639 400 654 354 q 579 470 623 447 q 448 493 534 493 q 335 481 395 493 q 227 439 275 469 q 162 355 178 409 l 162 49 q 158 16 162 31 q 137 0 154 0 m 351 615 q 333 633 333 615 q 338 645 333 640 l 509 832 q 526 840 517 840 q 552 827 541 840 q 563 800 563 815 q 553 781 563 789 l 361 618 q 351 615 357 615 z "},"ň":{"ha":808,"x_min":108,"x_max":709,"o":"m 137 0 q 113 16 118 0 q 108 49 108 31 l 108 488 q 113 510 108 500 q 136 519 117 519 q 158 510 153 519 q 162 488 162 501 l 162 414 q 250 492 200 467 q 351 525 299 517 q 450 533 404 533 q 603 510 547 533 q 684 432 660 486 q 709 283 709 378 l 709 49 q 703 16 709 31 q 681 0 697 0 q 658 16 661 0 q 654 49 654 31 l 654 283 q 639 400 654 354 q 579 470 623 447 q 448 493 534 493 q 335 481 395 493 q 227 439 275 469 q 162 355 178 409 l 162 49 q 158 16 162 31 q 137 0 154 0 m 404 616 q 368 642 385 616 l 276 793 q 276 814 269 806 q 295 822 283 822 q 332 794 317 822 l 404 653 l 476 794 q 513 822 490 822 q 532 814 524 822 q 532 793 539 806 l 440 642 q 404 616 423 616 z "},"ņ":{"ha":808,"x_min":108,"x_max":709,"o":"m 137 0 q 113 16 118 0 q 108 49 108 31 l 108 488 q 113 510 108 500 q 136 519 117 519 q 158 510 153 519 q 162 488 162 501 l 162 414 q 250 492 200 467 q 351 525 299 517 q 450 533 404 533 q 603 510 547 533 q 684 432 660 486 q 709 283 709 378 l 709 49 q 703 16 709 31 q 681 0 697 0 q 658 16 661 0 q 654 49 654 31 l 654 283 q 639 400 654 354 q 579 470 623 447 q 448 493 534 493 q 335 481 395 493 q 227 439 275 469 q 162 355 178 409 l 162 49 q 158 16 162 31 q 137 0 154 0 m 354 -240 q 338 -227 338 -240 q 352 -216 338 -216 q 392 -180 392 -214 q 384 -168 392 -172 q 367 -155 377 -165 q 357 -125 357 -145 q 371 -95 357 -105 q 404 -85 385 -85 q 435 -97 420 -85 q 450 -135 450 -109 q 424 -205 450 -170 q 354 -240 398 -240 z "},"ǌ":{"ha":1136,"x_min":108,"x_max":1065,"o":"m 137 0 q 113 16 118 0 q 108 49 108 31 l 108 488 q 113 510 108 500 q 136 519 117 519 q 158 510 153 519 q 162 488 162 501 l 162 414 q 250 492 200 467 q 351 525 299 517 q 450 533 404 533 q 603 510 547 533 q 684 432 660 486 q 709 283 709 378 l 709 49 q 703 16 709 31 q 681 0 697 0 q 658 16 661 0 q 654 49 654 31 l 654 283 q 639 400 654 354 q 579 470 623 447 q 448 493 534 493 q 335 481 395 493 q 227 439 275 469 q 162 355 178 409 l 162 49 q 158 16 162 31 q 137 0 154 0 m 853 -180 q 822 -177 836 -180 q 808 -157 808 -174 q 822 -136 808 -139 q 853 -134 836 -134 q 939 -116 909 -134 q 981 -70 969 -99 q 996 -6 994 -41 q 998 64 998 28 l 998 484 q 1003 514 998 502 q 1025 526 1008 526 q 1048 514 1045 526 q 1052 484 1052 502 l 1052 64 q 1048 -14 1052 28 q 1026 -94 1044 -56 q 967 -156 1008 -132 q 853 -180 926 -180 m 1025 637 q 996 648 1007 637 q 985 675 985 659 q 996 704 985 693 q 1025 715 1007 715 q 1054 704 1042 715 q 1065 675 1065 693 q 1054 648 1065 659 q 1025 637 1042 637 z "},"ñ":{"ha":808,"x_min":108,"x_max":709,"o":"m 137 0 q 113 16 118 0 q 108 49 108 31 l 108 488 q 113 510 108 500 q 136 519 117 519 q 158 510 153 519 q 162 488 162 501 l 162 414 q 250 492 200 467 q 351 525 299 517 q 450 533 404 533 q 603 510 547 533 q 684 432 660 486 q 709 283 709 378 l 709 49 q 703 16 709 31 q 681 0 697 0 q 658 16 661 0 q 654 49 654 31 l 654 283 q 639 400 654 354 q 579 470 623 447 q 448 493 534 493 q 335 481 395 493 q 227 439 275 469 q 162 355 178 409 l 162 49 q 158 16 162 31 q 137 0 154 0 m 271 616 q 252 626 256 616 q 248 647 248 636 q 262 696 248 676 q 315 715 277 715 q 382 701 352 715 q 438 670 412 686 q 493 655 465 655 q 510 661 503 655 q 517 685 517 666 q 522 706 517 697 q 537 715 526 715 q 556 706 552 715 q 560 684 560 696 q 545 635 560 655 q 493 616 530 616 q 433 631 468 616 q 365 661 397 646 q 315 676 332 676 q 297 671 304 676 q 290 646 290 665 q 286 625 290 634 q 271 616 282 616 z "},"ŋ":{"ha":779,"x_min":108,"x_max":709,"o":"m 137 0 q 113 16 118 0 q 108 49 108 31 l 108 488 q 113 510 108 500 q 136 519 117 519 q 158 510 153 519 q 162 488 162 501 l 162 414 q 250 492 200 467 q 351 525 299 517 q 450 533 404 533 q 603 510 547 533 q 684 432 660 486 q 709 283 709 378 l 709 43 q 703 -31 709 8 q 678 -104 697 -70 q 618 -159 659 -138 q 510 -180 578 -180 q 479 -177 492 -180 q 465 -157 465 -174 q 479 -136 465 -139 q 510 -134 492 -134 q 610 -108 579 -134 q 647 -42 640 -82 q 654 42 654 -1 l 654 283 q 639 400 654 354 q 579 470 623 447 q 448 493 534 493 q 335 481 395 493 q 227 439 275 469 q 162 355 178 409 l 162 49 q 158 16 162 31 q 137 0 154 0 z "},"o":{"ha":841,"x_min":83,"x_max":758,"o":"m 420 -7 q 222 26 296 -7 q 116 118 148 58 q 83 261 83 178 q 165 469 83 405 q 420 533 247 533 q 676 469 594 533 q 758 261 758 405 q 725 118 758 178 q 619 26 693 58 q 420 -7 545 -7 m 420 33 q 569 53 513 33 q 654 106 625 73 q 693 179 683 139 q 703 261 703 220 q 636 440 703 387 q 420 493 569 493 q 205 440 272 493 q 138 261 138 387 q 148 179 138 220 q 187 106 158 139 q 272 53 216 73 q 420 33 328 33 z "},"ó":{"ha":841,"x_min":83,"x_max":758,"o":"m 420 -7 q 222 26 296 -7 q 116 118 148 58 q 83 261 83 178 q 165 469 83 405 q 420 533 247 533 q 676 469 594 533 q 758 261 758 405 q 725 118 758 178 q 619 26 693 58 q 420 -7 545 -7 m 420 33 q 569 53 513 33 q 654 106 625 73 q 693 179 683 139 q 703 261 703 220 q 636 440 703 387 q 420 493 569 493 q 205 440 272 493 q 138 261 138 387 q 148 179 138 220 q 187 106 158 139 q 272 53 216 73 q 420 33 328 33 m 368 615 q 349 633 349 615 q 355 645 349 640 l 526 832 q 543 840 533 840 q 568 827 557 840 q 579 800 579 815 q 569 781 579 789 l 378 618 q 368 615 373 615 z "},"ŏ":{"ha":841,"x_min":83,"x_max":758,"o":"m 420 -7 q 222 26 296 -7 q 116 118 148 58 q 83 261 83 178 q 165 469 83 405 q 420 533 247 533 q 676 469 594 533 q 758 261 758 405 q 725 118 758 178 q 619 26 693 58 q 420 -7 545 -7 m 420 33 q 569 53 513 33 q 654 106 625 73 q 693 179 683 139 q 703 261 703 220 q 636 440 703 387 q 420 493 569 493 q 205 440 272 493 q 138 261 138 387 q 148 179 138 220 q 187 106 158 139 q 272 53 216 73 q 420 33 328 33 m 420 616 q 343 635 372 616 q 301 684 314 655 q 288 739 288 712 q 293 761 288 751 q 313 770 297 770 q 332 761 328 770 q 336 739 336 752 q 354 681 336 708 q 420 654 372 654 q 487 681 469 654 q 505 739 505 708 q 509 761 505 752 q 528 770 513 770 q 548 761 544 770 q 553 739 553 751 q 540 684 553 712 q 498 635 527 655 q 420 616 469 616 z "},"ô":{"ha":841,"x_min":83,"x_max":758,"o":"m 420 -7 q 222 26 296 -7 q 116 118 148 58 q 83 261 83 178 q 165 469 83 405 q 420 533 247 533 q 676 469 594 533 q 758 261 758 405 q 725 118 758 178 q 619 26 693 58 q 420 -7 545 -7 m 420 33 q 569 53 513 33 q 654 106 625 73 q 693 179 683 139 q 703 261 703 220 q 636 440 703 387 q 420 493 569 493 q 205 440 272 493 q 138 261 138 387 q 148 179 138 220 q 187 106 158 139 q 272 53 216 73 q 420 33 328 33 m 311 616 q 292 624 300 616 q 292 644 285 632 l 385 796 q 420 822 401 822 q 456 796 440 822 l 548 644 q 548 624 555 632 q 529 616 541 616 q 492 644 507 616 l 420 785 l 348 644 q 311 616 333 616 z "},"ȍ":{"ha":841,"x_min":83,"x_max":758,"o":"m 420 -7 q 222 26 296 -7 q 116 118 148 58 q 83 261 83 178 q 165 469 83 405 q 420 533 247 533 q 676 469 594 533 q 758 261 758 405 q 725 118 758 178 q 619 26 693 58 q 420 -7 545 -7 m 420 33 q 569 53 513 33 q 654 106 625 73 q 693 179 683 139 q 703 261 703 220 q 636 440 703 387 q 420 493 569 493 q 205 440 272 493 q 138 261 138 387 q 148 179 138 220 q 187 106 158 139 q 272 53 216 73 q 420 33 328 33 m 509 616 q 499 619 504 616 l 308 782 q 298 801 298 790 q 307 823 298 813 q 328 833 315 833 q 345 826 337 833 l 522 646 q 528 633 528 640 q 509 616 528 616 m 355 616 q 345 619 349 616 l 153 782 q 143 801 143 790 q 152 823 143 813 q 173 833 161 833 q 190 826 182 833 l 368 646 q 373 633 373 640 q 355 616 373 616 z "},"ö":{"ha":841,"x_min":83,"x_max":758,"o":"m 420 -7 q 222 26 296 -7 q 116 118 148 58 q 83 261 83 178 q 165 469 83 405 q 420 533 247 533 q 676 469 594 533 q 758 261 758 405 q 725 118 758 178 q 619 26 693 58 q 420 -7 545 -7 m 420 33 q 569 53 513 33 q 654 106 625 73 q 693 179 683 139 q 703 261 703 220 q 636 440 703 387 q 420 493 569 493 q 205 440 272 493 q 138 261 138 387 q 148 179 138 220 q 187 106 158 139 q 272 53 216 73 q 420 33 328 33 m 555 637 q 526 648 537 637 q 515 675 515 659 q 526 704 515 693 q 555 715 537 715 q 584 704 572 715 q 595 675 595 693 q 584 648 595 659 q 555 637 572 637 m 284 637 q 256 648 267 637 q 245 675 245 659 q 256 704 245 693 q 284 715 267 715 q 313 704 301 715 q 325 675 325 693 q 313 648 325 659 q 284 637 301 637 z "},"ò":{"ha":841,"x_min":83,"x_max":758,"o":"m 420 -7 q 222 26 296 -7 q 116 118 148 58 q 83 261 83 178 q 165 469 83 405 q 420 533 247 533 q 676 469 594 533 q 758 261 758 405 q 725 118 758 178 q 619 26 693 58 q 420 -7 545 -7 m 420 33 q 569 53 513 33 q 654 106 625 73 q 693 179 683 139 q 703 261 703 220 q 636 440 703 387 q 420 493 569 493 q 205 440 272 493 q 138 261 138 387 q 148 179 138 220 q 187 106 158 139 q 272 53 216 73 q 420 33 328 33 m 473 616 q 463 620 468 616 l 272 783 q 262 802 262 791 q 273 829 262 817 q 298 841 283 841 q 315 833 308 841 l 486 646 q 492 634 492 641 q 473 616 492 616 z "},"ő":{"ha":841,"x_min":83,"x_max":758,"o":"m 420 -7 q 222 26 296 -7 q 116 118 148 58 q 83 261 83 178 q 165 469 83 405 q 420 533 247 533 q 676 469 594 533 q 758 261 758 405 q 725 118 758 178 q 619 26 693 58 q 420 -7 545 -7 m 420 33 q 569 53 513 33 q 654 106 625 73 q 693 179 683 139 q 703 261 703 220 q 636 440 703 387 q 420 493 569 493 q 205 440 272 493 q 138 261 138 387 q 148 179 138 220 q 187 106 158 139 q 272 53 216 73 q 420 33 328 33 m 492 614 q 474 632 474 614 q 479 644 474 639 l 659 825 q 675 832 666 832 q 699 821 688 832 q 711 798 711 810 q 701 779 711 787 l 503 618 q 492 614 498 614 m 338 614 q 319 632 319 614 q 325 644 319 639 l 504 825 q 521 832 511 832 q 545 821 533 832 q 556 798 556 810 q 546 779 556 787 l 348 618 q 338 614 343 614 z "},"ȏ":{"ha":841,"x_min":83,"x_max":758,"o":"m 420 -7 q 222 26 296 -7 q 116 118 148 58 q 83 261 83 178 q 165 469 83 405 q 420 533 247 533 q 676 469 594 533 q 758 261 758 405 q 725 118 758 178 q 619 26 693 58 q 420 -7 545 -7 m 420 33 q 569 53 513 33 q 654 106 625 73 q 693 179 683 139 q 703 261 703 220 q 636 440 703 387 q 420 493 569 493 q 205 440 272 493 q 138 261 138 387 q 148 179 138 220 q 187 106 158 139 q 272 53 216 73 q 420 33 328 33 m 313 616 q 294 626 298 616 q 290 647 290 636 q 302 703 290 674 q 343 751 315 731 q 420 770 372 770 q 498 751 469 770 q 538 703 526 731 q 551 647 551 674 q 547 626 551 636 q 528 616 543 616 q 511 625 515 616 q 507 647 507 634 q 488 707 507 678 q 420 735 469 735 q 353 707 372 735 q 334 647 334 678 q 330 625 334 634 q 313 616 326 616 z "},"ō":{"ha":841,"x_min":83,"x_max":758,"o":"m 420 -7 q 222 26 296 -7 q 116 118 148 58 q 83 261 83 178 q 165 469 83 405 q 420 533 247 533 q 676 469 594 533 q 758 261 758 405 q 725 118 758 178 q 619 26 693 58 q 420 -7 545 -7 m 420 33 q 569 53 513 33 q 654 106 625 73 q 693 179 683 139 q 703 261 703 220 q 636 440 703 387 q 420 493 569 493 q 205 440 272 493 q 138 261 138 387 q 148 179 138 220 q 187 106 158 139 q 272 53 216 73 q 420 33 328 33 m 304 627 q 288 635 292 627 q 283 648 283 643 q 288 663 283 654 q 304 671 292 671 l 536 671 q 553 663 549 671 q 558 648 558 654 q 553 635 558 643 q 536 627 549 627 l 304 627 z "},"ø":{"ha":841,"x_min":83,"x_max":758,"o":"m 278 -158 q 258 -150 263 -158 q 253 -134 253 -141 q 255 -120 252 -126 q 261 -105 258 -113 l 302 3 q 133 92 182 24 q 83 261 83 159 q 165 469 83 405 q 420 533 247 533 q 461 532 441 533 q 499 530 481 532 l 539 636 q 550 664 544 652 q 572 675 557 675 q 591 668 587 675 q 595 652 595 661 q 593 637 595 645 q 588 623 591 630 l 550 522 q 707 438 656 501 q 758 261 758 374 q 725 118 758 178 q 619 26 693 58 q 420 -7 545 -7 q 385 -6 402 -7 q 352 -4 368 -5 l 309 -119 q 296 -146 301 -135 q 278 -158 290 -158 m 316 42 l 484 490 q 454 492 469 492 q 420 493 438 493 q 205 440 272 493 q 138 261 138 387 q 150 170 138 215 q 201 91 163 125 q 316 42 239 57 m 420 33 q 569 53 513 33 q 654 106 625 73 q 693 179 683 139 q 703 261 703 220 q 663 413 703 359 q 536 484 623 466 l 367 35 q 420 33 393 33 z "},"õ":{"ha":841,"x_min":83,"x_max":758,"o":"m 420 -7 q 222 26 296 -7 q 116 118 148 58 q 83 261 83 178 q 165 469 83 405 q 420 533 247 533 q 676 469 594 533 q 758 261 758 405 q 725 118 758 178 q 619 26 693 58 q 420 -7 545 -7 m 420 33 q 569 53 513 33 q 654 106 625 73 q 693 179 683 139 q 703 261 703 220 q 636 440 703 387 q 420 493 569 493 q 205 440 272 493 q 138 261 138 387 q 148 179 138 220 q 187 106 158 139 q 272 53 216 73 q 420 33 328 33 m 287 616 q 268 626 272 616 q 264 647 264 636 q 279 696 264 676 q 331 715 294 715 q 398 701 368 715 q 455 670 428 686 q 509 655 481 655 q 527 661 519 655 q 534 685 534 666 q 538 706 534 697 q 553 715 542 715 q 572 706 568 715 q 576 684 576 696 q 562 635 576 655 q 509 616 547 616 q 449 631 484 616 q 381 661 414 646 q 331 676 349 676 q 314 671 321 676 q 307 646 307 665 q 302 625 307 634 q 287 616 298 616 z "},"œ":{"ha":1234,"x_min":83,"x_max":1194,"o":"m 416 -7 q 219 26 292 -7 q 115 118 146 58 q 83 261 83 178 q 163 469 83 405 q 416 533 243 533 q 564 516 507 533 q 655 462 621 498 q 764 517 698 501 q 913 533 831 533 q 1124 479 1054 533 q 1194 325 1194 425 q 1184 282 1194 307 q 1164 257 1175 257 l 675 257 l 675 93 q 765 54 703 74 q 914 33 826 33 q 1002 41 958 33 q 1084 60 1046 49 q 1143 83 1121 72 q 1157 86 1151 86 q 1176 68 1176 86 q 1162 47 1176 55 q 1039 5 1103 17 q 915 -7 975 -7 q 655 65 734 -7 q 567 12 623 30 q 416 -7 511 -7 m 416 33 q 534 43 490 33 q 602 67 578 53 q 634 93 625 81 l 634 440 q 568 475 616 456 q 416 493 519 493 q 203 440 269 493 q 138 261 138 387 q 147 179 138 220 q 184 106 156 139 q 269 53 213 73 q 416 33 324 33 m 675 292 l 1149 292 l 1152 307 q 1154 318 1153 312 q 1154 329 1154 325 q 1131 411 1154 374 q 1055 471 1108 448 q 913 493 1002 493 q 761 474 819 493 q 675 439 703 456 l 675 292 z "},"p":{"ha":851,"x_min":108,"x_max":768,"o":"m 134 -229 q 111 -213 115 -229 q 108 -177 108 -197 l 108 486 q 116 514 108 508 q 134 519 124 519 q 152 514 145 519 q 159 486 159 508 l 159 397 q 207 467 171 440 q 290 508 243 494 q 384 528 336 522 q 467 533 432 533 q 617 509 549 533 q 726 428 685 486 q 768 269 768 371 q 689 55 768 117 q 467 -7 611 -7 q 282 17 357 -7 q 161 66 207 41 l 161 -181 q 157 -214 161 -199 q 134 -229 154 -229 m 467 33 q 655 89 597 33 q 713 269 713 145 q 680 403 713 354 q 591 473 647 452 q 467 493 536 493 q 379 487 427 492 q 286 466 331 481 q 208 425 241 451 q 162 355 174 398 l 162 95 q 297 53 220 73 q 467 33 373 33 z "},"þ":{"ha":811,"x_min":68,"x_max":728,"o":"m 94 -229 q 71 -213 75 -229 q 68 -177 68 -197 l 68 720 q 76 747 68 741 q 93 753 83 753 q 112 747 104 753 q 119 720 119 741 l 119 403 q 166 472 130 446 q 249 511 201 498 q 345 529 297 524 q 427 533 393 533 q 577 508 509 533 q 686 425 645 483 q 728 269 728 368 q 649 56 728 119 q 427 -7 571 -7 q 253 13 331 -7 q 121 53 175 32 l 121 -181 q 117 -214 121 -199 q 94 -229 114 -229 m 427 33 q 615 89 557 33 q 673 269 673 145 q 640 403 673 354 q 551 473 607 452 q 427 493 496 493 q 339 487 387 492 q 246 466 291 481 q 168 425 201 451 q 122 355 134 398 l 122 95 q 257 53 180 73 q 427 33 333 33 z "},"q":{"ha":812,"x_min":83,"x_max":743,"o":"m 715 -229 q 692 -214 696 -229 q 689 -181 689 -199 l 689 79 q 636 41 672 62 q 540 7 601 21 q 384 -7 479 -7 q 162 55 240 -7 q 83 269 83 117 q 125 428 83 371 q 234 509 166 486 q 384 533 302 533 q 467 528 420 533 q 560 508 513 522 q 642 467 606 494 q 689 397 677 440 l 689 484 q 698 513 689 506 q 718 519 707 519 q 735 512 728 519 q 743 483 743 505 l 743 -182 q 739 -216 743 -202 q 715 -229 735 -229 m 384 33 q 534 45 475 33 q 631 76 594 58 q 689 111 668 94 l 689 355 q 643 425 677 398 q 565 466 610 451 q 472 487 520 481 q 384 493 425 492 q 260 473 316 493 q 171 403 204 452 q 138 269 138 354 q 196 89 138 145 q 384 33 254 33 z "},"r":{"ha":549,"x_min":107,"x_max":522,"o":"m 135 0 q 112 15 116 0 q 107 47 107 30 l 107 481 q 113 508 107 497 q 138 519 119 519 q 157 509 153 519 q 161 481 161 498 l 161 403 q 217 486 176 458 q 304 524 257 514 q 387 533 352 533 q 464 528 439 533 q 507 517 488 522 q 522 496 522 513 q 516 480 522 488 q 498 473 510 473 q 495 473 496 473 q 490 474 494 473 q 439 486 464 481 q 387 490 415 490 q 245 458 307 490 q 161 359 183 427 l 161 47 q 157 15 161 30 q 135 0 152 0 z "},"ŕ":{"ha":549,"x_min":107,"x_max":522,"o":"m 135 0 q 112 15 116 0 q 107 47 107 30 l 107 481 q 113 508 107 497 q 138 519 119 519 q 157 509 153 519 q 161 481 161 498 l 161 403 q 217 486 176 458 q 304 524 257 514 q 387 533 352 533 q 464 528 439 533 q 507 517 488 522 q 522 496 522 513 q 516 480 522 488 q 498 473 510 473 q 495 473 496 473 q 490 474 494 473 q 439 486 464 481 q 387 490 415 490 q 245 458 307 490 q 161 359 183 427 l 161 47 q 157 15 161 30 q 135 0 152 0 m 262 615 q 244 633 244 615 q 250 645 244 640 l 420 832 q 437 840 428 840 q 463 827 452 840 q 474 800 474 815 q 464 781 474 789 l 273 618 q 262 615 268 615 z "},"ř":{"ha":549,"x_min":107,"x_max":522,"o":"m 135 0 q 112 15 116 0 q 107 47 107 30 l 107 481 q 113 508 107 497 q 138 519 119 519 q 157 509 153 519 q 161 481 161 498 l 161 403 q 217 486 176 458 q 304 524 257 514 q 387 533 352 533 q 464 528 439 533 q 507 517 488 522 q 522 496 522 513 q 516 480 522 488 q 498 473 510 473 q 495 473 496 473 q 490 474 494 473 q 439 486 464 481 q 387 490 415 490 q 245 458 307 490 q 161 359 183 427 l 161 47 q 157 15 161 30 q 135 0 152 0 m 315 616 q 279 642 296 616 l 187 793 q 187 814 180 806 q 206 822 195 822 q 243 794 228 822 l 315 653 l 387 794 q 424 822 401 822 q 443 814 435 822 q 443 793 450 806 l 351 642 q 315 616 334 616 z "},"ŗ":{"ha":549,"x_min":68,"x_max":522,"o":"m 135 0 q 112 15 116 0 q 107 47 107 30 l 107 481 q 113 508 107 497 q 138 519 119 519 q 157 509 153 519 q 161 481 161 498 l 161 403 q 217 486 176 458 q 304 524 257 514 q 387 533 352 533 q 464 528 439 533 q 507 517 488 522 q 522 496 522 513 q 516 480 522 488 q 498 473 510 473 q 495 473 496 473 q 490 474 494 473 q 439 486 464 481 q 387 490 415 490 q 245 458 307 490 q 161 359 183 427 l 161 47 q 157 15 161 30 q 135 0 152 0 m 85 -240 q 68 -227 68 -240 q 83 -216 68 -216 q 123 -180 123 -214 q 115 -168 123 -172 q 98 -155 108 -165 q 87 -125 87 -145 q 102 -95 87 -105 q 135 -85 116 -85 q 166 -97 151 -85 q 181 -135 181 -109 q 155 -205 181 -170 q 85 -240 129 -240 z "},"ȑ":{"ha":549,"x_min":38,"x_max":522,"o":"m 135 0 q 112 15 116 0 q 107 47 107 30 l 107 481 q 113 508 107 497 q 138 519 119 519 q 157 509 153 519 q 161 481 161 498 l 161 403 q 217 486 176 458 q 304 524 257 514 q 387 533 352 533 q 464 528 439 533 q 507 517 488 522 q 522 496 522 513 q 516 480 522 488 q 498 473 510 473 q 495 473 496 473 q 490 474 494 473 q 439 486 464 481 q 387 490 415 490 q 245 458 307 490 q 161 359 183 427 l 161 47 q 157 15 161 30 q 135 0 152 0 m 404 616 q 394 619 399 616 l 203 782 q 193 801 193 790 q 201 823 193 813 q 222 833 210 833 q 239 826 232 833 l 417 646 q 422 633 422 640 q 404 616 422 616 m 250 616 q 239 619 244 616 l 48 782 q 38 801 38 790 q 47 823 38 813 q 68 833 56 833 q 85 826 77 833 l 262 646 q 268 633 268 640 q 250 616 268 616 z "},"ȓ":{"ha":549,"x_min":107,"x_max":522,"o":"m 135 0 q 112 15 116 0 q 107 47 107 30 l 107 481 q 113 508 107 497 q 138 519 119 519 q 157 509 153 519 q 161 481 161 498 l 161 403 q 217 486 176 458 q 304 524 257 514 q 387 533 352 533 q 464 528 439 533 q 507 517 488 522 q 522 496 522 513 q 516 480 522 488 q 498 473 510 473 q 495 473 496 473 q 490 474 494 473 q 439 486 464 481 q 387 490 415 490 q 245 458 307 490 q 161 359 183 427 l 161 47 q 157 15 161 30 q 135 0 152 0 m 208 616 q 189 626 193 616 q 185 647 185 636 q 197 703 185 674 q 238 751 210 731 q 315 770 267 770 q 393 751 364 770 q 433 703 421 731 q 446 647 446 674 q 441 626 446 636 q 422 616 437 616 q 406 625 410 616 q 402 647 402 634 q 383 707 402 678 q 315 735 364 735 q 248 707 267 735 q 229 647 229 678 q 225 625 229 634 q 208 616 221 616 z "},"s":{"ha":802,"x_min":81,"x_max":727,"o":"m 418 -7 q 312 -3 370 -7 q 199 15 254 1 q 105 59 144 28 q 96 77 96 66 q 113 98 96 98 q 121 96 119 98 q 252 45 178 56 q 412 33 326 33 q 539 43 479 33 q 636 76 599 52 q 673 142 673 100 q 641 203 673 183 q 556 231 608 224 q 440 240 503 239 q 314 244 377 241 q 198 259 250 247 q 113 298 145 271 q 81 378 81 326 q 124 474 81 440 q 234 520 167 507 q 373 533 301 533 q 538 518 460 533 q 681 469 616 503 q 693 450 692 463 q 688 435 693 441 q 675 428 682 428 q 670 429 671 428 q 538 476 612 458 q 376 493 465 493 q 259 483 315 493 q 170 447 204 472 q 135 378 135 422 q 167 320 135 338 q 252 294 199 301 q 368 286 304 288 q 494 281 431 285 q 610 265 557 278 q 695 223 663 252 q 727 142 727 195 q 683 54 727 86 q 569 7 640 22 q 418 -7 498 -7 z "},"ś":{"ha":802,"x_min":81,"x_max":727,"o":"m 418 -7 q 312 -3 370 -7 q 199 15 254 1 q 105 59 144 28 q 96 77 96 66 q 113 98 96 98 q 121 96 119 98 q 252 45 178 56 q 412 33 326 33 q 539 43 479 33 q 636 76 599 52 q 673 142 673 100 q 641 203 673 183 q 556 231 608 224 q 440 240 503 239 q 314 244 377 241 q 198 259 250 247 q 113 298 145 271 q 81 378 81 326 q 124 474 81 440 q 234 520 167 507 q 373 533 301 533 q 538 518 460 533 q 681 469 616 503 q 693 450 692 463 q 688 435 693 441 q 675 428 682 428 q 670 429 671 428 q 538 476 612 458 q 376 493 465 493 q 259 483 315 493 q 170 447 204 472 q 135 378 135 422 q 167 320 135 338 q 252 294 199 301 q 368 286 304 288 q 494 281 431 285 q 610 265 557 278 q 695 223 663 252 q 727 142 727 195 q 683 54 727 86 q 569 7 640 22 q 418 -7 498 -7 m 348 615 q 330 633 330 615 q 335 645 330 640 l 506 832 q 523 840 513 840 q 549 827 538 840 q 559 800 559 815 q 549 781 559 789 l 358 618 q 348 615 353 615 z "},"š":{"ha":802,"x_min":81,"x_max":727,"o":"m 418 -7 q 312 -3 370 -7 q 199 15 254 1 q 105 59 144 28 q 96 77 96 66 q 113 98 96 98 q 121 96 119 98 q 252 45 178 56 q 412 33 326 33 q 539 43 479 33 q 636 76 599 52 q 673 142 673 100 q 641 203 673 183 q 556 231 608 224 q 440 240 503 239 q 314 244 377 241 q 198 259 250 247 q 113 298 145 271 q 81 378 81 326 q 124 474 81 440 q 234 520 167 507 q 373 533 301 533 q 538 518 460 533 q 681 469 616 503 q 693 450 692 463 q 688 435 693 441 q 675 428 682 428 q 670 429 671 428 q 538 476 612 458 q 376 493 465 493 q 259 483 315 493 q 170 447 204 472 q 135 378 135 422 q 167 320 135 338 q 252 294 199 301 q 368 286 304 288 q 494 281 431 285 q 610 265 557 278 q 695 223 663 252 q 727 142 727 195 q 683 54 727 86 q 569 7 640 22 q 418 -7 498 -7 m 401 616 q 365 642 381 616 l 273 793 q 273 814 265 806 q 292 822 280 822 q 328 794 313 822 l 401 653 l 473 794 q 509 822 487 822 q 528 814 521 822 q 528 793 536 806 l 437 642 q 401 616 420 616 z "},"ş":{"ha":802,"x_min":81,"x_max":727,"o":"m 418 -7 q 312 -3 370 -7 q 199 15 254 1 q 105 59 144 28 q 96 77 96 66 q 113 98 96 98 q 121 96 119 98 q 252 45 178 56 q 412 33 326 33 q 539 43 479 33 q 636 76 599 52 q 673 142 673 100 q 641 203 673 183 q 556 231 608 224 q 440 240 503 239 q 314 244 377 241 q 198 259 250 247 q 113 298 145 271 q 81 378 81 326 q 124 474 81 440 q 234 520 167 507 q 373 533 301 533 q 538 518 460 533 q 681 469 616 503 q 693 450 692 463 q 688 435 693 441 q 675 428 682 428 q 670 429 671 428 q 538 476 612 458 q 376 493 465 493 q 259 483 315 493 q 170 447 204 472 q 135 378 135 422 q 167 320 135 338 q 252 294 199 301 q 368 286 304 288 q 494 281 431 285 q 610 265 557 278 q 695 223 663 252 q 727 142 727 195 q 683 54 727 86 q 569 7 640 22 q 418 -7 498 -7 m 280 -220 q 261 -213 269 -220 q 254 -196 254 -205 q 260 -178 254 -188 l 389 7 q 407 20 398 20 q 419 5 419 20 q 416 -5 419 -1 l 310 -196 q 295 -215 302 -210 q 280 -220 288 -220 z "},"ŝ":{"ha":802,"x_min":81,"x_max":727,"o":"m 418 -7 q 312 -3 370 -7 q 199 15 254 1 q 105 59 144 28 q 96 77 96 66 q 113 98 96 98 q 121 96 119 98 q 252 45 178 56 q 412 33 326 33 q 539 43 479 33 q 636 76 599 52 q 673 142 673 100 q 641 203 673 183 q 556 231 608 224 q 440 240 503 239 q 314 244 377 241 q 198 259 250 247 q 113 298 145 271 q 81 378 81 326 q 124 474 81 440 q 234 520 167 507 q 373 533 301 533 q 538 518 460 533 q 681 469 616 503 q 693 450 692 463 q 688 435 693 441 q 675 428 682 428 q 670 429 671 428 q 538 476 612 458 q 376 493 465 493 q 259 483 315 493 q 170 447 204 472 q 135 378 135 422 q 167 320 135 338 q 252 294 199 301 q 368 286 304 288 q 494 281 431 285 q 610 265 557 278 q 695 223 663 252 q 727 142 727 195 q 683 54 727 86 q 569 7 640 22 q 418 -7 498 -7 m 292 616 q 273 624 280 616 q 273 644 265 632 l 365 796 q 401 822 381 822 q 437 796 420 822 l 528 644 q 528 624 536 632 q 509 616 521 616 q 473 644 487 616 l 401 785 l 328 644 q 292 616 313 616 z "},"ș":{"ha":802,"x_min":81,"x_max":727,"o":"m 418 -7 q 312 -3 370 -7 q 199 15 254 1 q 105 59 144 28 q 96 77 96 66 q 113 98 96 98 q 121 96 119 98 q 252 45 178 56 q 412 33 326 33 q 539 43 479 33 q 636 76 599 52 q 673 142 673 100 q 641 203 673 183 q 556 231 608 224 q 440 240 503 239 q 314 244 377 241 q 198 259 250 247 q 113 298 145 271 q 81 378 81 326 q 124 474 81 440 q 234 520 167 507 q 373 533 301 533 q 538 518 460 533 q 681 469 616 503 q 693 450 692 463 q 688 435 693 441 q 675 428 682 428 q 670 429 671 428 q 538 476 612 458 q 376 493 465 493 q 259 483 315 493 q 170 447 204 472 q 135 378 135 422 q 167 320 135 338 q 252 294 199 301 q 368 286 304 288 q 494 281 431 285 q 610 265 557 278 q 695 223 663 252 q 727 142 727 195 q 683 54 727 86 q 569 7 640 22 q 418 -7 498 -7 m 351 -240 q 334 -227 334 -240 q 349 -216 334 -216 q 389 -180 389 -214 q 380 -168 389 -172 q 363 -155 374 -165 q 353 -125 353 -145 q 368 -95 353 -105 q 401 -85 382 -85 q 432 -97 416 -85 q 447 -135 447 -109 q 421 -205 447 -170 q 351 -240 395 -240 z "},"ß":{"ha":820,"x_min":108,"x_max":793,"o":"m 134 -50 q 111 -36 115 -50 q 108 -3 108 -22 l 108 510 q 183 710 108 651 q 423 770 258 770 q 625 733 554 770 q 695 595 695 697 q 662 511 695 544 q 580 457 629 477 q 483 426 532 437 q 401 409 434 415 q 368 397 368 403 q 388 393 368 393 q 433 393 408 393 q 553 389 490 393 q 670 366 616 385 q 759 308 725 348 q 793 195 793 267 q 779 109 793 145 q 723 48 764 72 q 604 12 682 24 q 397 0 525 0 q 367 4 381 0 q 353 22 353 8 q 367 41 353 38 q 399 45 380 45 q 609 56 534 45 q 714 99 684 68 q 745 190 745 131 q 716 280 745 247 q 643 328 688 313 q 546 347 598 343 q 446 351 494 351 l 401 351 q 335 359 355 351 q 315 399 315 367 q 370 444 315 433 q 456 464 409 452 q 546 493 503 475 q 617 536 589 510 q 645 600 645 563 q 588 696 645 671 q 424 721 530 721 q 274 704 334 721 q 185 641 215 686 q 156 510 156 595 l 156 -3 q 153 -36 156 -22 q 134 -50 151 -50 z "},"t":{"ha":484,"x_min":47,"x_max":478,"o":"m 298 -7 q 175 36 225 -7 q 125 189 125 79 l 125 477 l 66 477 q 47 493 47 477 q 66 509 47 509 l 125 509 l 125 678 q 134 706 125 700 q 153 711 143 711 q 172 706 164 711 q 180 678 180 700 l 180 509 l 405 509 q 425 493 425 509 q 405 477 425 477 l 180 477 l 180 189 q 197 90 180 123 q 243 45 214 56 q 308 33 273 33 q 372 45 340 33 q 444 78 403 56 q 459 82 452 82 q 478 64 478 82 q 463 43 478 51 q 372 2 406 12 q 298 -7 338 -7 z "},"ť":{"ha":484,"x_min":47,"x_max":478,"o":"m 298 -7 q 175 36 225 -7 q 125 189 125 79 l 125 477 l 66 477 q 47 493 47 477 q 66 509 47 509 l 125 509 l 125 678 q 134 706 125 700 q 153 711 143 711 q 172 706 164 711 q 180 678 180 700 l 180 509 l 405 509 q 425 493 425 509 q 405 477 425 477 l 180 477 l 180 189 q 197 90 180 123 q 243 45 214 56 q 308 33 273 33 q 372 45 340 33 q 444 78 403 56 q 459 82 452 82 q 478 64 478 82 q 463 43 478 51 q 372 2 406 12 q 298 -7 338 -7 m 370 558 q 353 571 353 558 q 368 583 353 582 q 408 618 408 585 q 399 630 408 626 q 382 643 393 633 q 372 673 372 653 q 387 703 372 693 q 420 713 401 713 q 451 701 435 713 q 466 663 466 689 q 440 593 466 629 q 370 558 414 558 z "},"ţ":{"ha":484,"x_min":47,"x_max":478,"o":"m 298 -7 q 175 36 225 -7 q 125 189 125 79 l 125 477 l 66 477 q 47 493 47 477 q 66 509 47 509 l 125 509 l 125 678 q 134 706 125 700 q 153 711 143 711 q 172 706 164 711 q 180 678 180 700 l 180 509 l 405 509 q 425 493 425 509 q 405 477 425 477 l 180 477 l 180 189 q 197 90 180 123 q 243 45 214 56 q 308 33 273 33 q 372 45 340 33 q 444 78 403 56 q 459 82 452 82 q 478 64 478 82 q 463 43 478 51 q 372 2 406 12 q 298 -7 338 -7 m 142 -220 q 123 -213 130 -220 q 115 -196 115 -205 q 122 -178 115 -188 l 251 7 q 269 20 260 20 q 281 5 281 20 q 278 -5 281 -1 l 172 -196 q 156 -215 163 -210 q 142 -220 149 -220 z "},"ț":{"ha":484,"x_min":47,"x_max":478,"o":"m 298 -7 q 175 36 225 -7 q 125 189 125 79 l 125 477 l 66 477 q 47 493 47 477 q 66 509 47 509 l 125 509 l 125 678 q 134 706 125 700 q 153 711 143 711 q 172 706 164 711 q 180 678 180 700 l 180 509 l 405 509 q 425 493 425 509 q 405 477 425 477 l 180 477 l 180 189 q 197 90 180 123 q 243 45 214 56 q 308 33 273 33 q 372 45 340 33 q 444 78 403 56 q 459 82 452 82 q 478 64 478 82 q 463 43 478 51 q 372 2 406 12 q 298 -7 338 -7 m 212 -240 q 196 -227 196 -240 q 210 -216 196 -216 q 250 -180 250 -214 q 242 -168 250 -172 q 225 -155 235 -165 q 215 -125 215 -145 q 229 -95 215 -105 q 262 -85 243 -85 q 293 -97 278 -85 q 309 -135 309 -109 q 282 -205 309 -170 q 212 -240 256 -240 z "},"u":{"ha":799,"x_min":100,"x_max":691,"o":"m 370 -7 q 162 51 224 -7 q 100 236 100 108 l 100 471 q 104 504 100 488 q 127 519 109 519 q 150 504 146 519 q 154 471 154 488 l 154 236 q 172 116 154 161 q 237 53 190 72 q 370 33 283 33 q 531 62 465 33 q 637 121 598 92 l 637 471 q 641 504 637 488 q 662 519 644 519 q 687 504 682 519 q 691 471 691 488 l 691 47 q 686 15 691 30 q 665 0 682 0 q 643 11 648 0 q 637 47 637 22 l 637 96 q 584 50 618 73 q 498 9 550 26 q 370 -7 446 -7 z "},"ú":{"ha":799,"x_min":100,"x_max":691,"o":"m 370 -7 q 162 51 224 -7 q 100 236 100 108 l 100 471 q 104 504 100 488 q 127 519 109 519 q 150 504 146 519 q 154 471 154 488 l 154 236 q 172 116 154 161 q 237 53 190 72 q 370 33 283 33 q 531 62 465 33 q 637 121 598 92 l 637 471 q 641 504 637 488 q 662 519 644 519 q 687 504 682 519 q 691 471 691 488 l 691 47 q 686 15 691 30 q 665 0 682 0 q 643 11 648 0 q 637 47 637 22 l 637 96 q 584 50 618 73 q 498 9 550 26 q 370 -7 446 -7 m 347 615 q 328 633 328 615 q 334 645 328 640 l 505 832 q 522 840 512 840 q 547 827 536 840 q 558 800 558 815 q 548 781 558 789 l 357 618 q 347 615 352 615 z "},"ŭ":{"ha":799,"x_min":100,"x_max":691,"o":"m 370 -7 q 162 51 224 -7 q 100 236 100 108 l 100 471 q 104 504 100 488 q 127 519 109 519 q 150 504 146 519 q 154 471 154 488 l 154 236 q 172 116 154 161 q 237 53 190 72 q 370 33 283 33 q 531 62 465 33 q 637 121 598 92 l 637 471 q 641 504 637 488 q 662 519 644 519 q 687 504 682 519 q 691 471 691 488 l 691 47 q 686 15 691 30 q 665 0 682 0 q 643 11 648 0 q 637 47 637 22 l 637 96 q 584 50 618 73 q 498 9 550 26 q 370 -7 446 -7 m 399 616 q 322 635 351 616 q 280 684 293 655 q 267 739 267 712 q 272 761 267 751 q 292 770 276 770 q 311 761 307 770 q 315 739 315 752 q 333 681 315 708 q 399 654 351 654 q 466 681 448 654 q 484 739 484 708 q 488 761 484 752 q 507 770 492 770 q 527 761 523 770 q 532 739 532 751 q 519 684 532 712 q 477 635 506 655 q 399 616 448 616 z "},"û":{"ha":799,"x_min":100,"x_max":691,"o":"m 370 -7 q 162 51 224 -7 q 100 236 100 108 l 100 471 q 104 504 100 488 q 127 519 109 519 q 150 504 146 519 q 154 471 154 488 l 154 236 q 172 116 154 161 q 237 53 190 72 q 370 33 283 33 q 531 62 465 33 q 637 121 598 92 l 637 471 q 641 504 637 488 q 662 519 644 519 q 687 504 682 519 q 691 471 691 488 l 691 47 q 686 15 691 30 q 665 0 682 0 q 643 11 648 0 q 637 47 637 22 l 637 96 q 584 50 618 73 q 498 9 550 26 q 370 -7 446 -7 m 290 616 q 271 624 279 616 q 271 644 264 632 l 363 796 q 399 822 380 822 q 435 796 419 822 l 527 644 q 527 624 534 632 q 508 616 519 616 q 471 644 486 616 l 399 785 l 327 644 q 290 616 312 616 z "},"ȕ":{"ha":799,"x_min":100,"x_max":691,"o":"m 370 -7 q 162 51 224 -7 q 100 236 100 108 l 100 471 q 104 504 100 488 q 127 519 109 519 q 150 504 146 519 q 154 471 154 488 l 154 236 q 172 116 154 161 q 237 53 190 72 q 370 33 283 33 q 531 62 465 33 q 637 121 598 92 l 637 471 q 641 504 637 488 q 662 519 644 519 q 687 504 682 519 q 691 471 691 488 l 691 47 q 686 15 691 30 q 665 0 682 0 q 643 11 648 0 q 637 47 637 22 l 637 96 q 584 50 618 73 q 498 9 550 26 q 370 -7 446 -7 m 488 616 q 478 619 483 616 l 287 782 q 277 801 277 790 q 286 823 277 813 q 307 833 294 833 q 323 826 316 833 l 501 646 q 507 633 507 640 q 488 616 507 616 m 334 616 q 323 619 328 616 l 132 782 q 122 801 122 790 q 131 823 122 813 q 152 833 140 833 q 169 826 161 833 l 347 646 q 352 633 352 640 q 334 616 352 616 z "},"ü":{"ha":799,"x_min":100,"x_max":691,"o":"m 370 -7 q 162 51 224 -7 q 100 236 100 108 l 100 471 q 104 504 100 488 q 127 519 109 519 q 150 504 146 519 q 154 471 154 488 l 154 236 q 172 116 154 161 q 237 53 190 72 q 370 33 283 33 q 531 62 465 33 q 637 121 598 92 l 637 471 q 641 504 637 488 q 662 519 644 519 q 687 504 682 519 q 691 471 691 488 l 691 47 q 686 15 691 30 q 665 0 682 0 q 643 11 648 0 q 637 47 637 22 l 637 96 q 584 50 618 73 q 498 9 550 26 q 370 -7 446 -7 m 534 637 q 505 648 516 637 q 494 675 494 659 q 505 704 494 693 q 534 715 516 715 q 563 704 551 715 q 574 675 574 693 q 563 648 574 659 q 534 637 551 637 m 263 637 q 235 648 245 637 q 224 675 224 659 q 235 704 224 693 q 263 715 245 715 q 292 704 280 715 q 304 675 304 693 q 292 648 304 659 q 263 637 280 637 z "},"ù":{"ha":799,"x_min":100,"x_max":691,"o":"m 370 -7 q 162 51 224 -7 q 100 236 100 108 l 100 471 q 104 504 100 488 q 127 519 109 519 q 150 504 146 519 q 154 471 154 488 l 154 236 q 172 116 154 161 q 237 53 190 72 q 370 33 283 33 q 531 62 465 33 q 637 121 598 92 l 637 471 q 641 504 637 488 q 662 519 644 519 q 687 504 682 519 q 691 471 691 488 l 691 47 q 686 15 691 30 q 665 0 682 0 q 643 11 648 0 q 637 47 637 22 l 637 96 q 584 50 618 73 q 498 9 550 26 q 370 -7 446 -7 m 452 616 q 442 620 447 616 l 251 783 q 241 802 241 791 q 252 829 241 817 q 277 841 262 841 q 294 833 287 841 l 465 646 q 471 634 471 641 q 452 616 471 616 z "},"ű":{"ha":799,"x_min":100,"x_max":691,"o":"m 370 -7 q 162 51 224 -7 q 100 236 100 108 l 100 471 q 104 504 100 488 q 127 519 109 519 q 150 504 146 519 q 154 471 154 488 l 154 236 q 172 116 154 161 q 237 53 190 72 q 370 33 283 33 q 531 62 465 33 q 637 121 598 92 l 637 471 q 641 504 637 488 q 662 519 644 519 q 687 504 682 519 q 691 471 691 488 l 691 47 q 686 15 691 30 q 665 0 682 0 q 643 11 648 0 q 637 47 637 22 l 637 96 q 584 50 618 73 q 498 9 550 26 q 370 -7 446 -7 m 471 614 q 453 632 453 614 q 458 644 453 639 l 637 825 q 654 832 645 832 q 678 821 667 832 q 690 798 690 810 q 680 779 690 787 l 481 618 q 471 614 477 614 m 317 614 q 298 632 298 614 q 304 644 298 639 l 483 825 q 500 832 490 832 q 524 821 512 832 q 535 798 535 810 q 525 779 535 787 l 327 618 q 317 614 322 614 z "},"ȗ":{"ha":799,"x_min":100,"x_max":691,"o":"m 370 -7 q 162 51 224 -7 q 100 236 100 108 l 100 471 q 104 504 100 488 q 127 519 109 519 q 150 504 146 519 q 154 471 154 488 l 154 236 q 172 116 154 161 q 237 53 190 72 q 370 33 283 33 q 531 62 465 33 q 637 121 598 92 l 637 471 q 641 504 637 488 q 662 519 644 519 q 687 504 682 519 q 691 471 691 488 l 691 47 q 686 15 691 30 q 665 0 682 0 q 643 11 648 0 q 637 47 637 22 l 637 96 q 584 50 618 73 q 498 9 550 26 q 370 -7 446 -7 m 292 616 q 273 626 277 616 q 269 647 269 636 q 281 703 269 674 q 322 751 294 731 q 399 770 351 770 q 477 751 448 770 q 517 703 505 731 q 530 647 530 674 q 526 626 530 636 q 507 616 522 616 q 490 625 494 616 q 486 647 486 634 q 467 707 486 678 q 399 735 448 735 q 332 707 351 735 q 313 647 313 678 q 309 625 313 634 q 292 616 305 616 z "},"ū":{"ha":799,"x_min":100,"x_max":691,"o":"m 370 -7 q 162 51 224 -7 q 100 236 100 108 l 100 471 q 104 504 100 488 q 127 519 109 519 q 150 504 146 519 q 154 471 154 488 l 154 236 q 172 116 154 161 q 237 53 190 72 q 370 33 283 33 q 531 62 465 33 q 637 121 598 92 l 637 471 q 641 504 637 488 q 662 519 644 519 q 687 504 682 519 q 691 471 691 488 l 691 47 q 686 15 691 30 q 665 0 682 0 q 643 11 648 0 q 637 47 637 22 l 637 96 q 584 50 618 73 q 498 9 550 26 q 370 -7 446 -7 m 283 627 q 267 635 271 627 q 262 648 262 643 q 267 663 262 654 q 283 671 271 671 l 515 671 q 532 663 528 671 q 537 648 537 654 q 532 635 537 643 q 515 627 528 627 l 283 627 z "},"ų":{"ha":799,"x_min":100,"x_max":719,"o":"m 370 -7 q 162 51 224 -7 q 100 236 100 108 l 100 471 q 104 504 100 488 q 127 519 109 519 q 150 504 146 519 q 154 471 154 488 l 154 236 q 172 116 154 161 q 237 53 190 72 q 370 33 283 33 q 531 62 465 33 q 637 121 598 92 l 637 471 q 641 504 637 488 q 662 519 644 519 q 687 504 682 519 q 691 471 691 488 l 691 47 q 686 15 691 30 q 665 0 682 0 q 643 11 648 0 q 637 47 637 22 l 637 96 q 584 50 618 73 q 498 9 550 26 q 370 -7 446 -7 m 633 -186 q 590 -171 610 -186 q 569 -121 569 -156 q 594 -56 569 -88 q 656 7 618 -24 l 677 7 q 641 -50 653 -21 q 629 -100 629 -78 q 641 -138 629 -127 q 664 -149 653 -149 q 690 -141 677 -149 q 712 -128 703 -134 l 719 -134 q 683 -172 707 -158 q 633 -186 659 -186 z "},"ů":{"ha":799,"x_min":100,"x_max":691,"o":"m 370 -7 q 162 51 224 -7 q 100 236 100 108 l 100 471 q 104 504 100 488 q 127 519 109 519 q 150 504 146 519 q 154 471 154 488 l 154 236 q 172 116 154 161 q 237 53 190 72 q 370 33 283 33 q 531 62 465 33 q 637 121 598 92 l 637 471 q 641 504 637 488 q 662 519 644 519 q 687 504 682 519 q 691 471 691 488 l 691 47 q 686 15 691 30 q 665 0 682 0 q 643 11 648 0 q 637 47 637 22 l 637 96 q 584 50 618 73 q 498 9 550 26 q 370 -7 446 -7 m 399 616 q 343 638 368 616 q 319 692 319 660 q 342 747 319 725 q 399 769 366 769 q 455 747 432 769 q 479 692 479 725 q 455 638 479 660 q 399 616 432 616 m 399 650 q 429 663 417 650 q 441 692 441 675 q 429 722 441 711 q 399 734 417 734 q 370 722 382 734 q 358 692 358 711 q 370 663 358 675 q 399 650 382 650 z "},"ũ":{"ha":799,"x_min":100,"x_max":691,"o":"m 370 -7 q 162 51 224 -7 q 100 236 100 108 l 100 471 q 104 504 100 488 q 127 519 109 519 q 150 504 146 519 q 154 471 154 488 l 154 236 q 172 116 154 161 q 237 53 190 72 q 370 33 283 33 q 531 62 465 33 q 637 121 598 92 l 637 471 q 641 504 637 488 q 662 519 644 519 q 687 504 682 519 q 691 471 691 488 l 691 47 q 686 15 691 30 q 665 0 682 0 q 643 11 648 0 q 637 47 637 22 l 637 96 q 584 50 618 73 q 498 9 550 26 q 370 -7 446 -7 m 266 616 q 247 626 251 616 q 243 647 243 636 q 258 696 243 676 q 310 715 273 715 q 377 701 347 715 q 434 670 407 686 q 488 655 460 655 q 506 661 498 655 q 513 685 513 666 q 517 706 513 697 q 532 715 521 715 q 551 706 547 715 q 555 684 555 696 q 541 635 555 655 q 488 616 526 616 q 428 631 463 616 q 360 661 393 646 q 310 676 328 676 q 293 671 300 676 q 286 646 286 665 q 281 625 286 634 q 266 616 277 616 z "},"v":{"ha":694,"x_min":41,"x_max":653,"o":"m 347 -7 q 325 3 333 -7 q 313 20 317 12 l 48 471 q 41 495 41 482 q 64 519 41 519 q 94 498 82 519 l 347 50 l 600 498 q 630 519 612 519 q 646 513 640 519 q 653 495 653 507 q 646 471 653 484 l 382 20 q 369 3 377 12 q 347 -7 361 -7 z "},"w":{"ha":920,"x_min":72,"x_max":848,"o":"m 274 -3 q 235 33 248 -3 l 75 473 q 72 488 72 479 q 80 511 72 503 q 100 519 89 519 q 130 492 120 519 l 274 61 l 418 483 q 459 519 430 519 q 484 510 472 519 q 502 483 496 501 l 646 61 l 789 492 q 820 519 800 519 q 839 511 831 519 q 848 488 848 503 q 845 473 848 479 l 685 33 q 646 -3 671 -3 q 608 33 621 -3 l 460 457 l 311 33 q 274 -3 298 -3 z "},"ẃ":{"ha":920,"x_min":72,"x_max":848,"o":"m 274 -3 q 235 33 248 -3 l 75 473 q 72 488 72 479 q 80 511 72 503 q 100 519 89 519 q 130 492 120 519 l 274 61 l 418 483 q 459 519 430 519 q 484 510 472 519 q 502 483 496 501 l 646 61 l 789 492 q 820 519 800 519 q 839 511 831 519 q 848 488 848 503 q 845 473 848 479 l 685 33 q 646 -3 671 -3 q 608 33 621 -3 l 460 457 l 311 33 q 274 -3 298 -3 m 407 615 q 389 633 389 615 q 394 645 389 640 l 565 832 q 582 840 572 840 q 608 827 597 840 q 618 800 618 815 q 608 781 618 789 l 417 618 q 407 615 412 615 z "},"ŵ":{"ha":920,"x_min":72,"x_max":848,"o":"m 274 -3 q 235 33 248 -3 l 75 473 q 72 488 72 479 q 80 511 72 503 q 100 519 89 519 q 130 492 120 519 l 274 61 l 418 483 q 459 519 430 519 q 484 510 472 519 q 502 483 496 501 l 646 61 l 789 492 q 820 519 800 519 q 839 511 831 519 q 848 488 848 503 q 845 473 848 479 l 685 33 q 646 -3 671 -3 q 608 33 621 -3 l 460 457 l 311 33 q 274 -3 298 -3 m 351 616 q 332 624 339 616 q 332 644 324 632 l 424 796 q 460 822 440 822 q 496 796 479 822 l 587 644 q 587 624 595 632 q 568 616 580 616 q 532 644 546 616 l 460 785 l 387 644 q 351 616 372 616 z "},"ẅ":{"ha":920,"x_min":72,"x_max":848,"o":"m 274 -3 q 235 33 248 -3 l 75 473 q 72 488 72 479 q 80 511 72 503 q 100 519 89 519 q 130 492 120 519 l 274 61 l 418 483 q 459 519 430 519 q 484 510 472 519 q 502 483 496 501 l 646 61 l 789 492 q 820 519 800 519 q 839 511 831 519 q 848 488 848 503 q 845 473 848 479 l 685 33 q 646 -3 671 -3 q 608 33 621 -3 l 460 457 l 311 33 q 274 -3 298 -3 m 594 637 q 566 648 576 637 q 555 675 555 659 q 566 704 555 693 q 594 715 576 715 q 623 704 611 715 q 635 675 635 693 q 623 648 635 659 q 594 637 611 637 m 323 637 q 295 648 306 637 q 284 675 284 659 q 295 704 284 693 q 323 715 306 715 q 352 704 340 715 q 364 675 364 693 q 352 648 364 659 q 323 637 340 637 z "},"ẁ":{"ha":920,"x_min":72,"x_max":848,"o":"m 274 -3 q 235 33 248 -3 l 75 473 q 72 488 72 479 q 80 511 72 503 q 100 519 89 519 q 130 492 120 519 l 274 61 l 418 483 q 459 519 430 519 q 484 510 472 519 q 502 483 496 501 l 646 61 l 789 492 q 820 519 800 519 q 839 511 831 519 q 848 488 848 503 q 845 473 848 479 l 685 33 q 646 -3 671 -3 q 608 33 621 -3 l 460 457 l 311 33 q 274 -3 298 -3 m 513 616 q 503 620 507 616 l 311 783 q 301 802 301 791 q 312 829 301 817 q 338 841 323 841 q 355 833 347 841 l 526 646 q 531 634 531 641 q 513 616 531 616 z "},"x":{"ha":772,"x_min":98,"x_max":674,"o":"m 120 -2 q 99 19 99 -2 q 115 47 99 33 l 350 262 l 112 473 q 98 498 98 485 q 121 519 98 519 q 149 507 136 519 l 387 296 l 625 507 q 652 519 639 519 q 674 498 674 519 q 661 473 674 486 l 423 262 l 659 47 q 673 18 673 33 q 653 -2 673 -2 q 625 12 639 -2 l 387 229 l 149 12 q 120 -2 134 -2 z "},"y":{"ha":793,"x_min":100,"x_max":696,"o":"m 398 -227 q 277 -216 322 -227 q 205 -191 231 -206 q 161 -163 179 -176 q 156 -150 156 -158 q 177 -127 156 -127 q 189 -132 182 -127 q 261 -169 214 -151 q 398 -186 307 -186 q 545 -158 492 -186 q 620 -64 597 -130 q 642 115 642 1 q 599 50 631 74 q 526 13 568 25 q 441 -3 484 1 q 363 -7 398 -7 q 209 18 267 -7 q 125 102 151 43 q 100 262 100 161 l 100 471 q 104 504 100 488 q 126 519 108 519 q 150 504 146 519 q 154 471 154 488 l 154 262 q 171 124 154 174 q 232 54 187 74 q 363 33 277 33 q 474 44 416 33 q 580 82 533 54 q 642 163 627 110 l 642 471 q 646 504 642 488 q 667 519 651 519 q 691 504 687 519 q 696 471 696 488 l 696 138 q 666 -81 696 -1 q 570 -194 635 -161 q 398 -227 505 -227 z "},"ý":{"ha":793,"x_min":100,"x_max":696,"o":"m 398 -227 q 277 -216 322 -227 q 205 -191 231 -206 q 161 -163 179 -176 q 156 -150 156 -158 q 177 -127 156 -127 q 189 -132 182 -127 q 261 -169 214 -151 q 398 -186 307 -186 q 545 -158 492 -186 q 620 -64 597 -130 q 642 115 642 1 q 599 50 631 74 q 526 13 568 25 q 441 -3 484 1 q 363 -7 398 -7 q 209 18 267 -7 q 125 102 151 43 q 100 262 100 161 l 100 471 q 104 504 100 488 q 126 519 108 519 q 150 504 146 519 q 154 471 154 488 l 154 262 q 171 124 154 174 q 232 54 187 74 q 363 33 277 33 q 474 44 416 33 q 580 82 533 54 q 642 163 627 110 l 642 471 q 646 504 642 488 q 667 519 651 519 q 691 504 687 519 q 696 471 696 488 l 696 138 q 666 -81 696 -1 q 570 -194 635 -161 q 398 -227 505 -227 m 344 615 q 326 633 326 615 q 331 645 326 640 l 502 832 q 519 840 509 840 q 545 827 534 840 q 555 800 555 815 q 545 781 555 789 l 354 618 q 344 615 349 615 z "},"ŷ":{"ha":793,"x_min":100,"x_max":696,"o":"m 398 -227 q 277 -216 322 -227 q 205 -191 231 -206 q 161 -163 179 -176 q 156 -150 156 -158 q 177 -127 156 -127 q 189 -132 182 -127 q 261 -169 214 -151 q 398 -186 307 -186 q 545 -158 492 -186 q 620 -64 597 -130 q 642 115 642 1 q 599 50 631 74 q 526 13 568 25 q 441 -3 484 1 q 363 -7 398 -7 q 209 18 267 -7 q 125 102 151 43 q 100 262 100 161 l 100 471 q 104 504 100 488 q 126 519 108 519 q 150 504 146 519 q 154 471 154 488 l 154 262 q 171 124 154 174 q 232 54 187 74 q 363 33 277 33 q 474 44 416 33 q 580 82 533 54 q 642 163 627 110 l 642 471 q 646 504 642 488 q 667 519 651 519 q 691 504 687 519 q 696 471 696 488 l 696 138 q 666 -81 696 -1 q 570 -194 635 -161 q 398 -227 505 -227 m 288 616 q 269 624 276 616 q 269 644 261 632 l 361 796 q 397 822 377 822 q 433 796 416 822 l 524 644 q 524 624 532 632 q 505 616 517 616 q 469 644 483 616 l 397 785 l 324 644 q 288 616 309 616 z "},"ÿ":{"ha":793,"x_min":100,"x_max":696,"o":"m 398 -227 q 277 -216 322 -227 q 205 -191 231 -206 q 161 -163 179 -176 q 156 -150 156 -158 q 177 -127 156 -127 q 189 -132 182 -127 q 261 -169 214 -151 q 398 -186 307 -186 q 545 -158 492 -186 q 620 -64 597 -130 q 642 115 642 1 q 599 50 631 74 q 526 13 568 25 q 441 -3 484 1 q 363 -7 398 -7 q 209 18 267 -7 q 125 102 151 43 q 100 262 100 161 l 100 471 q 104 504 100 488 q 126 519 108 519 q 150 504 146 519 q 154 471 154 488 l 154 262 q 171 124 154 174 q 232 54 187 74 q 363 33 277 33 q 474 44 416 33 q 580 82 533 54 q 642 163 627 110 l 642 471 q 646 504 642 488 q 667 519 651 519 q 691 504 687 519 q 696 471 696 488 l 696 138 q 666 -81 696 -1 q 570 -194 635 -161 q 398 -227 505 -227 m 531 637 q 503 648 513 637 q 492 675 492 659 q 503 704 492 693 q 531 715 513 715 q 560 704 548 715 q 572 675 572 693 q 560 648 572 659 q 531 637 548 637 m 260 637 q 232 648 243 637 q 221 675 221 659 q 232 704 221 693 q 260 715 243 715 q 289 704 277 715 q 301 675 301 693 q 289 648 301 659 q 260 637 277 637 z "},"ỳ":{"ha":793,"x_min":100,"x_max":696,"o":"m 398 -227 q 277 -216 322 -227 q 205 -191 231 -206 q 161 -163 179 -176 q 156 -150 156 -158 q 177 -127 156 -127 q 189 -132 182 -127 q 261 -169 214 -151 q 398 -186 307 -186 q 545 -158 492 -186 q 620 -64 597 -130 q 642 115 642 1 q 599 50 631 74 q 526 13 568 25 q 441 -3 484 1 q 363 -7 398 -7 q 209 18 267 -7 q 125 102 151 43 q 100 262 100 161 l 100 471 q 104 504 100 488 q 126 519 108 519 q 150 504 146 519 q 154 471 154 488 l 154 262 q 171 124 154 174 q 232 54 187 74 q 363 33 277 33 q 474 44 416 33 q 580 82 533 54 q 642 163 627 110 l 642 471 q 646 504 642 488 q 667 519 651 519 q 691 504 687 519 q 696 471 696 488 l 696 138 q 666 -81 696 -1 q 570 -194 635 -161 q 398 -227 505 -227 m 450 616 q 439 620 444 616 l 248 783 q 238 802 238 791 q 249 829 238 817 q 275 841 260 841 q 292 833 284 841 l 463 646 q 468 634 468 641 q 450 616 468 616 z "},"z":{"ha":700,"x_min":68,"x_max":636,"o":"m 102 0 q 82 7 91 0 q 74 27 74 14 q 92 60 74 45 l 563 481 l 117 481 q 83 483 98 481 q 68 498 68 484 q 82 518 68 516 q 116 519 96 519 l 593 519 q 620 511 612 519 q 627 494 627 503 q 611 463 627 477 l 136 39 l 587 39 q 621 37 606 39 q 636 18 636 35 q 621 2 636 3 q 588 0 606 0 l 102 0 z "},"ź":{"ha":700,"x_min":68,"x_max":636,"o":"m 102 0 q 82 7 91 0 q 74 27 74 14 q 92 60 74 45 l 563 481 l 117 481 q 83 483 98 481 q 68 498 68 484 q 82 518 68 516 q 116 519 96 519 l 593 519 q 620 511 612 519 q 627 494 627 503 q 611 463 627 477 l 136 39 l 587 39 q 621 37 606 39 q 636 18 636 35 q 621 2 636 3 q 588 0 606 0 l 102 0 m 297 615 q 279 633 279 615 q 284 645 279 640 l 455 832 q 472 840 463 840 q 498 827 487 840 q 509 800 509 815 q 498 781 509 789 l 307 618 q 297 615 302 615 z "},"ž":{"ha":700,"x_min":68,"x_max":636,"o":"m 102 0 q 82 7 91 0 q 74 27 74 14 q 92 60 74 45 l 563 481 l 117 481 q 83 483 98 481 q 68 498 68 484 q 82 518 68 516 q 116 519 96 519 l 593 519 q 620 511 612 519 q 627 494 627 503 q 611 463 627 477 l 136 39 l 587 39 q 621 37 606 39 q 636 18 636 35 q 621 2 636 3 q 588 0 606 0 l 102 0 m 350 616 q 314 642 330 616 l 222 793 q 222 814 214 806 q 241 822 229 822 q 277 794 262 822 l 350 653 l 422 794 q 458 822 436 822 q 477 814 470 822 q 477 793 485 806 l 386 642 q 350 616 369 616 z "},"ż":{"ha":700,"x_min":68,"x_max":636,"o":"m 102 0 q 82 7 91 0 q 74 27 74 14 q 92 60 74 45 l 563 481 l 117 481 q 83 483 98 481 q 68 498 68 484 q 82 518 68 516 q 116 519 96 519 l 593 519 q 620 511 612 519 q 627 494 627 503 q 611 463 627 477 l 136 39 l 587 39 q 621 37 606 39 q 636 18 636 35 q 621 2 636 3 q 588 0 606 0 l 102 0 m 349 637 q 321 648 332 637 q 310 675 310 659 q 321 704 310 693 q 349 715 332 715 q 378 704 366 715 q 390 675 390 693 q 378 648 390 659 q 349 637 366 637 z "},"ﬁ":{"ha":679,"x_min":46,"x_max":613,"o":"m 152 0 q 134 6 142 0 q 125 33 125 12 l 125 477 l 65 477 q 46 493 46 477 q 65 509 46 509 l 125 509 l 125 553 q 169 706 125 663 q 284 749 212 749 q 360 744 325 749 q 444 723 395 739 q 465 702 465 715 q 460 691 465 697 q 444 685 454 685 q 431 688 437 685 q 360 705 395 701 q 294 710 326 710 q 233 699 258 710 q 193 653 207 687 q 179 553 179 620 l 179 509 l 427 509 q 447 493 447 509 q 427 477 447 477 l 179 477 l 179 33 q 171 6 179 12 q 152 0 163 0 m 573 0 q 550 12 554 0 q 546 43 546 23 l 546 478 q 550 512 546 498 q 573 526 554 526 q 595 511 590 526 q 600 479 600 497 l 600 43 q 596 13 600 25 q 573 0 593 0 m 572 637 q 544 648 555 637 q 533 675 533 659 q 544 704 533 693 q 572 715 555 715 q 601 704 589 715 q 613 675 613 693 q 601 648 613 659 q 572 637 589 637 z "},"ﬂ":{"ha":738,"x_min":46,"x_max":630,"o":"m 152 0 q 134 6 142 0 q 125 33 125 12 l 125 477 l 65 477 q 46 493 46 477 q 65 509 46 509 l 125 509 l 125 553 q 169 706 125 663 q 284 749 212 749 q 360 744 325 749 q 444 723 395 739 q 465 702 465 715 q 460 691 465 697 q 444 685 454 685 q 431 688 437 685 q 360 705 395 701 q 294 710 326 710 q 233 699 258 710 q 193 653 207 687 q 179 553 179 620 l 179 509 l 427 509 q 447 493 447 509 q 427 477 447 477 l 179 477 l 179 33 q 171 6 179 12 q 152 0 163 0 m 604 0 q 580 14 584 0 q 576 46 576 28 l 576 707 q 580 741 576 726 q 605 755 585 755 q 626 741 622 755 q 630 708 630 726 l 630 47 q 625 14 630 28 q 604 0 621 0 z "},"ª":{"ha":808,"x_min":91,"x_max":708,"o":"m 374 221 q 231 237 296 221 q 129 288 167 253 q 91 380 91 323 q 127 484 91 446 q 224 536 163 521 q 361 551 285 551 q 529 540 448 551 q 653 505 610 528 q 622 644 653 597 q 541 705 591 690 q 433 721 491 721 q 296 715 350 721 q 210 702 243 710 q 154 686 177 694 q 149 685 150 685 q 134 693 140 685 q 127 711 127 702 q 135 724 127 720 q 217 745 146 729 q 434 761 287 761 q 535 750 486 761 q 623 709 584 739 q 685 621 662 678 q 708 471 708 564 l 708 275 q 704 244 708 260 q 680 228 699 228 q 659 242 665 228 q 653 278 653 256 l 653 325 q 602 278 635 302 q 513 238 568 254 q 374 221 458 221 m 369 261 q 555 291 488 261 q 653 349 623 321 l 653 485 q 513 503 587 494 q 366 511 439 511 q 203 484 262 511 q 145 380 145 457 q 208 288 145 315 q 369 261 271 261 m 218 119 q 202 126 208 119 q 197 139 197 132 q 202 152 197 146 q 218 159 208 159 l 572 159 q 588 152 583 159 q 593 139 593 146 q 588 126 593 132 q 572 119 583 119 l 218 119 z "},"º":{"ha":763,"x_min":45,"x_max":719,"o":"m 382 219 q 183 252 257 219 q 77 344 109 284 q 45 487 45 404 q 126 695 45 631 q 382 759 208 759 q 637 695 555 759 q 719 487 719 631 q 687 344 719 404 q 581 252 654 284 q 382 219 507 219 m 382 259 q 530 279 474 259 q 615 332 587 298 q 654 405 644 365 q 665 487 665 446 q 597 666 665 613 q 382 719 530 719 q 166 666 233 719 q 99 487 99 613 q 109 405 99 446 q 148 332 119 365 q 233 279 177 298 q 382 259 290 259 m 205 119 q 189 126 195 119 q 184 139 184 132 q 189 152 184 146 q 205 159 195 159 l 559 159 q 575 152 570 159 q 581 139 581 146 q 575 126 581 132 q 559 119 570 119 l 205 119 z "},"⁄":{"ha":213,"x_min":-47,"x_max":294,"o":"m -22 -37 q -42 -28 -37 -37 q -47 -12 -47 -20 q -45 2 -47 -5 q -39 16 -42 8 l 239 758 q 250 785 244 773 q 272 797 256 797 q 290 789 286 797 q 294 773 294 782 q 292 759 294 766 q 288 744 290 751 l 8 2 q -4 -25 2 -14 q -22 -37 -10 -37 z "},"½":{"ha":1093,"x_min":28,"x_max":1017,"o":"m 202 226 q 179 241 182 226 q 176 273 176 256 l 176 705 l 71 705 q 43 706 58 705 q 28 724 28 708 q 44 749 28 745 q 70 752 59 752 l 201 752 q 222 736 220 752 q 224 705 224 721 l 224 273 q 222 241 224 256 q 202 226 220 226 m 284 -37 q 264 -28 269 -37 q 259 -12 259 -20 q 262 2 259 -5 q 267 16 264 8 l 545 758 q 557 785 551 773 q 578 797 563 797 q 597 789 593 797 q 601 773 601 782 q 599 759 601 766 q 594 744 597 751 l 315 2 q 302 -25 309 -14 q 284 -37 296 -37 m 600 0 q 581 17 587 0 q 576 50 576 34 q 602 111 576 85 q 670 157 628 136 q 758 196 711 177 q 856 241 808 217 q 935 296 904 264 q 966 374 966 328 q 922 464 966 440 q 823 487 878 487 q 716 472 768 487 q 633 448 663 458 q 622 446 627 446 q 604 453 610 446 q 597 469 597 460 q 618 492 597 485 q 713 517 661 505 q 821 530 766 530 q 917 515 872 530 q 989 467 962 501 q 1017 370 1017 432 q 981 273 1017 312 q 889 206 944 233 q 781 156 835 178 q 676 107 721 132 q 631 49 631 83 l 974 49 q 997 41 989 49 q 1004 24 1004 34 q 997 7 1004 15 q 974 0 989 0 l 600 0 z "},"¼":{"ha":1103,"x_min":28,"x_max":1059,"o":"m 202 226 q 179 241 182 226 q 176 273 176 256 l 176 705 l 71 705 q 43 706 58 705 q 28 724 28 708 q 44 749 28 745 q 70 752 59 752 l 201 752 q 222 736 220 752 q 224 705 224 721 l 224 273 q 222 241 224 256 q 202 226 220 226 m 251 -37 q 231 -28 236 -37 q 226 -12 226 -20 q 229 2 226 -5 q 234 16 231 8 l 512 758 q 524 785 517 773 q 545 797 530 797 q 564 789 559 797 q 568 773 568 782 q 566 759 568 766 q 561 744 564 751 l 281 2 q 269 -25 275 -14 q 251 -37 263 -37 m 872 0 q 850 15 852 0 q 847 47 847 30 l 847 195 l 595 195 q 551 210 557 195 q 545 243 545 225 l 545 481 q 549 512 545 497 q 572 526 552 526 q 592 511 589 526 q 595 481 595 496 l 595 243 l 847 243 l 847 479 q 850 511 847 496 q 872 526 853 526 q 893 511 890 526 q 896 479 896 496 l 896 243 l 1010 243 q 1046 240 1033 243 q 1059 218 1059 237 q 1047 199 1059 203 q 1011 195 1034 195 l 896 195 l 896 47 q 893 15 896 30 q 872 0 890 0 z "}}}
